  0
SECTION
  2
HEADER
  9
$ACADVER
  1
AC1024
  9
$ACADMAINTVER
 70
6
  9
$DWGCODEPAGE
  3
ANSI_1252
  9
$LASTSAVEDBY
  1
ezdxf
  9
$INSBASE
 10
0.0
 20
0.0
 30
0.0
  9
$EXTMIN
 10
1e+20
 20
1e+20
 30
1e+20
  9
$EXTMAX
 10
-1e+20
 20
-1e+20
 30
-1e+20
  9
$LIMMIN
 10
0.0
 20
0.0
  9
$LIMMAX
 10
420.0
 20
297.0
  9
$ORTHOMODE
 70
0
  9
$REGENMODE
 70
1
  9
$FILLMODE
 70
1
  9
$QTEXTMODE
 70
0
  9
$MIRRTEXT
 70
1
  9
$LTSCALE
 40
1.0
  9
$ATTMODE
 70
1
  9
$TEXTSIZE
 40
2.5
  9
$TRACEWID
 40
1.0
  9
$TEXTSTYLE
  7
Standard
  9
$CLAYER
  8
0
  9
$CELTYPE
  6
ByLayer
  9
$CECOLOR
 62
256
  9
$CELTSCALE
 40
1.0
  9
$DISPSILH
 70
0
  9
$DIMSCALE
 40
1.0
  9
$DIMASZ
 40
2.5
  9
$DIMEXO
 40
0.625
  9
$DIMDLI
 40
3.75
  9
$DIMRND
 40
0.0
  9
$DIMDLE
 40
0.0
  9
$DIMEXE
 40
1.25
  9
$DIMTP
 40
0.0
  9
$DIMTM
 40
0.0
  9
$DIMTXT
 40
2.5
  9
$DIMCEN
 40
2.5
  9
$DIMTSZ
 40
0.0
  9
$DIMTOL
 70
0
  9
$DIMLIM
 70
0
  9
$DIMTIH
 70
0
  9
$DIMTOH
 70
0
  9
$DIMSE1
 70
0
  9
$DIMSE2
 70
0
  9
$DIMTAD
 70
1
  9
$DIMZIN
 70
8
  9
$DIMBLK
  1

  9
$DIMASO
 70
1
  9
$DIMSHO
 70
1
  9
$DIMPOST
  1

  9
$DIMAPOST
  1

  9
$DIMALT
 70
0
  9
$DIMALTD
 70
3
  9
$DIMALTF
 40
0.03937007874
  9
$DIMLFAC
 40
1.0
  9
$DIMTOFL
 70
1
  9
$DIMTVP
 40
0.0
  9
$DIMTIX
 70
0
  9
$DIMSOXD
 70
0
  9
$DIMSAH
 70
0
  9
$DIMBLK1
  1

  9
$DIMBLK2
  1

  9
$DIMSTYLE
  2
ISO-25
  9
$DIMCLRD
 70
0
  9
$DIMCLRE
 70
0
  9
$DIMCLRT
 70
0
  9
$DIMTFAC
 40
1.0
  9
$DIMGAP
 40
0.625
  9
$DIMJUST
 70
0
  9
$DIMSD1
 70
0
  9
$DIMSD2
 70
0
  9
$DIMTOLJ
 70
0
  9
$DIMTZIN
 70
8
  9
$DIMALTZ
 70
0
  9
$DIMALTTZ
 70
0
  9
$DIMUPT
 70
0
  9
$DIMDEC
 70
2
  9
$DIMTDEC
 70
2
  9
$DIMALTU
 70
2
  9
$DIMALTTD
 70
3
  9
$DIMTXSTY
  7
Standard
  9
$DIMAUNIT
 70
0
  9
$DIMADEC
 70
0
  9
$DIMALTRND
 40
0.0
  9
$DIMAZIN
 70
0
  9
$DIMDSEP
 70
44
  9
$DIMATFIT
 70
3
  9
$DIMFRAC
 70
0
  9
$DIMLDRBLK
  1

  9
$DIMLUNIT
 70
2
  9
$DIMLWD
 70
-2
  9
$DIMLWE
 70
-2
  9
$DIMTMOVE
 70
0
  9
$DIMFXL
 40
1.0
  9
$DIMFXLON
 70
0
  9
$DIMJOGANG
 40
0.785398163397
  9
$DIMTFILL
 70
0
  9
$DIMTFILLCLR
 70
0
  9
$DIMARCSYM
 70
0
  9
$DIMLTYPE
  6

  9
$DIMLTEX1
  6

  9
$DIMLTEX2
  6

  9
$DIMTXTDIRECTION
 70
0
  9
$LUNITS
 70
2
  9
$LUPREC
 70
4
  9
$SKETCHINC
 40
1.0
  9
$FILLETRAD
 40
10.0
  9
$AUNITS
 70
0
  9
$AUPREC
 70
2
  9
$MENU
  1
.
  9
$ELEVATION
 40
0.0
  9
$PELEVATION
 40
0.0
  9
$THICKNESS
 40
0.0
  9
$LIMCHECK
 70
0
  9
$CHAMFERA
 40
0.0
  9
$CHAMFERB
 40
0.0
  9
$CHAMFERC
 40
0.0
  9
$CHAMFERD
 40
0.0
  9
$SKPOLY
 70
0
  9
$TDCREATE
 40
2461274.607974537
  9
$TDUCREATE
 40
2458532.153996898
  9
$TDUPDATE
 40
2461274.607974537
  9
$TDUUPDATE
 40
2458532.1544311
  9
$TDINDWG
 40
0.0
  9
$TDUSRTIMER
 40
0.0
  9
$USRTIMER
 70
1
  9
$ANGBASE
 50
0.0
  9
$ANGDIR
 70
0
  9
$PDMODE
 70
0
  9
$PDSIZE
 40
0.0
  9
$PLINEWID
 40
0.0
  9
$SPLFRAME
 70
0
  9
$SPLINETYPE
 70
6
  9
$SPLINESEGS
 70
8
  9
$HANDSEED
  5
3A
  9
$SURFTAB1
 70
6
  9
$SURFTAB2
 70
6
  9
$SURFTYPE
 70
6
  9
$SURFU
 70
6
  9
$SURFV
 70
6
  9
$UCSBASE
  2

  9
$UCSNAME
  2

  9
$UCSORG
 10
0.0
 20
0.0
 30
0.0
  9
$UCSXDIR
 10
1.0
 20
0.0
 30
0.0
  9
$UCSYDIR
 10
0.0
 20
1.0
 30
0.0
  9
$UCSORTHOREF
  2

  9
$UCSORTHOVIEW
 70
0
  9
$UCSORGTOP
 10
0.0
 20
0.0
 30
0.0
  9
$UCSORGBOTTOM
 10
0.0
 20
0.0
 30
0.0
  9
$UCSORGLEFT
 10
0.0
 20
0.0
 30
0.0
  9
$UCSORGRIGHT
 10
0.0
 20
0.0
 30
0.0
  9
$UCSORGFRONT
 10
0.0
 20
0.0
 30
0.0
  9
$UCSORGBACK
 10
0.0
 20
0.0
 30
0.0
  9
$PUCSBASE
  2

  9
$PUCSNAME
  2

  9
$PUCSORG
 10
0.0
 20
0.0
 30
0.0
  9
$PUCSXDIR
 10
1.0
 20
0.0
 30
0.0
  9
$PUCSYDIR
 10
0.0
 20
1.0
 30
0.0
  9
$PUCSORTHOREF
  2

  9
$PUCSORTHOVIEW
 70
0
  9
$PUCSORGTOP
 10
0.0
 20
0.0
 30
0.0
  9
$PUCSORGBOTTOM
 10
0.0
 20
0.0
 30
0.0
  9
$PUCSORGLEFT
 10
0.0
 20
0.0
 30
0.0
  9
$PUCSORGRIGHT
 10
0.0
 20
0.0
 30
0.0
  9
$PUCSORGFRONT
 10
0.0
 20
0.0
 30
0.0
  9
$PUCSORGBACK
 10
0.0
 20
0.0
 30
0.0
  9
$USERI1
 70
0
  9
$USERI2
 70
0
  9
$USERI3
 70
0
  9
$USERI4
 70
0
  9
$USERI5
 70
0
  9
$USERR1
 40
0.0
  9
$USERR2
 40
0.0
  9
$USERR3
 40
0.0
  9
$USERR4
 40
0.0
  9
$USERR5
 40
0.0
  9
$WORLDVIEW
 70
1
  9
$SHADEDGE
 70
3
  9
$SHADEDIF
 70
70
  9
$TILEMODE
 70
1
  9
$MAXACTVP
 70
64
  9
$PINSBASE
 10
0.0
 20
0.0
 30
0.0
  9
$PLIMCHECK
 70
0
  9
$PEXTMIN
 10
1e+20
 20
1e+20
 30
1e+20
  9
$PEXTMAX
 10
-1e+20
 20
-1e+20
 30
-1e+20
  9
$PLIMMIN
 10
0.0
 20
0.0
  9
$PLIMMAX
 10
420.0
 20
297.0
  9
$UNITMODE
 70
0
  9
$VISRETAIN
 70
1
  9
$PLINEGEN
 70
0
  9
$PSLTSCALE
 70
1
  9
$TREEDEPTH
 70
3020
  9
$CMLSTYLE
  2
Standard
  9
$CMLJUST
 70
0
  9
$CMLSCALE
 40
20.0
  9
$PROXYGRAPHICS
 70
1
  9
$MEASUREMENT
 70
1
  9
$CELWEIGHT
370
-1
  9
$ENDCAPS
280
0
  9
$JOINSTYLE
280
0
  9
$LWDISPLAY
290
0
  9
$INSUNITS
 70
4
  9
$HYPERLINKBASE
  1

  9
$STYLESHEET
  1

  9
$XEDIT
290
1
  9
$CEPSNTYPE
380
0
  9
$PSTYLEMODE
290
1
  9
$FINGERPRINTGUID
  2
{2FE46708-DCC2-4FC8-AB0E-1A896F23B8F0}
  9
$VERSIONGUID
  2
{2F90FA93-1262-44EC-AC13-FF41BF7824A3}
  9
$EXTNAMES
290
1
  9
$PSVPSCALE
 40
0.0
  9
$OLESTARTUP
290
0
  9
$SORTENTS
280
127
  9
$INDEXCTL
280
0
  9
$HIDETEXT
280
1
  9
$XCLIPFRAME
280
0
  9
$HALOGAP
280
0
  9
$OBSCOLOR
 70
257
  9
$OBSLTYPE
280
0
  9
$INTERSECTIONDISPLAY
280
0
  9
$INTERSECTIONCOLOR
 70
257
  9
$DIMASSOC
280
2
  9
$PROJECTNAME
  1

  9
$CAMERADISPLAY
290
0
  9
$LENSLENGTH
 40
50.0
  9
$CAMERAHEIGHT
 40
0.0
  9
$STEPSPERSEC
 40
24.0
  9
$STEPSIZE
 40
100.0
  9
$3DDWFPREC
 40
2.0
  9
$PSOLWIDTH
 40
0.005
  9
$PSOLHEIGHT
 40
0.08
  9
$LOFTANG1
 40
1.570796326795
  9
$LOFTANG2
 40
1.570796326795
  9
$LOFTMAG1
 40
0.0
  9
$LOFTMAG2
 40
0.0
  9
$LOFTPARAM
 70
7
  9
$LOFTNORMALS
280
1
  9
$LATITUDE
 40
37.795
  9
$LONGITUDE
 40
-122.394
  9
$NORTHDIRECTION
 40
0.0
  9
$TIMEZONE
 70
-8000
  9
$LIGHTGLYPHDISPLAY
280
1
  9
$TILEMODELIGHTSYNCH
280
1
  9
$CMATERIAL
347
20
  9
$SOLIDHIST
280
0
  9
$SHOWHIST
280
1
  9
$DWFFRAME
280
2
  9
$DGNFRAME
280
2
  9
$REALWORLDSCALE
290
1
  9
$INTERFERECOLOR
 62
256
  9
$CSHADOW
280
0
  9
$SHADOWPLANELOCATION
 40
0.0
  0
ENDSEC
  0
SECTION
  2
CLASSES
  0
CLASS
  1
ACDBDICTIONARYWDFLT
  2
AcDbDictionaryWithDefault
  3
ObjectDBX Classes
 90
0
 91
0
280
0
281
0
  0
CLASS
  1
SUN
  2
AcDbSun
  3
SCENEOE
 90
1153
 91
0
280
0
281
0
  0
CLASS
  1
VISUALSTYLE
  2
AcDbVisualStyle
  3
ObjectDBX Classes
 90
4095
 91
0
280
0
281
0
  0
CLASS
  1
MATERIAL
  2
AcDbMaterial
  3
ObjectDBX Classes
 90
1153
 91
0
280
0
281
0
  0
CLASS
  1
SCALE
  2
AcDbScale
  3
ObjectDBX Classes
 90
1153
 91
0
280
0
281
0
  0
CLASS
  1
TABLESTYLE
  2
AcDbTableStyle
  3
ObjectDBX Classes
 90
4095
 91
0
280
0
281
0
  0
CLASS
  1
MLEADERSTYLE
  2
AcDbMLeaderStyle
  3
ACDB_MLEADERSTYLE_CLASS
 90
4095
 91
0
280
0
281
0
  0
CLASS
  1
DICTIONARYVAR
  2
AcDbDictionaryVar
  3
ObjectDBX Classes
 90
0
 91
0
280
0
281
0
  0
CLASS
  1
CELLSTYLEMAP
  2
AcDbCellStyleMap
  3
ObjectDBX Classes
 90
1152
 91
0
280
0
281
0
  0
CLASS
  1
MENTALRAYRENDERSETTINGS
  2
AcDbMentalRayRenderSettings
  3
SCENEOE
 90
1024
 91
0
280
0
281
0
  0
CLASS
  1
ACDBDETAILVIEWSTYLE
  2
AcDbDetailViewStyle
  3
ObjectDBX Classes
 90
1025
 91
0
280
0
281
0
  0
CLASS
  1
ACDBSECTIONVIEWSTYLE
  2
AcDbSectionViewStyle
  3
ObjectDBX Classes
 90
1025
 91
0
280
0
281
0
  0
CLASS
  1
RASTERVARIABLES
  2
AcDbRasterVariables
  3
ISM
 90
0
 91
0
280
0
281
0
  0
CLASS
  1
LAYOUT
  2
AcDbLayout
  3
ObjectDBX Classes
 90
0
 91
0
280
0
281
0
  0
CLASS
  1
ACDBPLACEHOLDER
  2
AcDbPlaceHolder
  3
ObjectDBX Classes
 90
0
 91
0
280
0
281
0
  0
ENDSEC
  0
SECTION
  2
TABLES
  0
TABLE
  2
VPORT
  5
8
330
0
100
AcDbSymbolTable
 70
1
  0
VPORT
  5
23
330
8
100
AcDbSymbolTableRecord
100
AcDbViewportTableRecord
  2
*Active
 70
0
 10
0.0
 20
0.0
 11
1.0
 21
1.0
 12
0.0
 22
0.0
 13
0.0
 23
0.0
 14
0.5
 24
0.5
 15
0.5
 25
0.5
 16
0.0
 26
0.0
 36
1.0
 17
0.0
 27
0.0
 37
0.0
 40
1000.0
 41
1.34
 42
50.0
 43
0.0
 44
0.0
 50
0.0
 51
0.0
 71
0
 72
1000
 73
1
 74
3
 75
0
 76
0
 77
0
 78
0
281
0
 65
0
146
0.0
  0
ENDTAB
  0
TABLE
  2
LTYPE
  5
2
330
0
100
AcDbSymbolTable
 70
3
  0
LTYPE
  5
24
330
2
100
AcDbSymbolTableRecord
100
AcDbLinetypeTableRecord
  2
ByBlock
 70
0
  3

 72
65
 73
0
 40
0.0
  0
LTYPE
  5
25
330
2
100
AcDbSymbolTableRecord
100
AcDbLinetypeTableRecord
  2
ByLayer
 70
0
  3

 72
65
 73
0
 40
0.0
  0
LTYPE
  5
26
330
2
100
AcDbSymbolTableRecord
100
AcDbLinetypeTableRecord
  2
Continuous
 70
0
  3

 72
65
 73
0
 40
0.0
  0
ENDTAB
  0
TABLE
  2
LAYER
  5
1
330
0
100
AcDbSymbolTable
 70
2
  0
LAYER
  5
27
330
1
100
AcDbSymbolTableRecord
100
AcDbLayerTableRecord
  2
0
 70
0
 62
7
  6
Continuous
370
-3
390
13
347
21
  0
LAYER
  5
28
330
1
100
AcDbSymbolTableRecord
100
AcDbLayerTableRecord
  2
Defpoints
 70
0
 62
7
  6
Continuous
290
0
370
-3
390
13
347
21
  0
ENDTAB
  0
TABLE
  2
STYLE
  5
5
330
0
100
AcDbSymbolTable
 70
1
  0
STYLE
  5
29
330
5
100
AcDbSymbolTableRecord
100
AcDbTextStyleTableRecord
  2
Standard
 70
0
 40
0.0
 41
1.0
 50
0.0
 71
0
 42
2.5
  3
txt
  4

  0
ENDTAB
  0
TABLE
  2
VIEW
  5
7
330
0
100
AcDbSymbolTable
 70
0
  0
ENDTAB
  0
TABLE
  2
UCS
  5
6
330
0
100
AcDbSymbolTable
 70
0
  0
ENDTAB
  0
TABLE
  2
APPID
  5
3
330
0
100
AcDbSymbolTable
 70
3
  0
APPID
  5
2A
330
3
100
AcDbSymbolTableRecord
100
AcDbRegAppTableRecord
  2
ACAD
 70
0
  0
APPID
  5
37
330
3
100
AcDbSymbolTableRecord
100
AcDbRegAppTableRecord
  2
HATCHBACKGROUNDCOLOR
 70
0
  0
APPID
  5
38
330
3
100
AcDbSymbolTableRecord
100
AcDbRegAppTableRecord
  2
EZDXF
 70
0
  0
ENDTAB
  0
TABLE
  2
DIMSTYLE
  5
4
330
0
100
AcDbSymbolTable
 70
1
100
AcDbDimStyleTable
  0
DIMSTYLE
105
2B
330
4
100
AcDbSymbolTableRecord
100
AcDbDimStyleTableRecord
  2
Standard
 70
0
 40
1.0
 41
2.5
 42
0.625
 43
3.75
 44
1.25
 45
0.0
 46
0.0
 47
0.0
 48
0.0
 49
2.5
140
2.5
141
2.5
142
0.0
143
0.03937007874
144
1.0
145
0.0
146
1.0
147
0.625
148
0.0
 69
0
 70
0
 71
0
 72
0
 73
0
 74
0
 75
0
 76
0
 77
1
 78
8
 79
3
170
0
171
3
172
1
173
0
174
0
175
0
176
0
177
0
178
0
179
2
271
2
272
2
273
2
274
3
275
0
276
0
277
2
278
44
279
0
280
0
281
0
282
0
283
0
284
8
285
0
286
0
288
0
289
3
290
0
371
-2
372
-2
  0
ENDTAB
  0
TABLE
  2
BLOCK_RECORD
  5
9
330
0
100
AcDbSymbolTable
 70
2
  0
BLOCK_RECORD
  5
17
330
9
100
AcDbSymbolTableRecord
100
AcDbBlockTableRecord
  2
*Model_Space
340
1A
 70
0
280
1
281
0
  0
BLOCK_RECORD
  5
1B
330
9
100
AcDbSymbolTableRecord
100
AcDbBlockTableRecord
  2
*Paper_Space
340
1E
 70
0
280
1
281
0
  0
ENDTAB
  0
ENDSEC
  0
SECTION
  2
BLOCKS
  0
BLOCK
  5
18
330
17
100
AcDbEntity
  8
0
100
AcDbBlockBegin
  2
*Model_Space
 70
0
 10
0.0
 20
0.0
 30
0.0
  3
*Model_Space
  1

  0
ENDBLK
  5
19
330
17
100
AcDbEntity
  8
0
100
AcDbBlockEnd
  0
BLOCK
  5
1C
330
1B
100
AcDbEntity
  8
0
100
AcDbBlockBegin
  2
*Paper_Space
 70
0
 10
0.0
 20
0.0
 30
0.0
  3
*Paper_Space
  1

  0
ENDBLK
  5
1D
330
1B
100
AcDbEntity
  8
0
100
AcDbBlockEnd
  0
ENDSEC
  0
SECTION
  2
ENTITIES
  0
LWPOLYLINE
  5
2F
330
17
100
AcDbEntity
  8
0
100
AcDbPolyline
 90
1390
 70
1
 10
28.35
 20
0.0
 10
28.370593151455736
 20
0.14859779467689127
 10
28.391186302911468
 20
0.29719558935378254
 10
28.437063041001093
 20
0.4390297467933199
 10
28.493414065718355
 20
0.5780619174698535
 10
28.57060883687188
 20
0.7063116320427262
 10
28.659268197802636
 20
0.8269821643812798
 10
28.760171952035776
 20
0.9378601213178202
 10
28.869948061435192
 20
1.0400946605772305
 10
28.975147508841196
 20
1.1468714279149022
 10
29.06017488207888
 20
1.2702092639467615
 10
29.123148143855147
 20
1.4061920851691585
 10
29.16551769396386
 20
1.5499643227085544
 10
29.18792821709373
 20
1.6981837006557376
 10
29.191156035344363
 20
1.8480588427200917
 10
29.17543024039001
 20
1.997148737940453
 10
29.140743536989245
 20
2.1429948661604983
 10
29.086952943034426
 20
2.2829032979645936
 10
29.014054840427537
 20
2.4138526662670032
 10
28.920906941221922
 20
2.531204305781219
 10
28.808203526245517
 20
2.6298919984379734
 10
28.685930612672013
 20
2.7168009294362245
 10
28.568297920355487
 20
2.8097632650936877
 10
28.460811566583356
 20
2.91411557680963
 10
28.3644220644403
 20
3.0285877237318677
 10
28.283091257109586
 20
3.1546459731590613
 10
28.218291478321085
 20
3.2888399277573637
 10
28.16802073520585
 20
3.430184311644225
 10
28.131013990745696
 20
3.574289785615758
 10
28.120707307296346
 20
3.7239532572646183
 10
28.110400623846996
 20
3.8736167289134786
 10
28.13839423832839
 20
4.020921041922915
 10
28.16699076650242
 20
4.168188217648216
 10
28.224109781579912
 20
4.306828845711837
 10
28.29131823411424
 20
4.4405467861682135
 10
28.373116283254447
 20
4.56613469090216
 10
28.466230255368114
 20
4.683691816915778
 10
28.56118951659133
 20
4.799786773317761
 10
28.63805989082481
 20
4.928347484292892
 10
28.691112011525984
 20
5.068475673690481
 10
28.72193986422371
 20
5.215141580703889
 10
28.732110800621218
 20
5.3646837185064795
 10
28.722734278882683
 20
5.514283040503175
 10
28.69448021429136
 20
5.661492969623759
 10
28.647786249745952
 20
5.803931154359999
 10
28.582907460076502
 20
5.9390493180497295
 10
28.500137998734154
 20
6.063999888318612
 10
28.39912209545104
 20
6.174684064527244
 10
28.280205745540005
 20
6.265770501902365
 10
28.14888501243306
 20
6.338203599589724
 10
28.018075620118726
 20
6.411572493802981
 10
27.894955675074783
 20
6.497031287018885
 10
27.781292563763685
 20
6.594442143524136
 10
27.678451852908598
 20
6.70366288633673
 10
27.594144022626345
 20
6.8269343573283745
 10
27.516747739046128
 20
6.9554458266907835
 10
27.4630788111119
 20
7.094247168390001
 10
27.422152665037085
 20
7.238574688417115
 10
27.392898333480414
 20
7.384563091702076
 10
27.391939958325022
 20
7.534577970920025
 10
27.395943329861552
 20
7.6840707882868315
 10
27.428103397837827
 20
7.830601032596583
 10
27.472059767700486
 20
7.973556543334805
 10
27.532106223176527
 20
8.110837701045353
 10
27.605703306020814
 20
8.241471659612658
 10
27.686528597459688
 20
8.367850381544555
 10
27.754951505087373
 20
8.501131329308425
 10
27.798078456794098
 20
8.644609785007457
 10
27.817534684602894
 20
8.793198207918726
 10
27.81559672748173
 20
8.943067457739653
 10
27.793787217753025
 20
9.091365509269137
 10
27.75320080957747
 20
9.235662890603907
 10
27.69471568692749
 20
9.373676513065938
 10
27.61899163231862
 20
9.503030990470403
 10
27.526644271825376
 20
9.62109073717457
 10
27.41778988635206
 20
9.724096623235184
 10
27.293311911916604
 20
9.807439150217268
 10
27.156080990722824
 20
9.867696553645606
 10
27.01597306698522
 20
9.921286098465917
 10
26.880412334367914
 20
9.985265370721729
 10
26.752291056425953
 20
10.062817513420109
 10
26.63184348328179
 20
10.152247735344222
 10
26.528561101521504
 20
10.260636542606656
 10
26.42764060481526
 20
10.371634001200444
 10
26.35616226403556
 20
10.50323942121482
 10
26.286421979378122
 20
10.63606138914789
 10
26.240607826608212
 20
10.777511524201287
 10
26.209525205047616
 20
10.924274098131548
 10
26.19158731644458
 20
11.072208227576933
 10
26.196225061248697
 20
11.222154463917983
 10
26.21615764293856
 20
11.370280419600842
 10
26.252329723966394
 20
11.515648529379034
 10
26.304208493301328
 20
11.65631504034298
 10
26.367069863406854
 20
11.792502765465606
 10
26.425212095372267
 20
11.930668019647223
 10
26.45879155165683
 20
12.076646217772918
 10
26.467127683769043
 20
12.226256207010872
 10
26.453320145977482
 20
12.37549991849528
 10
26.41937344569209
 20
12.521511605266118
 10
26.366781605575976
 20
12.661899403657893
 10
26.29685186549808
 20
12.794500743000773
 10
26.210647397562077
 20
12.91713814711201
 10
26.10906372205132
 20
13.02736639662706
 10
25.992728575185684
 20
13.121857549333527
 10
25.862986290151976
 20
13.196778676563804
 10
25.721833219196334
 20
13.246965455087903
 10
25.57588488095201
 20
13.281646820340217
 10
25.431686938075096
 20
13.322785256049576
 10
25.292553198089955
 20
13.37840613372714
 10
25.158612708106915
 20
13.445973341844823
 10
25.038270391244758
 20
13.535485476789038
 10
24.92318333425043
 20
13.630627164169159
 10
24.827819431061773
 20
13.746433504402924
 10
24.732455527873114
 20
13.86223984463669
 10
24.670431080864443
 20
13.998555481058364
 10
24.610069041033647
 20
14.135893773668911
 10
24.57260101559705
 20
14.279986892275199
 10
24.54874260848935
 20
14.428095497291915
 10
24.544988839843043
 20
14.577464191470934
 10
24.555916510261333
 20
14.7268181327446
 10
24.584555649506903
 20
14.873965647095954
 10
24.62632744621496
 20
15.017996488994001
 10
24.671054736295137
 20
15.16116136210363
 10
24.695281698028733
 20
15.3089743037579
 10
24.692791925954044
 20
15.458783557597945
 10
24.667445720048246
 20
15.60650569430349
 10
24.62146957500873
 20
15.749186632334824
 10
24.557352163031062
 20
15.884691804458695
 10
24.47659415324892
 20
16.01099795625734
 10
24.380452733049662
 20
16.12603166298905
 10
24.270093689566696
 20
16.2274829436394
 10
24.146851732271006
 20
16.312773963500366
 10
24.01215594271998
 20
16.37840933191577
 10
23.868090788233566
 20
16.419416644785418
 10
23.719249614476674
 20
16.437748779116493
 10
23.570390131566192
 20
16.456157993193248
 10
23.42393389598199
 20
16.488042981547665
 10
23.281044638028487
 20
16.533476414776963
 10
23.146431205483097
 20
16.599692774145797
 10
23.0193749755755
 20
16.677741912515508
 10
22.90268615730001
 20
16.77202394770347
 10
22.794202153163493
 20
16.87404587809566
 10
22.706879388926787
 20
16.996029964417506
 10
22.619556624690084
 20
17.118014050739347
 10
22.564558963805368
 20
17.25717381803124
 10
22.512340444713644
 20
17.39781025972962
 10
22.486211679174215
 20
17.545077956691703
 10
22.47147705190941
 20
17.694029227057527
 10
22.47545832122686
 20
17.843879078292126
 10
22.49426996130902
 20
17.99265609648316
 10
22.52189065675405
 20
18.14010725786947
 10
22.53630429937669
 20
18.289236791982415
 10
22.523498792538753
 20
18.43849884070719
 10
22.48681889068268
 20
18.583804243881747
 10
22.429435386061318
 20
18.722273131027755
 10
22.354242203248297
 20
18.851939610788925
 10
22.26311555609444
 20
18.970955725306954
 10
22.157682193169077
 20
19.07750787787312
 10
22.039415600906718
 20
19.169599649960176
 10
21.909865753377257
 20
19.244969904700245
 10
21.770711638076904
 20
19.3005624564768
 10
21.62429937602591
 20
19.332226377831745
 10
21.474526443272257
 20
19.3374849063679
 10
21.324550856653577
 20
19.33448936675228
 10
21.174781187860066
 20
19.341501142493115
 10
21.02649112838802
 20
19.363614728049402
 10
20.882216154385723
 20
19.404725728357736
 10
20.74467068949895
 20
19.4627098251818
 10
20.61170293149769
 20
19.532171741379326
 10
20.491871909551598
 20
19.620362372991554
 10
20.381286407662717
 20
19.721734110875932
 10
20.278227264045217
 20
19.829347602018277
 10
20.19906307051663
 20
19.956777633536294
 10
20.121126521355485
 20
20.084785994039613
 10
20.07327914227614
 20
20.226969012663325
 10
20.03355150589769
 20
20.371154551413547
 10
20.012155012277475
 20
20.519529968865914
 10
20.007595041868615
 20
20.669409558315913
 10
20.014351857588697
 20
20.819248996973787
 10
20.017224764955323
 20
20.969138537087193
 10
19.994658087437998
 20
21.11722702106649
 10
19.94719500995391
 20
21.259362577494453
 10
19.878988379788858
 20
21.39282259477266
 10
19.793355827400898
 20
21.51584169441009
 10
19.69253002753978
 20
21.62675968217412
 10
19.57848885709083
 20
21.72403828132298
 10
19.453003014352106
 20
21.806017538886685
 10
19.317835526713804
 20
21.870789434499162
 10
19.174862194828375
 20
21.91570446542564
 10
19.026631504491576
 20
21.937490235132785
 10
18.876930419388252
 20
21.932104346359747
 10
18.72862794398211
 20
21.90953665390819
 10
18.579573273391496
 20
21.89285390935812
 10
18.42964931888858
 20
21.890381435811495
 10
18.280434038927762
 20
21.905879264560344
 10
18.135109229089288
 20
21.940991383637943
 10
17.991275211743005
 20
21.983619518991752
 10
17.860247388567224
 20
22.055567048712312
 10
17.731229334542725
 20
22.13211588414073
 10
17.616885131831815
 20
22.227065147117138
 10
17.51354631764888
 20
22.335814730808202
 10
17.418499568397404
 20
22.45068937592202
 10
17.34493412952213
 20
22.581431521662413
 10
17.281972053487497
 20
22.7169114684532
 10
17.235341399711768
 20
22.85939688754724
 10
17.20680819689846
 20
23.00661003018124
 10
17.191219763576225
 20
23.155772107058457
 10
17.179319651083123
 20
23.30529505234699
 10
17.147458739887476
 20
23.451662979603533
 10
17.089883249300915
 20
23.58999743859718
 10
17.011490993048536
 20
23.717735017215706
 10
16.916139402987877
 20
23.833393024382413
 10
16.80637825506599
 20
23.935500981890236
 10
16.68451249498409
 20
24.02280607339553
 10
16.552594164955867
 20
24.09400243212723
 10
16.41258978049494
 20
24.14756390349697
 10
16.2665310288131
 20
24.181186184363703
 10
16.117116705802577
 20
24.192432300650214
 10
15.968072831960125
 20
24.177533127478558
 10
15.823098544768854
 20
24.139207789019896
 10
15.678240061670564
 20
24.100321709130405
 10
15.530825106955644
 20
24.072760151223196
 10
15.381137291354847
 20
24.06287589208836
 10
15.23178824197937
 20
24.0730683102101
 10
15.083291559937013
 20
24.091582443085834
 10
14.94144077508001
 20
24.140405975374748
 10
14.799589990223003
 20
24.18922950766366
 10
14.674372214044686
 20
24.27096306395644
 10
14.550934488112492
 20
24.356218622639737
 10
14.442022819547939
 20
24.457552638847723
 10
14.344714348916817
 20
24.571729887076724
 10
14.261166432957518
 20
24.69540018068605
 10
14.190441005553494
 20
24.827583710877562
 10
14.137971078886611
 20
24.96808798689736
 10
14.099758225623367
 20
25.113111440172126
 10
14.069787985728011
 20
25.26009833462857
 10
14.028145914039408
 20
25.404022512291668
 10
13.961354131236067
 20
25.538124363897552
 10
13.873455635416198
 20
25.659512268838625
 10
13.76903332978706
 20
25.76704739047555
 10
13.651143673380696
 20
25.85964684139638
 10
13.522411620973513
 20
25.93647716280537
 10
13.384996127994299
 20
25.99642546738034
 10
13.241002120971979
 20
26.038143598275667
 10
13.092725723668964
 20
26.06006818821587
 10
12.942870924245172
 20
26.06040969167869
 10
12.795068681798082
 20
26.035926261180236
 10
12.65398598528099
 20
25.9853791774132
 10
12.516176224671467
 20
25.926131118626863
 10
12.37490933501109
 20
25.875796505322505
 10
12.229159620945534
 20
25.840487053750067
 10
12.080174490579747
 20
25.824824526234263
 10
11.930896654019614
 20
25.822088161477854
 10
11.782166547899832
 20
25.84170290091816
 10
11.63573957169601
 20
25.869837786726055
 10
11.49738273804525
 20
25.92782717413315
 10
11.359025904394487
 20
25.98581656154024
 10
11.23834662071368
 20
26.07384921161758
 10
11.120462728166705
 20
26.16663267106854
 10
11.019436832062985
 20
26.276524398406966
 10
10.926805464293935
 20
26.394323116229014
 10
10.851593040700918
 20
26.5241247872775
 10
10.79098741096904
 20
26.661280535679882
 10
10.740804199741316
 20
26.80263000457621
 10
10.68782667418044
 20
26.942884295816416
 10
10.61240453175048
 20
27.072309721494406
 10
10.515795505562467
 20
27.186870541013576
 10
10.403057196781898
 20
27.28563421384076
 10
10.277932027057487
 20
27.36816134710014
 10
10.143201574322958
 20
27.433859895530762
 10
10.001244703823195
 20
27.482005827417776
 10
9.854312700428569
 20
27.511674983639537
 10
9.704763867135021
 20
27.521710150120335
 10
9.555291790964901
 20
27.510788416572158
 10
9.409508225787295
 20
27.476195979555317
 10
9.272304645946216
 20
27.416090932772054
 10
9.143188280220635
 20
27.339728576956873
 10
9.011354602852656
 20
27.268240384171087
 10
8.873551395067667
 20
27.209143736267958
 10
8.7294861464261
 20
27.167898403210717
 10
8.582357572083135
 20
27.14242237211515
 10
8.43265336398571
 20
27.13272533402936
 10
8.284175177219415
 20
27.14261665535675
 10
8.136848424863341
 20
27.17090464768436
 10
7.992034975868993
 20
27.20660030146707
 10
7.857911677564217
 20
27.273803897513414
 10
7.7237883792594335
 20
27.34100749355976
 10
7.608248841266251
 20
27.436311244568422
 10
7.49686847502231
 20
27.536351050093426
 10
7.401190754954592
 20
27.651898254094036
 10
7.318411245183363
 20
27.776880441571187
 10
7.247891116982332
 20
27.90925478277323
 10
7.181061345053532
 20
28.043546584938458
 10
7.097452506498074
 20
28.16782942675628
 10
6.993003569754247
 20
28.27525489174014
 10
6.872896557761453
 20
28.364893840559354
 10
6.741468286286535
 20
28.436948131689775
 10
6.601711168797475
 20
28.491132163407794
 10
6.4561980510878465
 20
28.52711132640763
 10
6.30730529881543
 20
28.544396036353646
 10
6.157433683522049
 20
28.542258660116417
 10
6.009249704626742
 20
28.519766617972003
 10
5.8662291870369385
 20
28.475013459023156
 10
5.733194718815692
 20
28.40616280127594
 10
5.612847712973859
 20
28.316723868882413
 10
5.493311914539553
 20
28.22613550527033
 10
5.366904165362055
 20
28.145497751607024
 10
5.232083195774676
 20
28.080047622315835
 10
5.090846758659857
 20
28.031182777906
 10
4.945691982829616
 20
27.993295134493042
 10
4.796783216876285
 20
27.982941015452653
 10
4.646783753108551
 20
27.980586585775065
 10
4.499398166848327
 20
27.9996036817653
 10
4.354387649683103
 20
28.038039763526964
 10
4.212224864201205
 20
28.083477441917864
 10
4.0815534204544655
 20
28.157168392914965
 10
3.9552827001941426
 20
28.237147727277456
 10
3.841292574178895
 20
28.334675331783785
 10
3.739121461575505
 20
28.4443232927965
 10
3.6487048876834507
 20
28.563929850206137
 10
3.5656825847547124
 20
28.68887117875594
 10
3.473886426070793
 20
28.807309936464357
 10
3.362272311969193
 20
28.907248083477977
 10
3.235733748642759
 20
28.987525974214694
 10
3.0989573150070573
 20
29.048825899877446
 10
2.9551774066090384
 20
29.0912413568654
 10
2.807132292922761
 20
29.11481944058393
 10
2.6573000820398347
 20
29.119508745528833
 10
2.5081019431641005
 20
29.105025985187005
 10
2.362184566497343
 20
29.07074437391752
 10
2.2228318437858956
 20
29.015590873850677
 10
2.0945212352723743
 20
28.938264368422967
 10
1.9820642968569229
 20
28.8392383746277
 10
1.876746185912716
 20
28.732413632903278
 10
1.764573402018153
 20
28.63289998121427
 10
1.64280830983598
 20
28.54551629078971
 10
1.5115585975316208
 20
28.47375912256076
 10
1.3758584607374005
 20
28.40979932781637
 10
1.2294664580192123
 20
28.37713286067703
 10
1.0829995064923885
 20
28.34468575633544
 10
0.9336832217452272
 20
28.346468466505033
 10
0.7838673697270171
 20
28.354252614099362
 10
0.6376470560730806
 20
28.381271911035693
 10
0.4951353442491524
 20
28.42813121601057
 10
0.35807216782134543
 20
28.487051800464496
 10
0.22870560603590875
 20
28.56301017828768
 10
0.11023818727203852
 20
28.65474349077178
 10
0.00130095523560185
 20
28.757694768634114
 10
-0.09833225248537061
 20
28.869822205646656
 10
-0.19959671514017482
 20
28.980396540705396
 10
-0.31743237378925526
 20
29.072867715016365
 10
-0.4495027785432971
 20
29.143641538064916
 10
-0.5906765639945881
 20
29.19399716281954
 10
-0.7374946924832377
 20
29.224287153597622
 10
-0.8869950950340305
 20
29.235429089569887
 10
-1.036713867009909
 20
29.227594892904175
 10
-1.1842092053562678
 20
29.200721749472027
 10
-1.3268332190516607
 20
29.154579118529902
 10
-1.461605734442294
 20
29.089016572743652
 10
-1.5844531284173382
 20
29.00323719803785
 10
-1.689830063461433
 20
28.896768856926894
 10
-1.7810414855129004
 20
28.777681990918754
 10
-1.8761815898880816
 20
28.66177095848819
 10
-1.9817519372018868
 20
28.555367488876396
 10
-2.099049877957445
 20
28.462379653082802
 10
-2.2236637057993014
 20
28.379630409501488
 10
-2.360875259804884
 20
28.318980826509634
 10
-2.4998276087061293
 20
28.264252862850743
 10
-2.64803215747778
 20
28.240997880737094
 10
-2.79623670624943
 20
28.217742898623445
 10
-2.9450756917492904
 20
28.22758578606409
 10
-3.094062569539417
 20
28.24514405238127
 10
-3.2381696853124526
 20
28.283270031034792
 10
-3.3791651984464552
 20
28.334511105826355
 10
-3.510733372910792
 20
28.406232296443022
 10
-3.635156943839819
 20
28.489732757455986
 10
-3.7506477017167263
 20
28.585390154163544
 10
-3.862860046716263
 20
28.684937614397548
 10
-3.9863294694304043
 20
28.76974771036095
 10
-4.123092508265566
 20
28.830931216391072
 10
-4.267770317522225
 20
28.87002711721724
 10
-4.416552273114147
 20
28.888220641712547
 10
-4.566439429728563
 20
28.886788696374005
 10
-4.714936924094728
 20
28.86633809873326
 10
-4.859653006443425
 20
28.827255437361828
 10
-4.998063969810424
 20
28.769722522947994
 10
-5.1273532563629525
 20
28.69391061147225
 10
-5.243768079045087
 20
28.599564521380064
 10
-5.34222158423287
 20
28.486665726052113
 10
-5.420682129527524
 20
28.358896153125354
 10
-5.497117613503939
 20
28.229848092523824
 10
-5.58408789818513
 20
28.107740670541737
 10
-5.683977193641438
 20
27.996167652273332
 10
-5.794384848281899
 20
27.895387598897088
 10
-5.9173919095161995
 20
27.809511843551263
 10
-6.04793040660672
 20
27.737900375701795
 10
-6.188220137030853
 20
27.684757417492463
 10
-6.329819126664678
 20
27.637350698679235
 10
-6.47927367167888
 20
27.624361416777873
 10
-6.628728216693081
 20
27.611372134876508
 10
-6.777019270507867
 20
27.62982184958192
 10
-6.9251048970411295
 20
27.65382246798991
 10
-7.066327569124746
 20
27.704369045026322
 10
-7.202667973236931
 20
27.76635510226021
 10
-7.331963898834216
 20
27.84221977526944
 10
-7.455846943124576
 20
27.926814281155696
 10
-7.584926916189066
 20
28.002927710309933
 10
-7.725492106869623
 20
28.054713768036287
 10
-7.872713433055662
 20
28.08266936570608
 10
-8.022466461704516
 20
28.088854456824215
 10
-8.171712780162224
 20
28.074980001614485
 10
-8.317950028894167
 20
28.04207017444965
 10
-8.458859511027091
 20
27.990955748524332
 10
-8.592067854029208
 20
27.922236525118457
 10
-8.714957350707706
 20
27.836427037528637
 10
-8.824040331338397
 20
27.73367453134377
 10
-8.914909259869237
 20
27.614575651663337
 10
-8.982850010300181
 20
27.48102850064852
 10
-9.040291108067233
 20
27.34244706734768
 10
-9.106653398159432
 20
27.20800204387147
 10
-9.186417161688748
 20
27.081194683219422
 10
-9.279303809171171
 20
26.964008004368
 10
-9.384103707891866
 20
26.856665730785576
 10
-9.503630174488391
 20
26.767469630530528
 10
-9.630244466861159
 20
26.687007195589377
 10
-9.76493119046824
 20
26.624163360759724
 10
-9.908548833585607
 20
26.58081183189248
 10
-10.052971459548221
 20
26.54235867786871
 10
-10.202909665868196
 20
26.537468201893564
 10
-10.35259607633886
 20
26.53620527355263
 10
-10.500420730865004
 20
26.561764107327708
 10
-10.64503430836477
 20
26.600415341936266
 10
-10.78503384090722
 20
26.65395691223929
 10
-10.919608471191564
 20
26.72018938988585
 10
-11.054689121381017
 20
26.785295678176425
 10
-11.198305205239123
 20
26.827863553192316
 10
-11.347177219127792
 20
26.844872298739062
 10
-11.49694805321804
 20
26.839243486560164
 10
-11.644562616002064
 20
26.813181956608748
 10
-11.787532568057868
 20
26.768101699542196
 10
-11.923633640286775
 20
26.70526519486576
 10
-12.050667087321894
 20
26.62568816330084
 10
-12.166246054153179
 20
26.53023845046496
 10
-12.267129614959353
 20
26.419402660880316
 10
-12.34966828768234
 20
26.294360276915175
 10
-12.408435291791136
 20
26.156582822425403
 10
-12.448572780909604
 20
26.012055014898646
 10
-12.4927926479119
 20
25.868768388113494
 10
-12.550549051025197
 20
25.730489607520948
 10
-12.622967470022795
 20
25.599560963696252
 10
-12.706565609751822
 20
25.474994782476948
 10
-12.811481719770866
 20
25.368300798606594
 10
-12.919548844980762
 20
25.264248509258486
 10
-13.046289812711686
 20
25.185615590955326
 10
-13.177891816234304
 20
25.11359965425693
 10
-13.31577291723462
 20
25.0579790480923
 10
-13.461813351692113
 20
25.023663250372046
 10
-13.60901637441673
 20
24.999024324598565
 10
-13.759029087935314
 20
24.997772025709647
 10
-13.907947974956413
 20
25.01215556328648
 10
-14.054728707007587
 20
25.04224354022717
 10
-14.197902996235348
 20
25.086786397701577
 10
-14.339209332028444
 20
25.137139479914957
 10
-14.485255344827697
 20
25.170485907684842
 10
-14.634943875600863
 20
25.17690634916126
 10
-14.783832150445363
 20
25.15974701448378
 10
-14.928824494260244
 20
25.121704922796113
 10
-15.067541431513906
 20
25.06485482345728
 10
-15.19793655056031
 20
24.990867968318057
 10
-15.317886327350273
 20
24.900924813431434
 10
-15.42515689776909
 20
24.79620168837291
 10
-15.517074915435883
 20
24.67781165446875
 10
-15.590440999066859
 20
24.54716158623025
 10
-15.640348138934938
 20
24.40593186171914
 10
-15.665897943352144
 20
24.25820606291543
 10
-15.68768010657492
 20
24.10979571637188
 10
-15.72237537933464
 20
23.963961644676203
 10
-15.772093019268528
 20
23.822749457876636
 10
-15.833034642762817
 20
23.68573351937003
 10
-15.91879224014474
 20
23.56264405206679
 10
-16.007007833254704
 20
23.44177967678644
 10
-16.120981003867207
 20
23.34423225831602
 10
-16.234954174479725
 20
23.246684839845592
 10
-16.365833711962463
 20
23.17548463561198
 10
-16.502000107771252
 20
23.11252357524798
 10
-16.643812574075966
 20
23.066990750631433
 10
-16.79103134051673
 20
23.03814604093669
 10
-16.94027513707412
 20
23.0283439393227
 10
-17.089952839947543
 20
23.033707484588046
 10
-17.23840730231876
 20
23.054650137670638
 10
-17.384982306880165
 20
23.086578165918315
 10
-17.533059695780263
 20
23.109618376459668
 10
-17.682822809034924
 20
23.106044791850127
 10
-17.82998929781853
 20
23.07770448420569
 10
-17.971376429961992
 20
23.027936464045293
 10
-18.10486412166531
 20
22.959753541918953
 10
-18.228526350002372
 20
22.875035492876524
 10
-18.340502773863356
 20
22.775376338184675
 10
-18.438779048779576
 20
22.662189518037437
 10
-18.521073380851426
 20
22.53692011247031
 10
-18.58459043049082
 20
22.401191426946536
 10
-18.62517405120453
 20
22.256974218350564
 10
-18.638992472946466
 20
22.107780961794763
 10
-18.64026671365432
 20
21.957773158254497
 10
-18.650585012042935
 20
21.808208488099208
 10
-18.6762567763018
 20
21.66063816421348
 10
-18.715478391101193
 20
21.51610192147339
 10
-18.776359161105677
 20
21.378992788614276
 10
-18.84790639666213
 20
21.248244025370507
 10
-18.939588765360394
 20
21.129501759350408
 10
-19.034015733071545
 20
21.013556754727446
 10
-19.15447885047031
 20
20.924147472120506
 10
-19.27494196786907
 20
20.83473818951357
 10
-19.40974539405027
 20
20.77088751466067
 10
-19.54883161208306
 20
20.714670022515882
 10
-19.694796545504058
 20
20.6817589772646
 10
-19.84318448534237
 20
20.661944409798544
 10
-19.99304906459336
 20
20.65884612871368
 10
-20.14267891187288
 20
20.66903165037581
 10
-20.2922912706894
 20
20.679206009206897
 10
-20.441504779394062
 20
20.666039339333985
 10
-20.58618178057222
 20
20.62697676765608
 10
-20.72316766794267
 20
20.56615393560941
 10
-20.850597124785978
 20
20.487239230036383
 10
-20.966695025587203
 20
20.3924277245793
 10
-21.069853295129583
 20
20.28367711572586
 10
-21.15837742718608
 20
20.162718596389873
 10
-21.23033263158439
 20
20.03123516915467
 10
-21.28331093471722
 20
19.891041977643567
 10
-21.313778779447816
 20
19.744338754294564
 10
-21.31776770700437
 20
19.594603229402754
 10
-21.300942365021488
 20
19.445555850217396
 10
-21.287411719537054
 20
19.2961960169303
 10
-21.288603998515885
 20
19.146343572043428
 10
-21.304410562755432
 20
18.99744235515742
 10
-21.339012433014105
 20
18.85146943628438
 10
-21.391310704477103
 20
18.711835490769452
 10
-21.457263187374238
 20
18.577092578267838
 10
-21.537378976505504
 20
18.451835836398242
 10
-21.63687352404907
 20
18.33955842335886
 10
-21.738023736262505
 20
18.229196362451372
 10
-21.86351441510608
 20
18.14699251830104
 10
-21.989005093949658
 20
18.064788674150705
 10
-22.128845528409265
 20
18.010604903978344
 10
-22.27169482419495
 20
17.966115729346285
 10
-22.419016109185268
 20
17.938614887117982
 10
-22.56839952390473
 20
17.925618428753243
 10
-22.718281001412638
 20
17.919381276366952
 10
-22.866326966266477
 20
17.89654747553563
 10
-23.007907574587428
 20
17.84751612313307
 10
-23.139781732398067
 20
17.7763050212484
 10
-23.2604153070378
 20
17.68734448641013
 10
-23.368210573010284
 20
17.583173639510996
 10
-23.461821587567204
 20
17.466088446787854
 10
-23.539890610263893
 20
17.338121508616965
 10
-23.60085681580782
 20
17.201184078348593
 10
-23.64263154855781
 20
17.057241549724466
 10
-23.6625805607544
 20
16.9087179481093
 10
-23.656896763444767
 20
16.759024095843582
 10
-23.625836406024373
 20
16.612367172180186
 10
-23.590170749726397
 20
16.466666662696383
 10
-23.56657291491532
 20
16.318643327955236
 10
-23.55810235991354
 20
16.16910264005726
 10
-23.56607841965033
 20
16.019296882688632
 10
-23.59631001609859
 20
15.872970872702787
 10
-23.634442267336677
 20
15.727880163540448
 10
-23.698912621323473
 20
15.593532219887551
 10
-23.77313516893099
 20
15.463161993622643
 10
-23.85974587060503
 20
15.342288359690507
 10
-23.966365274902266
 20
15.236753128146663
 10
-24.07687193418841
 20
15.136178755013269
 10
-24.20484308420284
 20
15.057892311527187
 10
-24.338167115769533
 20
14.990243722248096
 10
-24.478802771121426
 20
14.938532070976885
 10
-24.624242187153293
 20
14.902066939793704
 10
-24.772029539261222
 20
14.876373738132498
 10
-24.91815880299335
 20
14.843059316343515
 10
-25.056052341712903
 20
14.784503993124877
 10
-25.18223538765403
 20
14.703667311338446
 10
-25.295413501163555
 20
14.605391423684834
 10
-25.39415746571452
 20
14.492590116318405
 10
-25.4776777131781
 20
14.368087188931511
 10
-25.544741569721534
 20
14.233996970913143
 10
-25.594154453924414
 20
14.092453135807448
 10
-25.624120452158454
 20
13.94558097949377
 10
-25.633021775523247
 20
13.795974213907204
 10
-25.617417023154715
 20
13.646968886511196
 10
-25.57527405049805
 20
13.503203858004527
 10
-25.52018617527072
 20
13.363672292753858
 10
-25.47260609954729
 20
13.221479008925646
 10
-25.439941755092924
 20
13.075236735136219
 10
-25.42184749746096
 20
12.926314002450898
 10
-25.427691118048923
 20
12.77670664775823
 10
-25.437506539930006
 20
12.627042908154566
 10
-25.483426918355423
 20
12.484225887757916
 10
-25.52934729678085
 20
12.341408867361253
 10
-25.601773087033987
 20
12.211356180561861
 10
-25.684801042166637
 20
12.086409227272854
 10
-25.779655128892642
 20
11.97163106926942
 10
-25.89074944590806
 20
11.870817205160398
 10
-26.01119649743187
 20
11.782444983960023
 10
-26.14096640970208
 20
11.707582461656083
 10
-26.278752214589648
 20
11.64848540046166
 10
-26.421128957006886
 20
11.601354003223044
 10
-26.563809615884644
 20
11.555165718700913
 10
-26.69761795505814
 20
11.487848350976668
 10
-26.817615743976578
 20
11.39811936454004
 10
-26.922569553313934
 20
11.291129429912333
 10
-27.011678363503286
 20
11.170599586069414
 10
-27.084413865736362
 20
11.039532012722212
 10
-27.139982856858797
 20
10.900309707238016
 10
-27.177415650788177
 20
10.755155905388904
 10
-27.195499428976625
 20
10.606360287722492
 10
-27.19291183935828
 20
10.45650710793329
 10
-27.167176918565374
 20
10.308889569836946
 10
-27.115608311698395
 20
10.168252727770598
 10
-27.044487261487895
 20
10.036202310810884
 10
-26.975284937377328
 20
9.903131126841693
 10
-26.918941614292915
 20
9.764230668830692
 10
-26.876069852650826
 20
9.620469079651192
 10
-26.856243415692113
 20
9.471867770097676
 10
-26.846194962454696
 20
9.322932159989904
 10
-26.86222961772565
 20
9.173773612463934
 10
-26.880093888968922
 20
9.025069723018413
 10
-26.93574443473806
 20
8.885755692047686
 10
-26.991394980507195
 20
8.74644166107696
 10
-27.07081191061773
 20
8.620431475316417
 10
-27.160473325085604
 20
8.500155903293935
 10
-27.265664421757002
 20
8.394131660949713
 10
-27.38060902616004
 20
8.29811611475203
 10
-27.506875630210605
 20
8.217283105893419
 10
-27.640327846198254
 20
8.148873553917547
 10
-27.776996290263416
 20
8.087021295803895
 10
-27.906239348175525
 20
8.011269445196946
 10
-28.019621982729124
 20
7.913336709785501
 10
-28.11596140884921
 20
7.798548038202653
 10
-28.194999611137632
 20
7.671198975641788
 10
-28.256532136681837
 20
7.534520616575089
 10
-28.300138029884486
 20
7.391109335104824
 10
-28.325273948152027
 20
7.243338644254263
 10
-28.331158967681525
 20
7.0935665529576895
 10
-28.316848213574023
 20
6.944369036506773
 10
-28.280457433112282
 20
6.798997373095909
 10
-28.220092515570883
 20
6.66189871054394
 10
-28.136894909465333
 20
6.537209979112845
 10
-28.04909445789858
 20
6.415591703213894
 10
-27.970236237609065
 20
6.288067249641185
 10
-27.904459426210206
 20
6.153238493242878
 10
-27.858967228686968
 20
6.010303022163712
 10
-27.827552679409816
 20
5.864471016682309
 10
-27.813580074259146
 20
5.7151051947047975
 10
-27.814100890119693
 20
5.566313708918287
 10
-27.83984907066999
 20
5.418521917305681
 10
-27.86584028857866
 20
5.2708072942695745
 10
-27.930065839118235
 20
5.135232734976159
 10
-27.99429138965781
 20
4.999658175682745
 10
-28.08299420511943
 20
4.879213300098729
 10
-28.179692562223583
 20
4.764956738751275
 10
-28.290604674929778
 20
4.664054633915178
 10
-28.41184725703638
 20
4.575806528964034
 10
-28.538988547198997
 20
4.496214275924982
 10
-28.66239483288559
 20
4.411151872999743
 10
-28.769003560602226
 20
4.3059251129162375
 10
-28.85644889454699
 20
4.184242200365825
 10
-28.92509680297343
 20
4.051007990337173
 10
-28.975134804239392
 20
3.909707943315575
 10
-29.006505345629975
 20
3.7631216757206145
 10
-29.019094259153988
 20
3.6137492421913557
 10
-29.012566083570217
 20
3.4639953366726552
 10
-28.986383382100875
 20
3.316404873232257
 10
-28.93911446029052
 20
3.174183051597536
 10
-28.86983949417392
 20
3.0413461832113278
 10
-28.77763775884718
 20
2.9232633095740224
 10
-28.674136045788458
 20
2.814674713633783
 10
-28.576076316212266
 20
2.7011925619845805
 10
-28.489166062693386
 20
2.5789459298380226
 10
-28.41927627978451
 20
2.446217278637513
 10
-28.365549935472092
 20
2.3068809139609234
 10
-28.322783702173744
 20
2.163087896887125
 10
-28.304753479713725
 20
2.0152549684272647
 10
-28.299548946482467
 20
1.865327334871743
 10
-28.307965319302976
 20
1.716803471077181
 10
-28.343638739283467
 20
1.5710887169285008
 10
-28.382073679685636
 20
1.4264131120392278
 10
-28.451311377061685
 20
1.2933284632934834
 10
-28.52721882711276
 20
1.1644931268349485
 10
-28.619175341056696
 20
1.046017385286867
 10
-28.72489000764371
 20
0.9396544684883087
 10
-28.839026109510517
 20
0.842355325619601
 10
-28.95422471137592
 20
0.7463199846421624
 10
-29.05388864354594
 20
0.6345041211345436
 10
-29.13224469040816
 20
0.5067925611416177
 10
-29.1902923076754
 20
0.36861133544768676
 10
-29.228558537182032
 20
0.22367095817036872
 10
-29.247590981297332
 20
0.07496291838067135
 10
-29.247590981340508
 20
-0.07496291738164859
 10
-29.228558537353603
 20
-0.2236709571852557
 10
-29.190292308011436
 20
-0.3686113345059165
 10
-29.13224469085867
 20
-0.5067925602489296
 10
-29.05388864413175
 20
-0.6345041203241865
 10
-28.954224712112275
 20
-0.746319983965645
 10
-28.839026110290032
 20
-0.842355324993333
 10
-28.724890008387163
 20
-0.9396544678196307
 10
-28.6191753417521
 20
-1.0460173845683585
 10
-28.5272188277217
 20
-1.1644931260418294
 10
-28.451311377523176
 20
-1.2933284624064152
 10
-28.382073680147144
 20
-1.4264131111521472
 10
-28.343638739521253
 20
-1.5710887159572358
 10
-28.307965319540767
 20
-1.7168034701059192
 10
-28.299548946447764
 20
-1.8653273338724154
 10
-28.30475347967903
 20
-2.015254967427942
 10
-28.322783701888692
 20
-2.163087895928694
 10
-28.36554993518705
 20
-2.3068809130024897
 10
-28.419276279319824
 20
-2.4462172777521305
 10
-28.489166062117707
 20
-2.578945929020457
 10
-28.57607631557272
 20
-2.7011925612159335
 10
-28.67413604511425
 20
-2.814674712895349
 10
-28.77763775816518
 20
-2.9232633088428073
 10
-28.86983949362448
 20
-3.041346182375934
 10
-28.939114459909167
 20
-3.1741830506732134
 10
-28.986383381876312
 20
-3.316404872257902
 10
-29.012566083471086
 20
-3.4639953356776965
 10
-29.01909425918354
 20
-3.6137492411918943
 10
-29.00650534578837
 20
-3.763121674733343
 10
-28.97513480452378
 20
-3.9097079423569716
 10
-28.92509680337805
 20
-4.051007989422799
 10
-28.856448895063327
 20
-4.184242199509556
 10
-28.769003561249793
 20
-4.305925112154361
 10
-28.66239483366069
 20
-4.411151872368047
 10
-28.538988548052938
 20
-4.496214275404789
 10
-28.41184725786688
 20
-4.575806528407169
 10
-28.290604675725923
 20
-4.664054633310168
 10
-28.179692562955523
 20
-4.76495673806999
 10
-28.082994205736334
 20
-4.879213299311756
 10
-27.994291390085902
 20
-4.999658174779079
 10
-27.93006583954633
 20
-5.135232734072497
 10
-27.865840289006762
 20
-5.270807293365916
 10
-27.839849070841606
 20
-5.418521916320583
 10
-27.814100890291314
 20
-5.56631370793319
 10
-27.813580074166012
 20
-5.71510519370921
 10
-27.82755267931668
 20
-5.86447101568672
 10
-27.858967228385236
 20
-6.010303021210384
 10
-27.904459425771773
 20
-6.153238492344184
 10
-27.97023623717063
 20
-6.2880672487424905
 10
-28.049094457332814
 20
-6.415591702389385
 10
-28.13689490886973
 20
-6.537209978309622
 10
-28.2200925150936
 20
-6.661898709665261
 10
-28.280457432803257
 20
-6.798997372144917
 10
-28.316848213422613
 20
-6.944369035518358
 10
-28.331158967655668
 20
-7.093566551958084
 10
-28.32527394825427
 20
-7.243338643259554
 10
-28.300138030114184
 20
-7.391109334131594
 10
-28.2565321370353
 20
-7.534520615639674
 10
-28.194999611608324
 20
-7.671198974759524
 10
-28.115961409427953
 20
-7.798548037387167
 10
-28.01962198343362
 20
-7.9133367090757885
 10
-27.906239348980556
 20
-8.011269444603663
 10
-27.776996291163083
 20
-8.087021295367224
 10
-27.640327847109063
 20
-8.148873553504586
 10
-27.506875631087652
 20
-8.21728310541292
 10
-27.380609026992254
 20
-8.298116114197502
 10
-27.265664422504614
 20
-8.394131660285513
 10
-27.160473325683302
 20
-8.500155902492168
 10
-27.07081191121543
 20
-8.620431474514652
 10
-26.991394980878155
 20
-8.74644166014827
 10
-26.935744435109026
 20
-8.885755691119
 10
-26.8800938893399
 20
-9.02506972208973
 10
-26.86222961783254
 20
-9.17377361146962
 10
-26.846194962561587
 20
-9.32293215899557
 10
-26.856243415568237
 20
-9.471867769105316
 10
-26.87606985236503
 20
-9.620469078692844
 10
-26.918941614007124
 20
-9.764230667872358
 10
-26.97528493693272
 20
-9.90313112594592
 10
-27.04448726099929
 20
-10.036202309938332
 10
-27.115608311273192
 20
-10.168252726865438
 10
-27.16717691829525
 20
-10.30888956887407
 10
-27.192911839281514
 20
-10.456507106936199
 10
-27.19549942902458
 20
-10.606360286723588
 10
-27.17741565096278
 20
-10.755155904404209
 10
-27.13998285715863
 20
-10.900309706283968
 10
-27.084413866156922
 20
-11.039532011814902
 10
-27.01167836403726
 20
-11.170599585223849
 10
-26.922569553951448
 20
-11.291129429141838
 10
-26.81761574473308
 20
-11.39811936388599
 10
-26.697617955908203
 20
-11.487848350449916
 10
-26.56380961681236
 20
-11.555165718327519
 10
-26.42112895796414
 20
-11.601354002933645
 10
-26.27875221552715
 20
-11.648485400113566
 10
-26.14096641061099
 20
-11.707582461238987
 10
-26.011196498283233
 20
-11.782444983435367
 10
-25.890749446648634
 20
-11.870817204488358
 10
-25.779655129633216
 20
-11.971631068597379
 10
-25.684801042720117
 20
-12.086409226439937
 10
-25.601773087587482
 20
-12.211356179728934
 10
-25.52934729708695
 20
-12.341408866409191
 10
-25.483426918661536
 20
-12.484225886805856
 10
-25.43750654023612
 20
-12.62704290720252
 10
-25.4276911181126
 20
-12.77670664676021
 10
-25.421847497340337
 20
-12.926314001458147
 10
-25.4399417549723
 20
-13.075236734143468
 10
-25.47260609930669
 20
-13.221479007954963
 10
-25.520186174918663
 20
-13.363672291817805
 10
-25.575274050142518
 20
-13.503203857069787
 10
-25.617417022963842
 20
-13.646968885529478
 10
-25.63302177552239
 20
-13.795974212907087
 10
-25.62412045228045
 20
-13.945580978501138
 10
-25.594154454211825
 20
-14.092453134849508
 10
-25.544741570129716
 20
-14.233996970000094
 10
-25.477677713663493
 20
-14.368087188057071
 10
-25.39415746630873
 20
-14.49259011551397
 10
-25.295413501856036
 20
-14.605391422963267
 10
-25.18223538845766
 20
-14.70366731074314
 10
-25.056052342601816
 20
-14.784503992666563
 10
-24.91815880395041
 20
-14.84305931605328
 10
-24.772029540246812
 20
-14.87637373796271
 10
-24.624242188130896
 20
-14.902066939582797
 10
-24.47880277208351
 20
-14.938532070703827
 10
-24.338167116697015
 20
-14.99024372187401
 10
-24.20484308505596
 20
-15.057892311005295
 10
-24.07687193504153
 20
-15.136178754491379
 10
-23.966365275613043
 20
-15.23675312744312
 10
-23.8597458713158
 20
-15.342288358986977
 10
-23.773135169425778
 20
-15.463161992753545
 10
-23.698912621818263
 20
-15.593532219018462
 10
-23.63444226759088
 20
-15.727880162573232
 10
-23.596310016352803
 20
-15.872970871735575
 10
-23.5660784197035
 20
-16.01929688168999
 10
-23.55810235996671
 20
-16.169102639058625
 10
-23.566572914829994
 20
-16.318643326958835
 10
-23.590170749506072
 20
-16.466666661720904
 10
-23.625836405774773
 20
-16.61236717121179
 10
-23.65689676330467
 20
-16.759024094853398
 10
-23.662580560791497
 20
-16.908717947109942
 10
-23.64263154875376
 20
-17.05724154874383
 10
-23.600856816164676
 20
-17.201184077414432
 10
-23.53989061073739
 20
-17.33812150773617
 10
-23.461821588150375
 20
-17.466088445975508
 10
-23.368210573693485
 20
-17.583173638780753
 10
-23.260415307809104
 20
-17.68734448577365
 10
-23.139781733243783
 20
-17.776305020714737
 10
-23.007907575509016
 20
-17.847516122744864
 10
-22.866326967236567
 20
-17.896547475292852
 10
-22.718281002410595
 20
-17.9193812763028
 10
-22.568399524903818
 20
-17.925618428709818
 10
-22.419016110177328
 20
-17.938614886991985
 10
-22.27169482517102
 20
-17.966115729128717
 10
-22.128845529342804
 20
-18.01060490361982
 10
-21.989005094786183
 20
-18.064788673602735
 10
-21.863514415942607
 20
-18.146992517753073
 10
-21.738023737099034
 20
-18.229196361903412
 10
-21.6368735247123
 20
-18.339558422610416
 10
-21.53737897716874
 20
-18.4518358356498
 10
-21.457263187813883
 20
-18.57709257736964
 10
-21.391310704916748
 20
-18.711835489871262
 10
-21.33901243324476
 20
-18.851469435311326
 10
-21.30441056298609
 20
-18.99744235418435
 10
-21.288603998592183
 20
-19.146343571046316
 10
-21.287411719513678
 20
-19.296196015930544
 10
-21.300942364895157
 20
-19.445555849225368
 10
-21.317767706927707
 20
-19.594603228405678
 10
-21.313778779564057
 20
-19.744338753301342
 10
-21.283310934986766
 20
-19.891041976680565
 10
-21.230332632009137
 20
-20.031235168249342
 10
-21.158377427722588
 20
-20.16271859554597
 10
-21.06985329577027
 20
-20.283677114957996
 10
-20.966695026321702
 20
-20.39242772390065
 10
-20.850597125601784
 20
-20.487239229458005
 10
-20.723167668825557
 20
-20.566153935139813
 10
-20.58618178150692
 20
-20.626976767300636
 10
-20.441504780380527
 20
-20.666039339170077
 10
-20.29229127168941
 20
-20.67920600921312
 10
-20.142678912868252
 20
-20.669031650471375
 10
-19.993049065593116
 20
-20.658846128734456
 10
-19.84318448634055
 20
-20.66194440973888
 10
-19.694796546486067
 20
-20.68175897707587
 10
-19.54883161301019
 20
-20.714670022141146
 10
-19.409745394977392
 20
-20.770887514285942
 10
-19.274941968672064
 20
-20.834738188917573
 10
-19.154478851273293
 20
-20.92414747152452
 10
-19.034015733874543
 20
-21.01355675413145
 10
-18.939588765971532
 20
-21.1295017585589
 10
-18.847906397273274
 20
-21.248244024579
 10
-18.77635916151149
 20
-21.378992787700348
 10
-18.715478391507016
 20
-21.51610192055944
 10
-18.676256776542225
 20
-21.660638163242837
 10
-18.650585012171117
 20
-21.80820848710745
 10
-18.64026671367526
 20
-21.95777315725472
 10
-18.638992472970248
 20
-22.107780960795036
 10
-18.625174051401004
 20
-22.256974217369994
 10
-18.584590430833288
 20
-22.401191426006985
 10
-18.52107338134217
 20
-22.53692011159898
 10
-18.43877904937645
 20
-22.66218951723509
 10
-18.34050277455817
 20
-22.775376337465474
 10
-18.228526350784193
 20
-22.87503549225304
 10
-18.104864122521086
 20
-22.9597535414016
 10
-17.97137643087701
 20
-23.027936463641936
 10
-17.829989298788178
 20
-23.07770448396123
 10
-17.682822810027066
 20
-23.10604479172532
 10
-17.533059696778366
 20
-23.109618376521247
 10
-17.384982307856955
 20
-23.086578166132497
 10
-17.238407303298153
 20
-23.054650137872695
 10
-17.089952840943003
 20
-23.03370748468377
 10
-16.940275138073986
 20
-23.028343939304293
 10
-16.79103134149811
 20
-23.03814604074441
 10
-16.64381257505732
 20
-23.06699075043916
 10
-16.50200010867894
 20
-23.112523574828273
 10
-16.365833712870135
 20
-23.17548463519228
 10
-16.23495417523948
 20
-23.24668483919535
 10
-16.120981004626948
 20
-23.34423225766578
 10
-16.00700783401444
 20
-23.441779676136193
 10
-15.918792240716389
 20
-23.56264405124629
 10
-15.833034643334479
 20
-23.68573351854951
 10
-15.772093019671065
 20
-23.822749456961198
 10
-15.722375379614938
 20
-23.963961643716267
 10
-15.687680106777139
 20
-24.109795715392497
 10
-15.665897943480482
 20
-24.25820606192366
 10
-15.640348139181036
 20
-24.4059318607498
 10
-15.590440999481341
 20
-24.54716158532006
 10
-15.517074915990477
 20
-24.67781165363648
 10
-15.425156898423431
 20
-24.796201687616588
 10
-15.317886328123713
 20
-24.90092481279734
 10
-15.197936551385471
 20
-24.99086796775293
 10
-15.067541432405147
 20
-25.064854823003497
 10
-14.928824495202472
 20
-25.121704922460804
 10
-14.783832151430705
 20
-25.159747014312355
 10
-14.634943876599861
 20
-25.176906349112755
 10
-14.485255345817405
 20
-25.170485907828986
 10
-14.339209332983591
 20
-25.137139480211612
 10
-14.197902997178744
 20
-25.08678639803364
 10
-14.054728707977175
 20
-25.04224354047244
 10
-13.907947975945584
 20
-25.012155563433986
 10
-13.759029088935403
 20
-24.99777202570129
 10
-13.60901637541681
 20
-24.999024324590213
 10
-13.461813352665729
 20
-25.02366325014327
 10
-13.315772918208213
 20
-25.057979047863537
 10
-13.177891817111647
 20
-25.11359965377681
 10
-13.046289813589018
 20
-25.18561559047522
 10
-12.919548845701206
 20
-25.264248508564798
 10
-12.811481720491315
 20
-25.3683007979129
 10
-12.706565610309138
 20
-25.474994781646515
 10
-12.62296747058012
 20
-25.599560962865805
 10
-12.550549051454539
 20
-25.73048960661768
 10
-12.492792648255522
 20
-25.86876838717425
 10
-12.448572781174274
 20
-26.0120550139342
 10
-12.408435292097625
 20
-26.156582821473418
 10
-12.349668288167532
 20
-26.294360276040656
 10
-12.267129615575175
 20
-26.419402660092363
 10
-12.166246054890726
 20
-26.5302384497896
 10
-12.050667088139464
 20
-26.62568816272491
 10
-11.923633641171664
 20
-26.705265194399892
 10
-11.787532568995516
 20
-26.768101699194546
 10
-11.644562616976689
 20
-26.81318195638475
 10
-11.49694805421326
 20
-26.839243486462212
 10
-11.347177220127483
 20
-26.84487229876624
 10
-11.198305206221681
 20
-26.827863553378517
 10
-11.054689122304046
 20
-26.785295678561308
 10
-10.919608472078478
 20
-26.72018939034789
 10
-10.785033841829735
 20
-26.653956912625407
 10
-10.6450343093172
 20
-26.600415342241163
 10
-10.500420731850422
 20
-26.561764107498075
 10
-10.352596077324266
 20
-26.536205273723002
 10
-10.202909666867708
 20
-26.537468201860964
 10
-10.05297146054775
 20
-26.542358677836116
 10
-9.908548834542984
 20
-26.580811831603476
 10
-9.764931191425626
 20
-26.62416336047072
 10
-9.63024446770519
 20
-26.687007195053006
 10
-9.503630175332434
 20
-26.767469629994153
 10
-9.384103708590468
 20
-26.856665730070016
 10
-9.279303809869782
 20
-26.964008003652438
 10
-9.186417162259819
 20
-27.08119468239848
 10
-9.10665339863971
 20
-27.208002042994302
 10
-9.04029110845854
 20
-27.342447066427397
 10
-8.98285001068501
 20
-27.48102849972547
 10
-8.91490926039395
 20
-27.614575650812036
 10
-8.82404033201262
 20
-27.733674530605224
 10
-8.714957351493307
 20
-27.8364270369098
 10
-8.592067854886741
 20
-27.92223652460392
 10
-8.458859511943558
 20
-27.990955748124033
 10
-8.317950029854654
 20
-28.042070174171016
 10
-8.171712781150658
 20
-28.07498000146214
 10
-8.022466462704294
 20
-28.088854456799798
 10
-7.872713434050528
 20
-28.082669365808027
 10
-7.725492107834737
 20
-28.05471376829842
 10
-7.584926917089079
 20
-28.00292771074598
 10
-7.455846943948734
 20
-27.926814281722134
 10
-7.3319638996684615
 20
-27.842219775820958
 10
-7.202667974129736
 20
-27.766355102710765
 10
-7.066327570065776
 20
-27.704369045364828
 10
-6.925104898028318
 20
-27.653822468149905
 10
-6.7770192714950355
 20
-27.629821849741912
 10
-6.628728217689385
 20
-27.611372134789907
 10
-6.479273672675172
 20
-27.624361416691272
 10
-6.329819127660986
 20
-27.637350698592638
 10
-6.188220137966052
 20
-27.684757417138208
 10
-6.047930407541939
 20
-27.737900375347536
 10
-5.917391910336191
 20
-27.809511842978786
 10
-5.794384849101907
 20
-27.8953875983246
 10
-5.683977194342409
 20
-27.996167651560047
 10
-5.584087898794049
 20
-28.107740669748406
 10
-5.497117614051938
 20
-28.22984809168727
 10
-5.420682130018768
 20
-28.35889615225424
 10
-5.3422215848284225
 20
-28.48666572524863
 10
-5.243768079774651
 20
-28.599564520695946
 10
-5.127353257192687
 20
-28.69391061091378
 10
-4.998063970703555
 20
-28.769722522497858
 10
-4.859653007386712
 20
-28.82725543702936
 10
-4.714936925072985
 20
-28.866338098525112
 10
-4.566439430725543
 20
-28.886788696293976
 10
-4.416552274113137
 20
-28.88822064176145
 10
-4.267770318506885
 20
-28.87002711739279
 10
-4.123092509207847
 20
-28.83093121672647
 10
-3.9863294703091796
 20
-28.769747710838626
 10
-3.862860047488135
 20
-28.684937615033657
 10
-3.7506477024686893
 20
-28.585390154823013
 10
-3.6351569446532364
 20
-28.48973275803798
 10
-3.510733373781625
 20
-28.40623229693496
 10
-3.379165199386489
 20
-28.33451110616798
 10
-3.2381696862524794
 20
-28.28327003137642
 10
-3.0940625705327354
 20
-28.245144052498333
 10
-2.945075692742593
 20
-28.227585786181155
 10
-2.796236707237529
 20
-28.21774289846838
 10
-2.6480321584658637
 20
-28.240997880582043
 10
-2.4998276096942265
 20
-28.264252862695702
 10
-2.3608752607196752
 20
-28.318980826105275
 10
-2.2236637067141025
 20
-28.37963040909712
 10
-2.099049878771487
 20
-28.46237965250165
 10
-1.9817519379278032
 20
-28.55536748818835
 10
-1.876181590551799
 20
-28.661770957739947
 10
-1.7810414861182657
 20
-28.777681990122566
 10
-1.6898300641056054
 20
-28.89676885616173
 10
-1.5844531291750026
 20
-29.00323719738492
 10
-1.4616057353118255
 20
-29.08901657224935
 10
-1.3268332199756874
 20
-29.154579118147048
 10
-1.18420920632139
 20
-29.200721749209393
 10
-1.03671386800077
 20
-29.227594892767687
 10
-0.886995096034231
 20
-29.23542908956251
 10
-0.73749469347603
 20
-29.22428715371932
 10
-0.5906765649636381
 20
-29.19399716306724
 10
-0.4495027794574828
 20
-29.143641538470696
 10
-0.3174323746272289
 20
-29.07286771556236
 10
-0.19959671586919547
 20
-28.98039654139015
 10
-0.09833225313442392
 20
-28.869822206407605
 10
0.0013009545575326728
 20
-28.757694769369312
 10
0.11023818649330089
 20
-28.65474349139931
 10
0.22870560517345317
 20
-28.563010178794073
 10
0.3580721669589054
 20
-28.48705180097088
 10
0.49513534329906456
 20
-28.428131216322967
 10
0.6376470551230036
 20
-28.381271911348094
 10
0.783867368728228
 20
-28.354252614151253
 10
0.9336832207464327
 20
-28.346468466556924
 10
1.0829995055159356
 20
-28.344685756119127
 10
1.2294664570427434
 20
-28.37713286046072
 10
1.375858459832729
 20
-28.409799327389962
 10
1.5115585966269318
 20
-28.473759122134354
 10
1.6428083090087549
 20
-28.545516290227617
 10
1.7645734012510068
 20
-28.632899980572592
 10
1.8767461851848626
 20
-28.732413632217366
 10
1.9820642961524455
 20
-28.839238373917834
 10
2.0945212344635684
 20
-28.938264367834723
 10
2.2228318428812543
 20
-29.01559087342422
 10
2.362184565547442
 20
-29.070744373604605
 10
2.508101942175115
 20
-29.10502598503788
 10
2.65730008103987
 20
-29.119508745507865
 10
2.8071322919284705
 20
-29.114819440692248
 10
2.9551774056370257
 20
-29.09124135710112
 10
3.0989573140732602
 20
-29.04882590023571
 10
3.2357337477615884
 20
-28.987525974687824
 10
3.3622723111763744
 20
-28.90724808408766
 10
3.473886425378417
 20
-28.807309937186115
 10
3.565682584193465
 20
-28.688871179583735
 10
3.648704887113428
 20
-28.563929851027954
 10
3.7391214609063868
 20
-28.44432329353985
 10
3.841292573418935
 20
-28.334675332433996
 10
3.9552826994341865
 20
-28.237147727927656
 10
4.081553419583289
 20
-28.157168393406263
 10
4.212224863330012
 20
-28.083477442409173
 10
4.354387648716319
 20
-28.03803976378321
 10
4.49939816588153
 20
-27.99960368202155
 10
4.646783752108504
 20
-27.980586585759365
 10
4.79678321587622
 20
-27.98294101543696
 10
4.94569198186187
 20
-27.99329513424044
 10
5.0908467576921
 20
-28.031182777653395
 10
5.2320831948657185
 20
-28.080047621898537
 10
5.366904164506586
 20
-28.14549775108879
 10
5.493311913722
 20
-28.226135504694167
 10
5.612847712191321
 20
-28.316723868259487
 10
5.733194717976255
 20
-28.406162800732172
 10
5.866229186116316
 20
-28.475013458632258
 10
6.00924970365593
 20
-28.519766617731364
 10
6.1574336825247915
 20
-28.54225866004038
 10
6.307305297816604
 20
-28.54439603640559
 10
6.456198050104072
 20
-28.527111326587878
 10
6.601711167845208
 20
-28.491132163713623
 10
6.741468285381508
 20
-28.43694813211552
 10
6.872896556917857
 20
-28.36489384109667
 10
6.993003569010572
 20
-28.27525489240891
 10
7.0974525058669204
 20
-28.167829427532137
 10
7.181061344579786
 20
-28.04354658581925
 10
7.247891116545119
 20
-27.909254783672765
 10
7.318411244696785
 20
-27.776880442444998
 10
7.4011907543167395
 20
-27.65189825486435
 10
7.496868474384456
 20
-27.536351050863754
 10
7.60824884050398
 20
-27.436311245215865
 10
7.723788378365266
 20
-27.341007494007798
 10
7.8579116766700645
 20
-27.27380389796144
 10
7.992034974974836
 20
-27.206600301915095
 10
8.136848423881172
 20
-27.17090464787295
 10
8.284175176237229
 20
-27.142616655545343
 10
8.432653362987685
 20
-27.132725333964707
 10
8.582357571085097
 20
-27.142422372050497
 10
8.72948614545932
 20
-27.16789840295465
 10
8.873551394142291
 20
-27.209143735888553
 10
9.01135460196076
 20
-27.26824038371851
 10
9.14318827936183
 20
-27.339728576444273
 10
9.272304645071733
 20
-27.41609093228663
 10
9.409508224838318
 20
-27.47619597923939
 10
9.555291789978613
 20
-27.51078841640601
 10
9.704763866134876
 20
-27.521710150118214
 10
9.854312699436246
 20
-27.51167498376433
 10
10.001244702855159
 20
-27.482005827669045
 10
10.143201573395471
 20
-27.43385989590496
 10
10.277932026186
 20
-27.36816134759082
 10
10.403057195980288
 20
-27.285634214438854
 10
10.51579550487164
 20
-27.186870541736784
 10
10.612404531183167
 20
-27.072309722318085
 10
10.68782667376568
 20
-26.942884296726508
 10
10.740804199424115
 20
-26.802630005524726
 10
10.790987410610862
 20
-26.661280536613695
 10
10.851593040199488
 20
-26.524124788142853
 10
10.926805463792507
 20
-26.39432311709438
 10
11.019436831432909
 20
-26.27652439918366
 10
11.1204627273808
 20
-26.16663267168711
 10
11.238346619927784
 20
-26.073849212236148
 10
11.359025903472086
 20
-25.985816561926846
 10
11.497382737122864
 20
-25.927827174519756
 10
11.635739570773618
 20
-25.869837787112676
 10
11.782166546908295
 20
-25.84170290104893
 10
11.930896653028077
 20
-25.82208816160864
 10
12.080174489582985
 20
-25.82482452615222
 10
12.22915961997164
 20
-25.840487053522562
 10
12.374909334062512
 20
-25.875796505005543
 10
12.516176223741576
 20
-25.926131118258688
 10
12.653985984360766
 20
-25.98537917702145
 10
12.795068680835088
 20
-26.0359262609104
 10
12.942870923249108
 20
-26.060409691589008
 10
13.092725722671508
 20
-26.0600681882882
 10
13.24100211999154
 20
-26.03814359847292
 10
13.384996127047181
 20
-25.996425467701403
 10
13.522411620075705
 20
-25.93647716324592
 10
13.651143672547287
 20
-25.859646841949196
 10
13.769033329031585
 20
-25.76704739113082
 10
13.873455634781605
 20
-25.659512269611568
 10
13.961354130700858
 20
-25.53812436474239
 10
14.028145913673171
 20
-25.404022513222294
 10
14.06978798552071
 20
-25.26009833560689
 10
14.09975822539862
 20
-25.113111441146618
 10
14.137971078613301
 20
-24.96808798785934
 10
14.190441005198027
 20
-24.827583711812338
 10
14.26116643247631
 20
-24.695400181562732
 10
14.344714348268123
 20
-24.571729887837876
 10
14.442022818899256
 20
-24.457552639608856
 10
14.550934487289613
 20
-24.35621862320807
 10
14.6743722132218
 20
-24.27096306452477
 10
14.799589989277395
 20
-24.189229507989136
 10
14.941440774134394
 20
-24.140405975700233
 10
15.083291558991418
 20
-24.09158244341132
 10
15.231788240984331
 20
-24.073068310310152
 10
15.381137290356945
 20
-24.062875892022987
 10
15.530825105970388
 20
-24.072760151051778
 10
15.678240060698295
 20
-24.100321708896264
 10
15.82309854380939
 20
-24.139207788737682
 10
15.968072830977254
 20
-24.177533127293774
 10
16.117116704802545
 20
-24.19243230063881
 10
16.26653102782389
 20
-24.18118618451074
 10
16.412589779543932
 20
-24.14756390380648
 10
16.55259416405219
 20
-24.094002432555726
 10
16.684512494143206
 20
-24.022806073936962
 10
16.80637825430206
 20
-23.93550098253576
 10
16.91613940231328
 20
-23.833393025120788
 10
17.011490992473146
 20
-23.717735018033782
 10
17.08988324883154
 20
-23.589997439480364
 10
17.147458739598644
 20
-23.451662980561082
 10
17.17931965095331
 20
-23.30529505333869
 10
17.19121976350707
 20
-23.155772108056237
 10
17.20680819676769
 20
-23.006610031172826
 10
17.23534139950734
 20
-22.85939688852632
 10
17.281972053165394
 20
-22.71691146940009
 10
17.344934129031653
 20
-22.581431522534082
 10
17.418499567906935
 20
-22.450689376793697
 10
17.513546316959918
 20
-22.33581473153324
 10
17.616885131142844
 20
-22.22706514784219
 10
17.731229333682556
 20
-22.13211588465108
 10
17.860247387707048
 20
-22.055567049222674
 10
17.991275210784064
 20
-21.983619519275944
 10
18.135109228130343
 20
-21.940991383922142
 10
18.280434037932956
 20
-21.905879264663668
 10
18.42964931789377
 20
-21.890381435914815
 10
18.57957327239569
 20
-21.892853909264957
 10
18.72862794299108
 20
-21.90953665377324
 10
18.876930418395112
 20
-21.932104346241125
 10
19.02663150349371
 20
-21.9374902352013
 10
19.174862193853027
 20
-21.915704465647377
 10
19.31783552578817
 20
-21.870789434878095
 10
19.45300301348207
 20
-21.80601753938009
 10
19.578488856291468
 20
-21.724038281924127
 10
19.692530026824745
 20
-21.6267596828735
 10
19.793355826781998
 20
-21.515841695195828
 10
19.87898837927543
 20
-21.392822595631056
 10
19.94719500955232
 20
-21.259362578410474
 10
19.994658087188945
 20
-21.117227022035188
 10
20.017224764885317
 20
-20.96913853808494
 10
20.014351857651352
 20
-20.819248997972004
 10
20.00759504188054
 20
-20.669409559316033
 10
20.01215501222534
 20
-20.51952996986474
 10
20.033551505739343
 20
-20.371154552401144
 10
20.073279141957123
 20
-20.226969013611285
 10
20.121126521036476
 20
-20.084785994987584
 10
20.199063069988835
 20
-19.956777634385897
 10
20.278227263517415
 20
-19.82934760286789
 10
20.38128640692543
 20
-19.72173411155179
 10
20.49187190881431
 20
-19.62036237366743
 10
20.611702930611177
 20
-19.53217174184243
 10
20.74467068861243
 20
-19.46270982564491
 10
20.88221615342384
 20
-19.404725728631824
 10
21.02649112742613
 20
-19.36361472832349
 10
21.17478118686951
 20
-19.341501142631657
 10
21.32455085565341
 20
-19.33448936675455
 10
21.47452644227243
 20
-19.337484906340038
 10
21.624299375032457
 20
-19.33222637794775
 10
21.77071163712151
 20
-19.30056245677288
 10
21.909865752482364
 20
-19.244969905146977
 10
22.039415600075195
 20
-19.169599650516076
 10
22.157682192415557
 20
-19.077507878530888
 10
22.263115555432076
 20
-18.97095572605644
 10
22.354242202688273
 20
-18.851939611617663
 10
22.429435385612326
 20
-18.72227313192154
 10
22.486818890350513
 20
-18.5838042448252
 10
22.52349879236532
 20
-18.438498841692244
 10
22.536304299391457
 20
-18.28923679298248
 10
22.521890656931205
 20
-18.140107258853806
 10
22.494269961489024
 20
-17.992656097467005
 10
22.475458321324787
 20
-17.84387907928749
 10
22.471477051914494
 20
-17.69402922805769
 10
22.48621167903239
 20
-17.54507795768175
 10
22.512340444365506
 20
-17.397810260667235
 10
22.564558963457237
 20
-17.25717381896884
 10
22.619556624107908
 20
-17.118014051552603
 10
22.706879388344632
 20
-16.99602996523075
 10
22.794202152581335
 20
-16.87404587890892
 10
22.902686156522048
 20
-16.77202394833205
 10
23.019374974797554
 20
-16.67774191314409
 10
23.146431204585628
 20
-16.599692774587258
 10
23.28104463713103
 20
-16.533476415218413
 10
23.42393389502672
 20
-16.48804298184396
 10
23.57039013057608
 20
-16.45615799333467
 10
23.719249613481274
 20
-16.43774877921408
 10
23.868090787248512
 20
-16.419416644958435
 10
24.01215594179074
 20
-16.37840933228557
 10
24.14685173141226
 20
-16.31277396401291
 10
24.270093688778516
 20
-16.227482944255005
 10
24.380452732346228
 20
-16.12603166369996
 10
24.47659415264284
 20
-16.010997957052865
 10
24.557352162532823
 20
-15.88469180532586
 10
24.621469574626364
 20
-15.749186633258924
 10
24.66744571982778
 20
-15.606505695278976
 10
24.692791925856213
 20
-15.458783558593225
 10
24.69528169808845
 20
-15.308974304756228
 10
24.671054736550573
 20
-15.161161363070576
 10
24.626327446523607
 20
-15.017996489945322
 10
24.584555649749678
 20
-14.873965648066179
 10
24.555916510425316
 20
-14.726818133731216
 10
24.544988839877565
 20
-14.577464192470469
 10
24.548742608330297
 20
-14.428095498279324
 10
24.572601015438
 20
-14.279986893262594
 10
24.610069040631227
 20
-14.135893774584517
 10
24.670431080462016
 20
-13.998555481973982
 10
24.732455527237338
 20
-13.86223984540874
 10
24.827819430426
 20
-13.746433505174984
 10
24.923183333614677
 20
-13.63062716494121
 10
25.03827039044392
 20
-13.535485477388134
 10
25.15861270721398
 20
-13.44597334229527
 10
25.292553197197005
 20
-13.378406134177592
 10
25.43168693713663
 20
-13.32278525639528
 10
25.575884879981828
 20
-13.281646820583134
 10
25.72183321822688
 20
-13.246965455333575
 10
25.862986289239675
 20
-13.196778676973551
 10
25.9927285743683
 20
-13.121857549909677
 10
26.109063721311028
 20
-13.027366397299396
 10
26.210647396945696
 20
-12.9171381478995
 10
26.296851864988106
 20
-12.794500743860981
 10
26.366781605181384
 20
-12.661899404576786
 10
26.419373445419236
 20
-12.52151160622819
 10
26.453320145829725
 20
-12.375499919484344
 10
26.467127683746476
 20
-12.226256208010629
 10
26.458791551795002
 20
-12.076646218763358
 10
26.42521209568615
 20
-11.930668020596693
 10
26.36706986383994
 20
-11.792502766366987
 10
26.304208493681063
 20
-11.656315041268066
 10
26.25232972428121
 20
-11.515648530328178
 10
26.2161576431431
 20
-11.370280420579713
 10
26.196225061279605
 20
-11.222154464917509
 10
26.191587316475495
 20
-11.072208228576478
 10
26.20952520484043
 20
-10.92427409910986
 10
26.240607826401018
 20
-10.777511525179614
 10
26.286421978913232
 20
-10.636061390033275
 10
26.35616226357067
 20
-10.503239422100222
 10
26.42764060414252
 20
-10.371634001940345
 10
26.52856110084875
 20
-10.260636543346571
 10
26.63184348247889
 20
-10.152247735940364
 10
26.752291055623047
 20
-10.062817514016253
 10
26.88041233349443
 20
-9.985265371208609
 10
27.0159730660573
 20
-9.921286098838726
 10
27.156080989786208
 20
-9.867696553996124
 10
27.293311911041744
 20
-9.807439150701724
 10
27.4177898855813
 20
-9.724096623872413
 10
27.526644271168067
 20
-9.62109073792832
 10
27.618991631761585
 20
-9.503030991301017
 10
27.694715686481437
 20
-9.373676513961035
 10
27.753200809250643
 20
-9.23566289154909
 10
27.793787217550978
 20
-9.091365510248579
 10
27.81559672740705
 20
-8.943067458736929
 10
27.81753468465502
 20
-8.79319820891742
 10
27.798078457008558
 20
-8.644609785984255
 10
27.754951505448084
 20
-8.501131330241128
 10
27.686528597980494
 20
-8.36785038239825
 10
27.605703306554428
 20
-8.24147166045841
 10
27.532106223631352
 20
-8.110837701935939
 10
27.472059768064376
 20
-7.973556544266276
 10
27.428103398052205
 20
-7.830601033573353
 10
27.395943330075937
 20
-7.68407078926362
 10
27.391939958318645
 20
-7.534577971920027
 10
27.392898333474033
 20
-7.38456309270209
 10
27.422152664764276
 20
-7.238574689379201
 10
27.46307881083909
 20
-7.094247169352099
 10
27.516747738530203
 20
-6.955445827547434
 10
27.59414402211042
 20
-6.826934358185046
 10
27.67845185222306
 20
-6.703662887064792
 10
27.781292563078132
 20
-6.594442144252212
 10
27.894955674289754
 20
-6.497031287638429
 10
28.018075619279564
 20
-6.411572494346956
 10
28.14888501154686
 20
-6.338203600053117
 10
28.280205744694115
 20
-6.265770502435747
 10
28.39912209470647
 20
-6.174684065194835
 10
28.50013799813524
 20
-6.06399988911943
 10
28.58290745958221
 20
-5.939049318919058
 10
28.64778624936641
 20
-5.803931155285181
 10
28.694480214034087
 20
-5.661492970590123
 10
28.722734278752405
 20
-5.51428304149466
 10
28.7321108006197
 20
-5.364683719506511
 10
28.72193986434967
 20
-5.215141581695972
 10
28.69111201181436
 20
-5.068475674648056
 10
28.638059891259637
 20
-4.928347485193457
 10
28.56118951717191
 20
-4.799786774131968
 10
28.466230256009517
 20
-4.683691817683001
 10
28.373116283836122
 20
-4.566134691715556
 10
28.291318234623407
 20
-4.440546787028881
 10
28.224109781965268
 20
-4.30682884663459
 10
28.16699076669305
 20
-4.168188218629882
 10
28.138394238519016
 20
-4.020921042904568
 10
28.110400623778293
 20
-3.8736167299111184
 10
28.120707307227647
 20
-3.723953258262239
 10
28.131013990676998
 20
-3.574289786613388
 10
28.16802073487075
 20
-3.4301843125864093
 10
28.218291477985996
 20
-3.28883992869953
 10
28.283091256567445
 20
-3.154645973999337
 10
28.364422063898168
 20
-3.0285877245721338
 10
28.46081156591009
 20
-2.914115577549023
 10
28.56829791960724
 20
-2.80976326575707
 10
28.68593061186189
 20
-2.716800930022492
 10
28.808203525440764
 20
-2.629891999031592
 10
28.920906940533843
 20
-2.531204306506836
 10
29.014054839891003
 20
-2.4138526671108305
 10
29.086952942605947
 20
-2.282903298868136
 10
29.140743536678457
 20
-2.1429948671109242
 10
29.1754302402037
 20
-1.997148738922923
 10
29.19115603528645
 20
-1.8480588437184262
 10
29.18792821716515
 20
-1.6981837016531949
 10
29.165517694162514
 20
-1.5499643236886467
 10
29.123148144214923
 20
-1.4061920861022044
 10
29.060174882583432
 20
-1.270209264810148
 10
28.975147509491915
 20
-1.146871428674195
 10
28.869948062170785
 20
-1.0400946612546547
 10
28.76017195275905
 20
-0.9378601220083553
 10
28.659268198440515
 20
-0.826982165151394
 10
28.57060883741125
 20
-0.7063116328847581
 10
28.493414066093976
 20
-0.5780619183966107
 10
28.43706304137671
 20
-0.43902974772006476
 10
28.391186303048745
 20
-0.2971955903443016
 10
28.37059315159301
 20
-0.14859779566742637
 10
28.35000000013727
 20
-9.905229969575657e-10
  0
CIRCLE
  5
30
330
17
100
AcDbEntity
  8
0
100
AcDbCircle
 10
20.0
 20
0.0
 30
0.0
 40
4.45
  0
CIRCLE
  5
31
330
17
100
AcDbEntity
  8
0
100
AcDbCircle
 10
10.000000000000002
 20
17.32050807568877
 30
0.0
 40
4.45
  0
CIRCLE
  5
32
330
17
100
AcDbEntity
  8
0
100
AcDbCircle
 10
-9.999999999999995
 20
17.320508075688775
 30
0.0
 40
4.45
  0
CIRCLE
  5
33
330
17
100
AcDbEntity
  8
0
100
AcDbCircle
 10
-20.0
 20
2.4492935982947065e-15
 30
0.0
 40
4.45
  0
CIRCLE
  5
34
330
17
100
AcDbEntity
  8
0
100
AcDbCircle
 10
-10.000000000000007
 20
-17.320508075688764
 30
0.0
 40
4.45
  0
CIRCLE
  5
35
330
17
100
AcDbEntity
  8
0
100
AcDbCircle
 10
10.0
 20
-17.32050807568877
 30
0.0
 40
4.45
  0
CIRCLE
  5
36
330
17
100
AcDbEntity
  8
0
100
AcDbCircle
 10
0.45
 20
0.0
 30
0.0
 40
10.0
  0
ENDSEC
  0
SECTION
  2
OBJECTS
  0
DICTIONARY
  5
A
330
0
100
AcDbDictionary
280
0
281
1
  3
ACAD_COLOR
350
B
  3
ACAD_GROUP
350
C
  3
ACAD_LAYOUT
350
D
  3
ACAD_MATERIAL
350
E
  3
ACAD_MLEADERSTYLE
350
F
  3
ACAD_MLINESTYLE
350
10
  3
ACAD_PLOTSETTINGS
350
11
  3
ACAD_PLOTSTYLENAME
350
12
  3
ACAD_SCALELIST
350
14
  3
ACAD_TABLESTYLE
350
15
  3
ACAD_VISUALSTYLE
350
16
  3
EZDXF_META
350
2D
  0
DICTIONARY
  5
B
330
A
100
AcDbDictionary
280
0
281
1
  0
DICTIONARY
  5
C
330
A
100
AcDbDictionary
280
0
281
1
  0
DICTIONARY
  5
D
330
A
100
AcDbDictionary
280
0
281
1
  3
Model
350
1A
  3
Layout1
350
1E
  0
DICTIONARY
  5
E
330
A
100
AcDbDictionary
280
0
281
1
  3
ByBlock
350
1F
  3
ByLayer
350
20
  3
Global
350
21
  0
DICTIONARY
  5
F
330
A
100
AcDbDictionary
280
0
281
1
  3
Standard
350
2C
  0
DICTIONARY
  5
10
330
A
100
AcDbDictionary
280
0
281
1
  3
Standard
350
22
  0
DICTIONARY
  5
11
330
A
100
AcDbDictionary
280
0
281
1
  0
ACDBDICTIONARYWDFLT
  5
12
330
A
100
AcDbDictionary
280
0
281
1
  3
Normal
350
13
100
AcDbDictionaryWithDefault
340
13
  0
ACDBPLACEHOLDER
  5
13
330
12
  0
DICTIONARY
  5
14
330
A
100
AcDbDictionary
280
0
281
1
  0
DICTIONARY
  5
15
330
A
100
AcDbDictionary
280
0
281
1
  0
DICTIONARY
  5
16
330
A
100
AcDbDictionary
280
0
281
1
  0
LAYOUT
  5
1A
330
D
100
AcDbPlotSettings
  1

  2
Adobe PDF
  4
A3
  6

 40
7.5
 41
20.0
 42
7.5
 43
20.0
 44
420.0
 45
297.0
 46
0.0
 47
0.0
 48
0.0
 49
0.0
140
0.0
141
0.0
142
1.0
143
1.0
 70
1024
 72
1
 73
0
 74
5
  7

 75
16
 76
0
 77
2
 78
300
147
1.0
148
0.0
149
0.0
100
AcDbLayout
  1
Model
 70
1
 71
0
 10
0.0
 20
0.0
 11
420.0
 21
297.0
 12
0.0
 22
0.0
 32
0.0
 14
1e+20
 24
1e+20
 34
1e+20
 15
-1e+20
 25
-1e+20
 35
-1e+20
146
0.0
 13
0.0
 23
0.0
 33
0.0
 16
1.0
 26
0.0
 36
0.0
 17
0.0
 27
1.0
 37
0.0
 76
1
330
17
  0
LAYOUT
  5
1E
330
D
100
AcDbPlotSettings
  1

  2
Adobe PDF
  4
A3
  6

 40
7.5
 41
20.0
 42
7.5
 43
20.0
 44
420.0
 45
297.0
 46
0.0
 47
0.0
 48
0.0
 49
0.0
140
0.0
141
0.0
142
1.0
143
1.0
 70
0
 72
1
 73
0
 74
5
  7

 75
16
 76
0
 77
2
 78
300
147
1.0
148
0.0
149
0.0
100
AcDbLayout
  1
Layout1
 70
1
 71
1
 10
0.0
 20
0.0
 11
420.0
 21
297.0
 12
0.0
 22
0.0
 32
0.0
 14
1e+20
 24
1e+20
 34
1e+20
 15
-1e+20
 25
-1e+20
 35
-1e+20
146
0.0
 13
0.0
 23
0.0
 33
0.0
 16
1.0
 26
0.0
 36
0.0
 17
0.0
 27
1.0
 37
0.0
 76
1
330
1B
  0
MATERIAL
  5
1F
102
{ACAD_REACTORS
330
E
102
}
330
E
100
AcDbMaterial
  1
ByBlock
  2

 70
0
 40
1.0
 71
1
 41
1.0
 91
-1023410177
 42
1.0
 72
1
  3

 73
1
 74
1
 75
1
 44
0.5
 73
0
 45
1.0
 46
1.0
 77
1
  4

 78
1
 79
1
170
1
 48
1.0
171
1
  6

172
1
173
1
174
1
140
1.0
141
1.0
175
1
  7

176
1
177
1
178
1
143
1.0
179
1
  8

270
1
271
1
272
1
145
1.0
146
1.0
273
1
  9

274
1
275
1
276
1
 42
1.0
 72
1
  3

 73
1
 74
1
 75
1
 94
63
  0
MATERIAL
  5
20
102
{ACAD_REACTORS
330
E
102
}
330
E
100
AcDbMaterial
  1
ByLayer
  2

 70
0
 40
1.0
 71
1
 41
1.0
 91
-1023410177
 42
1.0
 72
1
  3

 73
1
 74
1
 75
1
 44
0.5
 73
0
 45
1.0
 46
1.0
 77
1
  4

 78
1
 79
1
170
1
 48
1.0
171
1
  6

172
1
173
1
174
1
140
1.0
141
1.0
175
1
  7

176
1
177
1
178
1
143
1.0
179
1
  8

270
1
271
1
272
1
145
1.0
146
1.0
273
1
  9

274
1
275
1
276
1
 42
1.0
 72
1
  3

 73
1
 74
1
 75
1
 94
63
  0
MATERIAL
  5
21
102
{ACAD_REACTORS
330
E
102
}
330
E
100
AcDbMaterial
  1
Global
  2

 70
0
 40
1.0
 71
1
 41
1.0
 91
-1023410177
 42
1.0
 72
1
  3

 73
1
 74
1
 75
1
 44
0.5
 73
0
 45
1.0
 46
1.0
 77
1
  4

 78
1
 79
1
170
1
 48
1.0
171
1
  6

172
1
173
1
174
1
140
1.0
141
1.0
175
1
  7

176
1
177
1
178
1
143
1.0
179
1
  8

270
1
271
1
272
1
145
1.0
146
1.0
273
1
  9

274
1
275
1
276
1
 42
1.0
 72
1
  3

 73
1
 74
1
 75
1
 94
63
  0
MLINESTYLE
  5
22
102
{ACAD_REACTORS
330
10
102
}
330
10
100
AcDbMlineStyle
  2
Standard
 70
0
  3

 62
256
 51
90.0
 52
90.0
 71
2
 49
0.5
 62
256
  6
BYLAYER
 49
-0.5
 62
256
  6
BYLAYER
  0
MLEADERSTYLE
  5
2C
102
{ACAD_REACTORS
330
F
102
}
330
F
100
AcDbMLeaderStyle
179
2
170
2
171
1
172
0
 90
2
 40
0.0
 41
0.0
173
1
 91
-1056964608
 92
-2
290
1
 42
2.0
291
1
 43
8.0
  3
Standard
 44
4.0
300

342
29
174
1
175
1
176
0
178
1
 93
-1056964608
 45
4.0
292
0
297
0
 46
4.0
 94
-1056964608
 47
1.0
 49
1.0
140
1.0
294
1
141
0.0
177
0
142
1.0
295
0
296
0
143
3.75
271
0
272
9
273
9
  0
DICTIONARY
  5
2D
330
A
100
AcDbDictionary
281
1
  3
CREATED_BY_EZDXF
350
2E
  3
WRITTEN_BY_EZDXF
350
39
  0
DICTIONARYVAR
  5
2E
330
2D
100
DictionaryVariables
280
0
  1
1.1.4 @ 2026-08-21T06:35:29.094842+00:00
  0
DICTIONARYVAR
  5
39
330
2D
100
DictionaryVariables
280
0
  1
1.1.4 @ 2026-08-21T06:35:29.103509+00:00
  0
ENDSEC
  0
EOF
