  0
SECTION
  2
HEADER
  9
$ACADVER
  1
AC1024
  9
$ACADMAINTVER
 70
6
  9
$DWGCODEPAGE
  3
ANSI_1252
  9
$LASTSAVEDBY
  1
ezdxf
  9
$INSBASE
 10
0.0
 20
0.0
 30
0.0
  9
$EXTMIN
 10
1e+20
 20
1e+20
 30
1e+20
  9
$EXTMAX
 10
-1e+20
 20
-1e+20
 30
-1e+20
  9
$LIMMIN
 10
0.0
 20
0.0
  9
$LIMMAX
 10
420.0
 20
297.0
  9
$ORTHOMODE
 70
0
  9
$REGENMODE
 70
1
  9
$FILLMODE
 70
1
  9
$QTEXTMODE
 70
0
  9
$MIRRTEXT
 70
1
  9
$LTSCALE
 40
1.0
  9
$ATTMODE
 70
1
  9
$TEXTSIZE
 40
2.5
  9
$TRACEWID
 40
1.0
  9
$TEXTSTYLE
  7
Standard
  9
$CLAYER
  8
0
  9
$CELTYPE
  6
ByLayer
  9
$CECOLOR
 62
256
  9
$CELTSCALE
 40
1.0
  9
$DISPSILH
 70
0
  9
$DIMSCALE
 40
1.0
  9
$DIMASZ
 40
2.5
  9
$DIMEXO
 40
0.625
  9
$DIMDLI
 40
3.75
  9
$DIMRND
 40
0.0
  9
$DIMDLE
 40
0.0
  9
$DIMEXE
 40
1.25
  9
$DIMTP
 40
0.0
  9
$DIMTM
 40
0.0
  9
$DIMTXT
 40
2.5
  9
$DIMCEN
 40
2.5
  9
$DIMTSZ
 40
0.0
  9
$DIMTOL
 70
0
  9
$DIMLIM
 70
0
  9
$DIMTIH
 70
0
  9
$DIMTOH
 70
0
  9
$DIMSE1
 70
0
  9
$DIMSE2
 70
0
  9
$DIMTAD
 70
1
  9
$DIMZIN
 70
8
  9
$DIMBLK
  1

  9
$DIMASO
 70
1
  9
$DIMSHO
 70
1
  9
$DIMPOST
  1

  9
$DIMAPOST
  1

  9
$DIMALT
 70
0
  9
$DIMALTD
 70
3
  9
$DIMALTF
 40
0.03937007874
  9
$DIMLFAC
 40
1.0
  9
$DIMTOFL
 70
1
  9
$DIMTVP
 40
0.0
  9
$DIMTIX
 70
0
  9
$DIMSOXD
 70
0
  9
$DIMSAH
 70
0
  9
$DIMBLK1
  1

  9
$DIMBLK2
  1

  9
$DIMSTYLE
  2
ISO-25
  9
$DIMCLRD
 70
0
  9
$DIMCLRE
 70
0
  9
$DIMCLRT
 70
0
  9
$DIMTFAC
 40
1.0
  9
$DIMGAP
 40
0.625
  9
$DIMJUST
 70
0
  9
$DIMSD1
 70
0
  9
$DIMSD2
 70
0
  9
$DIMTOLJ
 70
0
  9
$DIMTZIN
 70
8
  9
$DIMALTZ
 70
0
  9
$DIMALTTZ
 70
0
  9
$DIMUPT
 70
0
  9
$DIMDEC
 70
2
  9
$DIMTDEC
 70
2
  9
$DIMALTU
 70
2
  9
$DIMALTTD
 70
3
  9
$DIMTXSTY
  7
Standard
  9
$DIMAUNIT
 70
0
  9
$DIMADEC
 70
0
  9
$DIMALTRND
 40
0.0
  9
$DIMAZIN
 70
0
  9
$DIMDSEP
 70
44
  9
$DIMATFIT
 70
3
  9
$DIMFRAC
 70
0
  9
$DIMLDRBLK
  1

  9
$DIMLUNIT
 70
2
  9
$DIMLWD
 70
-2
  9
$DIMLWE
 70
-2
  9
$DIMTMOVE
 70
0
  9
$DIMFXL
 40
1.0
  9
$DIMFXLON
 70
0
  9
$DIMJOGANG
 40
0.785398163397
  9
$DIMTFILL
 70
0
  9
$DIMTFILLCLR
 70
0
  9
$DIMARCSYM
 70
0
  9
$DIMLTYPE
  6

  9
$DIMLTEX1
  6

  9
$DIMLTEX2
  6

  9
$DIMTXTDIRECTION
 70
0
  9
$LUNITS
 70
2
  9
$LUPREC
 70
4
  9
$SKETCHINC
 40
1.0
  9
$FILLETRAD
 40
10.0
  9
$AUNITS
 70
0
  9
$AUPREC
 70
2
  9
$MENU
  1
.
  9
$ELEVATION
 40
0.0
  9
$PELEVATION
 40
0.0
  9
$THICKNESS
 40
0.0
  9
$LIMCHECK
 70
0
  9
$CHAMFERA
 40
0.0
  9
$CHAMFERB
 40
0.0
  9
$CHAMFERC
 40
0.0
  9
$CHAMFERD
 40
0.0
  9
$SKPOLY
 70
0
  9
$TDCREATE
 40
2461274.415648148
  9
$TDUCREATE
 40
2458532.153996898
  9
$TDUPDATE
 40
2461274.415648148
  9
$TDUUPDATE
 40
2458532.1544311
  9
$TDINDWG
 40
0.0
  9
$TDUSRTIMER
 40
0.0
  9
$USRTIMER
 70
1
  9
$ANGBASE
 50
0.0
  9
$ANGDIR
 70
0
  9
$PDMODE
 70
0
  9
$PDSIZE
 40
0.0
  9
$PLINEWID
 40
0.0
  9
$SPLFRAME
 70
0
  9
$SPLINETYPE
 70
6
  9
$SPLINESEGS
 70
8
  9
$HANDSEED
  5
39
  9
$SURFTAB1
 70
6
  9
$SURFTAB2
 70
6
  9
$SURFTYPE
 70
6
  9
$SURFU
 70
6
  9
$SURFV
 70
6
  9
$UCSBASE
  2

  9
$UCSNAME
  2

  9
$UCSORG
 10
0.0
 20
0.0
 30
0.0
  9
$UCSXDIR
 10
1.0
 20
0.0
 30
0.0
  9
$UCSYDIR
 10
0.0
 20
1.0
 30
0.0
  9
$UCSORTHOREF
  2

  9
$UCSORTHOVIEW
 70
0
  9
$UCSORGTOP
 10
0.0
 20
0.0
 30
0.0
  9
$UCSORGBOTTOM
 10
0.0
 20
0.0
 30
0.0
  9
$UCSORGLEFT
 10
0.0
 20
0.0
 30
0.0
  9
$UCSORGRIGHT
 10
0.0
 20
0.0
 30
0.0
  9
$UCSORGFRONT
 10
0.0
 20
0.0
 30
0.0
  9
$UCSORGBACK
 10
0.0
 20
0.0
 30
0.0
  9
$PUCSBASE
  2

  9
$PUCSNAME
  2

  9
$PUCSORG
 10
0.0
 20
0.0
 30
0.0
  9
$PUCSXDIR
 10
1.0
 20
0.0
 30
0.0
  9
$PUCSYDIR
 10
0.0
 20
1.0
 30
0.0
  9
$PUCSORTHOREF
  2

  9
$PUCSORTHOVIEW
 70
0
  9
$PUCSORGTOP
 10
0.0
 20
0.0
 30
0.0
  9
$PUCSORGBOTTOM
 10
0.0
 20
0.0
 30
0.0
  9
$PUCSORGLEFT
 10
0.0
 20
0.0
 30
0.0
  9
$PUCSORGRIGHT
 10
0.0
 20
0.0
 30
0.0
  9
$PUCSORGFRONT
 10
0.0
 20
0.0
 30
0.0
  9
$PUCSORGBACK
 10
0.0
 20
0.0
 30
0.0
  9
$USERI1
 70
0
  9
$USERI2
 70
0
  9
$USERI3
 70
0
  9
$USERI4
 70
0
  9
$USERI5
 70
0
  9
$USERR1
 40
0.0
  9
$USERR2
 40
0.0
  9
$USERR3
 40
0.0
  9
$USERR4
 40
0.0
  9
$USERR5
 40
0.0
  9
$WORLDVIEW
 70
1
  9
$SHADEDGE
 70
3
  9
$SHADEDIF
 70
70
  9
$TILEMODE
 70
1
  9
$MAXACTVP
 70
64
  9
$PINSBASE
 10
0.0
 20
0.0
 30
0.0
  9
$PLIMCHECK
 70
0
  9
$PEXTMIN
 10
1e+20
 20
1e+20
 30
1e+20
  9
$PEXTMAX
 10
-1e+20
 20
-1e+20
 30
-1e+20
  9
$PLIMMIN
 10
0.0
 20
0.0
  9
$PLIMMAX
 10
420.0
 20
297.0
  9
$UNITMODE
 70
0
  9
$VISRETAIN
 70
1
  9
$PLINEGEN
 70
0
  9
$PSLTSCALE
 70
1
  9
$TREEDEPTH
 70
3020
  9
$CMLSTYLE
  2
Standard
  9
$CMLJUST
 70
0
  9
$CMLSCALE
 40
20.0
  9
$PROXYGRAPHICS
 70
1
  9
$MEASUREMENT
 70
1
  9
$CELWEIGHT
370
-1
  9
$ENDCAPS
280
0
  9
$JOINSTYLE
280
0
  9
$LWDISPLAY
290
0
  9
$INSUNITS
 70
4
  9
$HYPERLINKBASE
  1

  9
$STYLESHEET
  1

  9
$XEDIT
290
1
  9
$CEPSNTYPE
380
0
  9
$PSTYLEMODE
290
1
  9
$FINGERPRINTGUID
  2
{3F505FFE-B5C3-49B7-AB95-8DF3E01A4F0D}
  9
$VERSIONGUID
  2
{A55DF202-C53A-4757-922A-C8E70C8DB0DF}
  9
$EXTNAMES
290
1
  9
$PSVPSCALE
 40
0.0
  9
$OLESTARTUP
290
0
  9
$SORTENTS
280
127
  9
$INDEXCTL
280
0
  9
$HIDETEXT
280
1
  9
$XCLIPFRAME
280
0
  9
$HALOGAP
280
0
  9
$OBSCOLOR
 70
257
  9
$OBSLTYPE
280
0
  9
$INTERSECTIONDISPLAY
280
0
  9
$INTERSECTIONCOLOR
 70
257
  9
$DIMASSOC
280
2
  9
$PROJECTNAME
  1

  9
$CAMERADISPLAY
290
0
  9
$LENSLENGTH
 40
50.0
  9
$CAMERAHEIGHT
 40
0.0
  9
$STEPSPERSEC
 40
24.0
  9
$STEPSIZE
 40
100.0
  9
$3DDWFPREC
 40
2.0
  9
$PSOLWIDTH
 40
0.005
  9
$PSOLHEIGHT
 40
0.08
  9
$LOFTANG1
 40
1.570796326795
  9
$LOFTANG2
 40
1.570796326795
  9
$LOFTMAG1
 40
0.0
  9
$LOFTMAG2
 40
0.0
  9
$LOFTPARAM
 70
7
  9
$LOFTNORMALS
280
1
  9
$LATITUDE
 40
37.795
  9
$LONGITUDE
 40
-122.394
  9
$NORTHDIRECTION
 40
0.0
  9
$TIMEZONE
 70
-8000
  9
$LIGHTGLYPHDISPLAY
280
1
  9
$TILEMODELIGHTSYNCH
280
1
  9
$CMATERIAL
347
20
  9
$SOLIDHIST
280
0
  9
$SHOWHIST
280
1
  9
$DWFFRAME
280
2
  9
$DGNFRAME
280
2
  9
$REALWORLDSCALE
290
1
  9
$INTERFERECOLOR
 62
256
  9
$CSHADOW
280
0
  9
$SHADOWPLANELOCATION
 40
0.0
  0
ENDSEC
  0
SECTION
  2
CLASSES
  0
CLASS
  1
ACDBDICTIONARYWDFLT
  2
AcDbDictionaryWithDefault
  3
ObjectDBX Classes
 90
0
 91
0
280
0
281
0
  0
CLASS
  1
SUN
  2
AcDbSun
  3
SCENEOE
 90
1153
 91
0
280
0
281
0
  0
CLASS
  1
VISUALSTYLE
  2
AcDbVisualStyle
  3
ObjectDBX Classes
 90
4095
 91
0
280
0
281
0
  0
CLASS
  1
MATERIAL
  2
AcDbMaterial
  3
ObjectDBX Classes
 90
1153
 91
0
280
0
281
0
  0
CLASS
  1
SCALE
  2
AcDbScale
  3
ObjectDBX Classes
 90
1153
 91
0
280
0
281
0
  0
CLASS
  1
TABLESTYLE
  2
AcDbTableStyle
  3
ObjectDBX Classes
 90
4095
 91
0
280
0
281
0
  0
CLASS
  1
MLEADERSTYLE
  2
AcDbMLeaderStyle
  3
ACDB_MLEADERSTYLE_CLASS
 90
4095
 91
0
280
0
281
0
  0
CLASS
  1
DICTIONARYVAR
  2
AcDbDictionaryVar
  3
ObjectDBX Classes
 90
0
 91
0
280
0
281
0
  0
CLASS
  1
CELLSTYLEMAP
  2
AcDbCellStyleMap
  3
ObjectDBX Classes
 90
1152
 91
0
280
0
281
0
  0
CLASS
  1
MENTALRAYRENDERSETTINGS
  2
AcDbMentalRayRenderSettings
  3
SCENEOE
 90
1024
 91
0
280
0
281
0
  0
CLASS
  1
ACDBDETAILVIEWSTYLE
  2
AcDbDetailViewStyle
  3
ObjectDBX Classes
 90
1025
 91
0
280
0
281
0
  0
CLASS
  1
ACDBSECTIONVIEWSTYLE
  2
AcDbSectionViewStyle
  3
ObjectDBX Classes
 90
1025
 91
0
280
0
281
0
  0
CLASS
  1
RASTERVARIABLES
  2
AcDbRasterVariables
  3
ISM
 90
0
 91
0
280
0
281
0
  0
CLASS
  1
ACDBPLACEHOLDER
  2
AcDbPlaceHolder
  3
ObjectDBX Classes
 90
0
 91
0
280
0
281
0
  0
CLASS
  1
LAYOUT
  2
AcDbLayout
  3
ObjectDBX Classes
 90
0
 91
0
280
0
281
0
  0
ENDSEC
  0
SECTION
  2
TABLES
  0
TABLE
  2
VPORT
  5
8
330
0
100
AcDbSymbolTable
 70
1
  0
VPORT
  5
23
330
8
100
AcDbSymbolTableRecord
100
AcDbViewportTableRecord
  2
*Active
 70
0
 10
0.0
 20
0.0
 11
1.0
 21
1.0
 12
0.0
 22
0.0
 13
0.0
 23
0.0
 14
0.5
 24
0.5
 15
0.5
 25
0.5
 16
0.0
 26
0.0
 36
1.0
 17
0.0
 27
0.0
 37
0.0
 40
1000.0
 41
1.34
 42
50.0
 43
0.0
 44
0.0
 50
0.0
 51
0.0
 71
0
 72
1000
 73
1
 74
3
 75
0
 76
0
 77
0
 78
0
281
0
 65
0
146
0.0
  0
ENDTAB
  0
TABLE
  2
LTYPE
  5
2
330
0
100
AcDbSymbolTable
 70
3
  0
LTYPE
  5
24
330
2
100
AcDbSymbolTableRecord
100
AcDbLinetypeTableRecord
  2
ByBlock
 70
0
  3

 72
65
 73
0
 40
0.0
  0
LTYPE
  5
25
330
2
100
AcDbSymbolTableRecord
100
AcDbLinetypeTableRecord
  2
ByLayer
 70
0
  3

 72
65
 73
0
 40
0.0
  0
LTYPE
  5
26
330
2
100
AcDbSymbolTableRecord
100
AcDbLinetypeTableRecord
  2
Continuous
 70
0
  3

 72
65
 73
0
 40
0.0
  0
ENDTAB
  0
TABLE
  2
LAYER
  5
1
330
0
100
AcDbSymbolTable
 70
2
  0
LAYER
  5
27
330
1
100
AcDbSymbolTableRecord
100
AcDbLayerTableRecord
  2
0
 70
0
 62
7
  6
Continuous
370
-3
390
13
347
21
  0
LAYER
  5
28
330
1
100
AcDbSymbolTableRecord
100
AcDbLayerTableRecord
  2
Defpoints
 70
0
 62
7
  6
Continuous
290
0
370
-3
390
13
347
21
  0
ENDTAB
  0
TABLE
  2
STYLE
  5
5
330
0
100
AcDbSymbolTable
 70
1
  0
STYLE
  5
29
330
5
100
AcDbSymbolTableRecord
100
AcDbTextStyleTableRecord
  2
Standard
 70
0
 40
0.0
 41
1.0
 50
0.0
 71
0
 42
2.5
  3
txt
  4

  0
ENDTAB
  0
TABLE
  2
VIEW
  5
7
330
0
100
AcDbSymbolTable
 70
0
  0
ENDTAB
  0
TABLE
  2
UCS
  5
6
330
0
100
AcDbSymbolTable
 70
0
  0
ENDTAB
  0
TABLE
  2
APPID
  5
3
330
0
100
AcDbSymbolTable
 70
3
  0
APPID
  5
2A
330
3
100
AcDbSymbolTableRecord
100
AcDbRegAppTableRecord
  2
ACAD
 70
0
  0
APPID
  5
36
330
3
100
AcDbSymbolTableRecord
100
AcDbRegAppTableRecord
  2
HATCHBACKGROUNDCOLOR
 70
0
  0
APPID
  5
37
330
3
100
AcDbSymbolTableRecord
100
AcDbRegAppTableRecord
  2
EZDXF
 70
0
  0
ENDTAB
  0
TABLE
  2
DIMSTYLE
  5
4
330
0
100
AcDbSymbolTable
 70
1
100
AcDbDimStyleTable
  0
DIMSTYLE
105
2B
330
4
100
AcDbSymbolTableRecord
100
AcDbDimStyleTableRecord
  2
Standard
 70
0
 40
1.0
 41
2.5
 42
0.625
 43
3.75
 44
1.25
 45
0.0
 46
0.0
 47
0.0
 48
0.0
 49
2.5
140
2.5
141
2.5
142
0.0
143
0.03937007874
144
1.0
145
0.0
146
1.0
147
0.625
148
0.0
 69
0
 70
0
 71
0
 72
0
 73
0
 74
0
 75
0
 76
0
 77
1
 78
8
 79
3
170
0
171
3
172
1
173
0
174
0
175
0
176
0
177
0
178
0
179
2
271
2
272
2
273
2
274
3
275
0
276
0
277
2
278
44
279
0
280
0
281
0
282
0
283
0
284
8
285
0
286
0
288
0
289
3
290
0
371
-2
372
-2
  0
ENDTAB
  0
TABLE
  2
BLOCK_RECORD
  5
9
330
0
100
AcDbSymbolTable
 70
2
  0
BLOCK_RECORD
  5
17
330
9
100
AcDbSymbolTableRecord
100
AcDbBlockTableRecord
  2
*Model_Space
340
1A
 70
0
280
1
281
0
  0
BLOCK_RECORD
  5
1B
330
9
100
AcDbSymbolTableRecord
100
AcDbBlockTableRecord
  2
*Paper_Space
340
1E
 70
0
280
1
281
0
  0
ENDTAB
  0
ENDSEC
  0
SECTION
  2
BLOCKS
  0
BLOCK
  5
18
330
17
100
AcDbEntity
  8
0
100
AcDbBlockBegin
  2
*Model_Space
 70
0
 10
0.0
 20
0.0
 30
0.0
  3
*Model_Space
  1

  0
ENDBLK
  5
19
330
17
100
AcDbEntity
  8
0
100
AcDbBlockEnd
  0
BLOCK
  5
1C
330
1B
100
AcDbEntity
  8
0
100
AcDbBlockBegin
  2
*Paper_Space
 70
0
 10
0.0
 20
0.0
 30
0.0
  3
*Paper_Space
  1

  0
ENDBLK
  5
1D
330
1B
100
AcDbEntity
  8
0
100
AcDbBlockEnd
  0
ENDSEC
  0
SECTION
  2
ENTITIES
  0
LWPOLYLINE
  5
2F
330
17
100
AcDbEntity
  8
0
100
AcDbPolyline
 90
3200
 70
1
 10
28.35
 20
0.0
 10
28.397218500893047
 20
0.34072323100900986
 10
28.50195335740611
 20
0.5991305007892422
 10
28.60913612764415
 20
0.7664583041107906
 10
28.695513878909516
 20
0.8707411500323041
 10
28.75976328556691
 20
0.9374699444998464
 10
28.80688024627973
 20
0.9824551517629136
 10
28.84206475310878
 20
1.0147361855706531
 10
28.869345306979593
 20
1.0395395793990094
 10
28.891586932929822
 20
1.0600220624787267
 10
28.910763071493758
 20
1.0781948098833358
 10
28.92820863639867
 20
1.0954088398875816
 10
28.944807808386948
 20
1.1126152799699551
 10
28.961125131353292
 20
1.130509207951532
 10
28.97749596198039
 20
1.149611755428575
 10
28.99408940496442
 20
1.1703184895656031
 10
29.010952902747775
 20
1.1929288386044865
 10
29.028044565224345
 20
1.2176645894797058
 10
29.04525721847814
 20
1.2446819596897758
 10
29.06243677345196
 20
1.2740798425321382
 10
29.079396624712853
 20
1.3059057662205416
 10
29.095929213141506
 20
1.3401605011083724
 10
29.111815510735468
 20
1.3768018921505565
 10
29.126832938440838
 20
1.415748277711855
 10
29.14076206339705
 20
1.456881721728276
 10
29.153392311371512
 20
1.5000512008762508
 10
29.1645268551284
 20
1.5450758327466159
 10
29.173986788216755
 20
1.5917481938694542
 10
29.181614658490144
 20
1.6398377510875344
 10
29.18727741151054
 20
1.68909441213815
 10
29.190868777441047
 20
1.7392521888347543
 10
29.192311123780218
 20
1.7900329573402116
 10
29.191556788723048
 20
1.8411502936717983
 10
29.188588904902954
 20
1.8923133581181362
 10
29.18342171992772
 20
1.9432307992583944
 10
29.17610041781578
 20
1.993614646488167
 10
29.166700443625743
 20
2.0431841592163105
 10
29.155326331765263
 20
2.0916696011263602
 10
29.142110036180032
 20
2.138815909088617
 10
29.1272087573276
 20
2.1843862285298545
 10
29.110802255893578
 20
2.2281652904677207
 10
29.09308963578564
 20
2.2699626102639843
 10
29.074285567930367
 20
2.309615494884617
 10
29.054615910237924
 20
2.3469918547806827
 10
29.034312655543395
 20
2.381992829550411
 10
29.01360810508075
 20
2.414555255125811
 10
28.992728115157757
 20
2.444654027305183
 10
28.971884191674373
 20
2.4723044569180326
 10
28.951264099388077
 20
2.4975647739942044
 10
28.931020492265525
 20
2.5205390361444326
 10
28.911256829158116
 20
2.5413808547245096
 10
28.892009469342515
 20
2.5602986157367744
 10
28.87322427066029
 20
2.5775633227336106
 10
28.854725118162115
 20
2.5935209811863205
 10
28.836170398819434
 20
2.608612879490426
 10
28.816991205648126
 20
2.623409805636104
 10
28.796301577161667
 20
2.6386714184810653
 10
28.772765937995423
 20
2.655452312112627
 10
28.74440248719359
 20
2.6752974671213066
 10
28.708298209870634
 20
2.700613959046227
 10
28.660233875992887
 20
2.7353971296472266
 10
28.594355985847706
 20
2.786660942787903
 10
28.50360698702452
 20
2.8671163634086945
 10
28.38349230313744
 20
2.999029909353547
 10
28.24504696354838
 20
3.213612522298537
 10
28.13443476022091
 20
3.5246167518133333
 10
28.110240893060823
 20
3.87593618153906
 10
28.16766916637825
 20
4.17168185971266
 10
28.2526736491496
 20
4.375224992648405
 10
28.329691288056097
 20
4.505409604816884
 10
28.3896236776247
 20
4.589218468795482
 10
28.434244402993816
 20
4.645431618768592
 10
28.467550001947632
 20
4.685270445024403
 10
28.493115437908244
 20
4.7153362720645795
 10
28.513623206059435
 20
4.739631694145619
 10
28.530964079365226
 20
4.760694311662828
 10
28.54642853186884
 20
4.780208897839643
 10
28.56087190498814
 20
4.799341363353663
 10
28.574837135284408
 20
4.818925826460126
 10
28.588642187785684
 20
4.839572734830611
 10
28.602442010102934
 20
4.861733410898836
 10
28.61627290167639
 20
4.8857398597245165
 10
28.630084882657638
 20
4.911830162770608
 10
28.64376584308435
 20
4.940165283859484
 10
28.657159996085653
 20
4.970840670093428
 10
28.67008231740379
 20
5.003894663778464
 10
28.68233009721213
 20
5.0393149549072165
 10
28.693692362555854
 20
5.077043838677641
 10
28.703957684482504
 20
5.11698276025361
 10
28.71292072040584
 20
5.158996453344553
 10
28.720387731876084
 20
5.202916867279188
 10
28.726181242877892
 20
5.248547004315067
 10
28.730143952444834
 20
5.295664740359696
 10
28.732141980150402
 20
5.344026669289538
 10
28.73206749885366
 20
5.393371988245518
 10
28.72984079254042
 20
5.443426425288213
 10
28.725411765880757
 20
5.493906199473563
 10
28.718760924602364
 20
5.544521995382386
 10
28.70989984079994
 20
5.594982928505054
 10
28.698871114013052
 20
5.645000474053823
 10
28.6857478366523
 20
5.694292329357649
 10
28.670632570597395
 20
5.742586178731558
 10
28.65365584005064
 20
5.789623329443842
 10
28.634974143532546
 20
5.835162188042565
 10
28.61476748473734
 20
5.878981547826018
 10
28.5932364172124
 20
5.920883660695676
 10
28.57059859070116
 20
5.960697070145749
 10
28.547084776435952
 20
5.998279186970231
 10
28.522934333205395
 20
6.0335185958375455
 10
28.498390053520268
 20
6.066337089914446
 10
28.47369229653306
 20
6.096691443407732
 10
28.449072266843018
 20
6.124574950221494
 10
28.424744228807008
 20
6.150018784244492
 10
28.400896343442632
 20
6.173093278804311
 10
28.37767966212572
 20
6.193909289501747
 10
28.355194580423234
 20
6.212619913639251
 10
28.333473701896683
 20
6.229423022876133
 10
28.312459512413092
 20
6.24456538333535
 10
28.291974399488996
 20
6.258349703414227
 10
28.271679167944008
 20
6.271146988831766
 10
28.251013973502925
 20
6.283418552815714
 10
28.229112001061022
 20
6.2957558799008915
 10
28.204670531469308
 20
6.308954327393524
 10
28.175755671121433
 20
6.324152900619742
 10
28.139507403587018
 20
6.343107162263122
 10
28.091712732596218
 20
6.368737622289803
 10
28.026283101150113
 20
6.406252207106565
 10
27.935033214628568
 20
6.465402579243082
 10
27.809547299971747
 20
6.564434540008376
 10
27.65051691971999
 20
6.7333308468935105
 10
27.489705231782594
 20
7.000348142188638
 10
27.39317820840952
 20
7.340754147522431
 10
27.391125165243764
 20
7.662117885727987
 10
27.443349047299023
 20
7.90006446600281
 10
27.504810785725862
 20
8.057390745882367
 10
27.557033441835582
 20
8.15964746789435
 10
27.59722235844232
 20
8.228029597293013
 10
27.627476101251084
 20
8.275980924957047
 10
27.65057621461487
 20
8.311590576611874
 10
27.66884842237111
 20
8.3397945732477
 10
27.684005314943647
 20
8.36371421551734
 10
27.697237236384513
 20
8.385403988101483
 10
27.70933661034183
 20
8.40626705048141
 10
27.720803208325748
 20
8.427290708250814
 10
27.731923720946117
 20
8.449183756924041
 10
27.742829985282714
 20
8.472459155679788
 10
27.75354149003172
 20
8.497485433793136
 10
27.763996750191183
 20
8.524519745216777
 10
27.774076877819635
 20
8.553729897243795
 10
27.783623655843915
 20
8.585209623621727
 10
27.792453689754456
 20
8.618989655963697
 10
27.800369708232644
 20
8.655046156347563
 10
27.807169742383
 20
8.693307486578911
 10
27.81265468268559
 20
8.733659932462828
 10
27.816634556709786
 20
8.77595277901297
 10
27.81893376449119
 20
8.8200029908077
 10
27.819395435940155
 20
8.865599659433078
 10
27.817885024889918
 20
8.91250831865168
 10
27.81429322019462
 20
8.960475186449376
 10
27.808538230812395
 20
9.009231364572987
 10
27.800567485775932
 20
9.058497006277653
 10
27.79035877910465
 20
9.107985449010371
 10
27.777920882471378
 20
9.157407298889114
 10
27.763293643673396
 20
9.206474446926128
 10
27.74654758584023
 20
9.254903992209712
 10
27.727783020198125
 20
9.302422044173648
 10
27.707128683580283
 20
9.348767374287396
 10
27.684739910257587
 20
9.393694886746761
 10
27.660796345615733
 20
9.436978877867643
 10
27.635499206231536
 20
9.47841605478161
 10
27.609068086427243
 20
9.517828285651984
 10
27.581737304672355
 20
9.555065055983244
 10
27.55375177327059
 20
9.590005608770271
 10
27.525362360238987
 20
9.622560750423352
 10
27.49682069117725
 20
9.65267430998281
 10
27.468373308331596
 20
9.680324246770002
 10
27.440255059624718
 20
9.70552341247778
 10
27.412681525519428
 20
9.72831998983102
 10
27.3858401959362
 20
9.7487976549596
 10
27.35987996688636
 20
9.767075550984378
 10
27.334898311154987
 20
9.783308227772809
 10
27.310925147252963
 20
9.797685819178081
 10
27.28790191663636
 20
9.810434935709313
 10
27.265653564942387
 20
9.821821128002721
 10
27.243849812929135
 20
9.832154485692122
 10
27.221949965445493
 20
9.84180130896052
 10
27.199121988530624
 20
9.851207530784112
 10
27.174120808380355
 20
9.86094522120237
 10
27.1451015785324
 20
9.871805556471248
 10
27.10933043951659
 20
9.884988116951138
 10
27.062742972728874
 20
9.902495750114362
 10
26.999321444749544
 20
9.92797607950077
 10
26.910463621818344
 20
9.968515091197878
 10
26.785456342535674
 20
10.0381928670321
 10
26.617274824030115
 20
10.1630647106971
 10
26.422015066192014
 20
10.37782125265858
 10
26.25984558810988
 20
10.686676734441447
 10
26.18988067333927
 20
11.017029531631614
 10
26.19813947512126
 20
11.284050744785983
 10
26.236663782308355
 20
11.468416797699609
 10
26.277003391647128
 20
11.59003793263878
 10
26.310384052057763
 20
11.671359945450716
 10
26.33616804537991
 20
11.727899682822235
 10
26.35591695682949
 20
11.769290892747106
 10
26.37137957965577
 20
11.801472318319718
 10
26.38397027128674
 20
11.82819913172177
 10
26.394709907039612
 20
11.851928058420416
 10
26.40428597532028
 20
11.874319986789141
 10
26.413128711826136
 20
11.896528269429142
 10
26.42147662253579
 20
11.91936820399516
 10
26.429427511346322
 20
11.94341966461661
 10
26.436977065386095
 20
11.969091246205565
 10
26.44404795932114
 20
11.996661694085018
 10
26.450512020826537
 20
12.026307607787091
 10
26.456207368183424
 20
12.058122675446505
 10
26.460951885900254
 20
12.092131589925904
 10
26.464553994821145
 20
12.128300579249263
 10
26.466821381520695
 20
12.166545760400464
 10
26.46756814851849
 20
12.206740085274385
 10
26.466620706355585
 20
12.248719373316789
 10
26.463822631674713
 20
12.29228775073245
 10
26.45903864858867
 20
12.337222702574554
 10
26.45215784446851
 20
12.383279868746062
 10
26.443096199451432
 20
12.430197664155854
 10
26.43179848709044
 20
12.477701768478164
 10
26.41823958863981
 20
12.525509506827063
 10
26.402425253403795
 20
12.573334125768444
 10
26.384392330896702
 20
12.620888957235616
 10
26.36420849621111
 20
12.667891454628242
 10
26.341971487181084
 20
12.714067079674857
 10
26.317807870053777
 20
12.759153014855176
 10
26.291871348950167
 20
12.802901673841022
 10
26.26434063296759
 20
12.84508398119057
 10
26.23541687292923
 20
12.885492392177328
 10
26.205320677065014
 20
12.923943623972416
 10
26.174288710781852
 20
12.960281070293416
 10
26.142569879473214
 20
12.994376872989703
 10
26.110421084126287
 20
13.026133625798531
 10
26.078102526051033
 20
13.05548568767653
 10
26.045872517574317
 20
13.082400085771036
 10
26.013981727363845
 20
13.106876991473577
 10
25.982666748203105
 20
13.128949757586955
 10
25.952142815483693
 20
13.148684511415972
 10
25.922595417047955
 20
13.16617930944602
 10
25.89417040453991
 20
13.181562877809903
 10
25.86696201945389
 20
13.194992995880398
 10
25.840997945057474
 20
13.206654641478316
 10
25.816220024414104
 20
13.21675813176972
 10
25.792458537211832
 20
13.225537717001323
 10
25.769396720116312
 20
13.233251523872717
 10
25.746520229544892
 20
13.24018463182411
 10
25.72304293407815
 20
13.246658899145869
 10
25.697794858772372
 20
13.253057057609688
 10
25.669048826798345
 20
13.259877154098913
 10
25.6342475874928
 20
13.267852779425588
 10
25.58957339158947
 20
13.278219455984594
 10
25.529292788014388
 20
13.293312667912502
 10
25.444900176835002
 20
13.317918062352764
 10
25.324661609572384
 20
13.36220882310631
 10
25.156498912451305
 20
13.447039660707766
 10
24.942584042833797
 20
13.607067672748839
 10
24.72792623651652
 20
13.86774004584827
 10
24.58756431308281
 20
14.187097492448078
 10
24.54140335523682
 20
14.473656232180417
 10
24.54863407823503
 20
14.683002159181765
 10
24.572098563250332
 20
14.82418016831146
 10
24.59580583405037
 20
14.918927672113227
 10
24.61542718626583
 20
14.984399344874117
 10
24.6307859779119
 20
15.031738723829145
 10
24.64278237748641
 20
15.06792491849704
 10
24.65238461933104
 20
15.097384374274062
 10
24.66035936725364
 20
15.123002434683839
 10
24.667238297704365
 20
15.146714749097965
 10
24.673350439135643
 20
15.169851435250104
 10
24.67886591179698
 20
15.193341038148288
 10
24.68383544858592
 20
15.2178346747126
 10
24.688222537403444
 20
15.243783905376716
 10
24.691928707011936
 20
15.271491161266157
 10
24.694813296836074
 20
15.301143514635585
 10
24.696709000357117
 20
15.332836120769711
 10
24.69743421233563
 20
15.366589132642728
 10
24.696802947784203
 20
15.40236042318618
 10
24.69463288801679
 20
15.44005557809123
 10
24.690751950042152
 20
15.47953609120263
 10
24.68500366071741
 20
15.520626363920274
 10
24.677251535562785
 20
15.563119899615932
 10
24.667382604807646
 20
15.606784947453448
 10
24.655310189158243
 20
15.651369759625574
 10
24.640975999919164
 20
15.696607565221637
 10
24.624351618885477
 20
15.742221322432261
 10
24.605439400314644
 20
15.787928282119383
 10
24.584272828487766
 20
15.833444375798202
 10
24.560916358584848
 20
15.878488427105223
 10
24.53546476488805
 20
15.922786176082756
 10
24.50804201798405
 20
15.966074098896934
 10
24.478799711113684
 20
16.008103001098142
 10
24.447915054664094
 20
16.048641359650112
 10
24.41558845661705
 20
16.087478387274714
 10
24.382040705171807
 20
16.124426791867837
 10
24.34750976733957
 20
16.15932520358581
 10
24.312247213577738
 20
16.192040242474437
 10
24.2765142728867
 20
16.222468200026643
 10
24.240577514419485
 20
16.250536308639948
 10
24.20470413942492
 20
16.276203573435442
 10
24.169156849642064
 20
16.29946114114265
 10
24.13418823271296
 20
16.32033218062331
 10
24.100034568231948
 20
16.3388712490475
 10
24.066908904291743
 20
16.355163116865505
 10
24.034993175434714
 20
16.369321024034665
 10
24.004429015554223
 20
16.381484340781093
 10
23.975306742314043
 20
16.391815611553458
 10
23.94765171845099
 20
16.40049697747631
 10
23.921406872359412
 20
16.407726015021083
 10
23.896409488254925
 20
16.41371112796502
 10
23.87235928734475
 20
16.418666853676584
 10
23.848773022919012
 20
16.42280994259295
 10
23.82491778765843
 20
16.426358177744387
 10
23.799710072527198
 20
16.429536396999225
 10
23.771558775204575
 20
16.43259991422886
 10
23.7381154675098
 20
16.43589903122493
 10
23.695872035662237
 20
16.44004089000307
 10
23.63951927795903
 20
16.446284725196797
 10
23.560998596704906
 20
16.457499325256812
 10
23.448490778631562
 20
16.48042603195811
 10
23.28716737288851
 20
16.53046464095807
 10
23.06857218740911
 20
16.63799163201909
 10
22.81859995103302
 20
16.839963779259307
 10
22.61264343391878
 20
17.12767131785838
 10
22.504145353542242
 20
17.419881518773085
 10
22.47125072381955
 20
17.649521601637254
 10
22.47206360718815
 20
17.809375857917495
 10
22.48271135771907
 20
17.917597545774928
 10
22.49417598220363
 20
17.992142452579994
 10
22.503936771590585
 20
18.045490161498382
 10
22.511718158253615
 20
18.085647987078126
 10
22.51786355576583
 20
18.11773069061861
 10
22.52278360102926
 20
18.14506889843522
 10
22.526793546762683
 20
18.169884747638253
 10
22.53008378968836
 20
18.193692642240464
 10
22.532732338953455
 20
18.217539070155627
 10
22.534727582549475
 20
18.242149359356336
 10
22.53599094126092
 20
18.26802002159554
 10
22.53639648770489
 20
18.29547865550318
 10
22.535787151833027
 20
18.32472408360019
 10
22.533987903364487
 20
18.35585418635742
 10
22.530816450396166
 20
18.388885925966665
 10
22.526091943536976
 20
18.423770323043424
 10
22.519642077501565
 20
18.460404119492832
 10
22.511308887920862
 20
18.498639233296863
 10
22.500953464122
 20
18.538290720238503
 10
22.488459739910592
 20
18.579143709124008
 10
22.47373748119657
 20
18.620959615961784
 10
22.45672455823012
 20
18.663481836192272
 10
22.437388568231626
 20
18.706441042684975
 10
22.415727858899775
 20
18.749560168635522
 10
22.391771992832087
 20
18.79255912104387
 10
22.365581685924436
 20
18.835159247232298
 10
22.337248248311962
 20
18.877087560677044
 10
22.306892553607565
 20
18.918080721167467
 10
22.27466356050087
 20
18.95788875654466
 10
22.24073640973508
 20
18.996278508024442
 10
22.20531011869425
 20
19.0330367776829
 10
22.168604894962723
 20
19.06797315456681
 10
22.130859088923568
 20
19.100922494698608
 10
22.0923258033803
 20
19.131747029659774
 10
22.053269174891817
 20
19.160338078182697
 10
22.013960336466795
 20
19.186617334997884
 10
21.974673063756235
 20
19.210537710801933
 10
21.935679095917045
 20
19.232083696336208
 10
21.8972431064719
 20
19.25127122185347
 10
21.859617276673927
 20
19.268146980293402
 10
21.823035390976003
 20
19.282787177801897
 10
21.787706326447452
 20
19.295295668255044
 10
21.753806738004997
 20
19.305801418595284
 10
21.72147263750958
 20
19.31445523858281
 10
21.690789408477066
 20
19.321425692044155
 10
21.66177955888323
 20
19.326894088354408
 10
21.63438714156239
 20
19.331048437913335
 10
21.60845717885721
 20
19.33407625790408
 10
21.583707466428855
 20
19.336156170050362
 10
21.559688537934655
 20
19.337448426366578
 10
21.53572487821424
 20
19.33808503968129
 10
21.51082583194654
 20
19.33816158932357
 10
21.48354655680692
 20
19.33773627586205
 10
21.451765246642964
 20
19.336850604985667
 10
21.412319047915002
 20
19.33560847883264
 10
21.360406098031127
 20
19.33440821491661
 10
21.288636320434275
 20
19.33457065279107
 10
21.185744678368877
 20
19.339967595802822
 10
21.035942537621235
 20
19.36092155904634
 10
20.823806680131675
 20
19.421369445888605
 10
20.556777455379915
 20
19.5608646281103
 10
20.297189494259477
 20
19.798824236767516
 10
20.123002177179895
 20
20.079212305111504
 10
20.041553992137903
 20
20.3212433010306
 10
20.0133101094113
 20
20.497399493023856
 10
20.00698860392991
 20
20.618513051567604
 10
20.007983133578655
 20
20.701980924779274
 10
20.010756177748647
 20
20.761246086334793
 10
20.013473596050442
 20
20.805258121531654
 10
20.015642351410666
 20
20.83980681208418
 10
20.017196751465935
 20
20.868670431789713
 10
20.018164514436066
 20
20.894361694669747
 10
20.01855384308181
 20
20.918582324250096
 10
20.018323200143964
 20
20.94249863266386
 10
20.017381033304805
 20
20.966911289792726
 10
20.01559532164335
 20
20.992362518271506
 10
20.01280535306389
 20
21.019205741194884
 10
20.00883300554094
 20
21.047652256558017
 10
20.003492686699165
 20
21.077803564081037
 10
19.996599792805778
 20
21.10967455149057
 10
19.987977790153295
 20
21.14321074796866
 10
19.97746408325973
 20
21.178301658946378
 10
19.964914829864888
 20
21.214791468598467
 10
19.950208838119426
 20
21.25248794313926
 10
19.933250654229916
 20
21.291170079998377
 10
19.913972925204053
 20
21.330594861421336
 10
19.892338102706045
 20
21.370503348096722
 10
19.868339540138397
 20
21.410626266088197
 10
19.84200202513226
 20
21.45068918446312
 10
19.813381782800974
 20
21.490417342643017
 10
19.78256598062453
 20
21.529540159950177
 10
19.749671763048294
 20
21.56779544137544
 10
19.71484484227932
 20
21.60493328078539
 10
19.67825767092553
 20
21.640719653962453
 10
19.640107221696766
 20
21.674939687883445
 10
19.600612399068158
 20
21.707400588680397
 10
19.560011107313446
 20
21.73793420819751
 10
19.51855699836903
 20
21.76639922750222
 10
19.476515921279745
 20
21.792682934752104
 10
19.43416209214334
 20
21.81670257412956
 10
19.391773999049533
 20
21.838406241807803
 10
19.349630049885974
 20
21.85777330375936
 10
19.308003961199322
 20
21.87481430826187
 10
19.267159872325934
 20
21.889570362707435
 10
19.22734714894132
 20
21.902111939158416
 10
19.18879481132399
 20
21.91253706520032
 10
19.151705480881493
 20
21.92096884494805
 10
19.116248677481067
 20
21.927552238148763
 10
19.08255320983035
 20
21.932450001363893
 10
19.050698265459957
 20
21.93583766195229
 10
19.02070259943227
 20
21.93789735055241
 10
18.992510897832485
 20
21.938810259123052
 10
18.9659758787068
 20
21.938747420559846
 10
18.940833859749954
 20
21.937858433322884
 10
18.91667013904579
 20
21.93625771812991
 10
18.892868188034196
 20
21.934008002804216
 10
18.868532585630852
 20
21.93110128308866
 10
18.842368432753346
 20
21.92743929692573
 10
18.81248715568578
 20
21.922820712853518
 10
18.776085934391205
 20
21.916956580081614
 10
18.72891042468236
 20
21.909575120320135
 10
18.664362628899717
 20
21.90078541503966
 10
18.572133106771503
 20
21.892157929025867
 10
18.43674584772725
 20
21.889644374642682
 10
18.23909633901987
 20
21.910172689430855
 10
17.97176428527203
 20
21.989401978731305
 10
17.67593588269508
 20
22.164922527968663
 10
17.43898798764989
 20
22.414276898312252
 10
17.30225816377213
 20
22.65727620388008
 10
17.23826338342151
 20
22.845402246968714
 10
17.210587418420157
 20
22.97795438323364
 10
17.198475595944647
 20
23.06979131492912
 10
17.19268168916006
 20
23.134676656135635
 10
17.1893805418339
 20
23.182311906642283
 10
17.186997614794347
 20
23.219105365621115
 10
17.184851191640227
 20
23.24926518832723
 10
17.18259929243001
 20
23.27558821984721
 10
17.18001795363841
 20
23.299960483875847
 10
17.176914831534802
 20
23.323666279036843
 10
17.17309847975694
 20
23.347580357453236
 10
17.168370552688003
 20
23.372289831773113
 10
17.162527218518843
 20
23.398173545464797
 10
17.155363954702242
 20
23.425455280978568
 10
17.146681243176467
 20
23.454240569202486
 10
17.13629012633941
 20
23.484543018212126
 10
17.124017213341993
 20
23.516303815293902
 10
17.10970899854598
 20
23.549406699802095
 10
17.093235468670674
 20
23.583689875790242
 10
17.074493020131598
 20
23.61895581702978
 10
17.053406722795888
 20
23.65497958901225
 10
17.029931968640525
 20
23.691516100285813
 10
17.00405554156792
 20
23.728306555783934
 10
16.975796141365908
 20
23.765084291439614
 10
16.94520439188581
 20
23.801580106138886
 10
16.912362361400124
 20
23.837527163764182
 10
16.877382621828158
 20
23.872665508191638
 10
16.840406872948563
 20
23.906746213395408
 10
16.801604157660297
 20
23.9395351764657
 10
16.761168694601025
 20
23.970816551470598
 10
16.719317354782408
 20
24.00039581537787
 10
16.676286809155865
 20
24.028102452776196
 10
16.632330373980647
 20
24.05379224321859
 10
16.58771458031396
 20
24.077349133131538
 10
16.542715492637107
 20
24.09868667296343
 10
16.497614799274338
 20
24.11774899920305
 10
16.45269569346991
 20
24.134511339706247
 10
16.40823855824567
 20
24.148980019021174
 10
16.364516459744667
 20
24.16119193762179
 10
16.32179044163637
 20
24.171213494549317
 10
16.280304595792277
 20
24.1791389161418
 10
16.240280859553657
 20
24.185087943249087
 10
16.201913454027757
 20
24.189202814137094
 10
16.16536282557439
 20
24.191644458163985
 10
16.130748875476687
 20
24.192587783447145
 10
16.09814314707552
 20
24.192215896215036
 10
16.06755946304625
 20
24.190713025003802
 10
16.03894223073362
 20
24.18825583231441
 10
16.012151197038694
 20
24.185002671521335
 10
15.986940725768726
 20
24.181080180531758
 10
15.962930493078279
 20
24.176566398016515
 10
15.939562493567413
 20
24.17146937896935
 10
15.916035759512775
 20
24.165700214490364
 10
15.891203977751793
 20
24.159039871547833
 10
15.863409915806312
 20
24.151101683933014
 10
15.830210026525604
 20
24.14129949690893
 10
15.78790614739871
 20
24.128856610780108
 10
15.730743947556881
 20
24.112965353516667
 10
15.649590091858652
 20
24.0934224097002
 10
15.530106435786955
 20
24.072635119679095
 10
15.35208199214621
 20
24.060972428933123
 10
15.09799529240691
 20
24.08652157466882
 10
14.785876813855717
 20
24.193949437199663
 10
14.496119593851601
 20
24.394077991800064
 10
14.300702254603388
 20
24.623371638148452
 10
14.19456525335427
 20
24.81673788655381
 10
14.140802537449506
 20
24.958121479402248
 10
14.112645362778203
 20
25.057232480382538
 10
14.09651671961971
 20
25.127166693985266
 10
14.086135172320844
 20
25.17804516167833
 10
14.078568550795913
 20
25.216778760919354
 10
14.072360009234258
 20
25.24796032759449
 10
14.066704449417605
 20
25.27465029550088
 10
14.06108926000457
 20
25.298908036796075
 10
14.055136191972792
 20
25.322129217746177
 10
14.048531620819261
 20
25.34525838747348
 10
14.040996527288257
 20
25.368924748945012
 10
14.032274661547612
 20
25.393530840015934
 10
14.022129083920099
 20
25.419312042500316
 10
14.010342492896804
 20
25.446377721943346
 10
13.996719142475667
 20
25.47474058654869
 10
13.981087277581953
 20
25.50433834753105
 10
13.963301560255891
 20
25.535050253137463
 10
13.943245227339162
 20
25.566710143279604
 10
13.920831854776889
 20
25.59911709430385
 10
13.896006672047038
 20
25.632044356463627
 10
13.868747405585683
 20
25.66524704930761
 10
13.839064648750618
 20
25.69846892413666
 10
13.807001766093215
 20
25.731448398531178
 10
13.772634345673627
 20
25.763923997536992
 10
13.736069216981644
 20
25.79563928798602
 10
13.697443054780484
 20
25.82634735930189
 10
13.656920591385251
 20
25.855814881237894
 10
13.614692461744808
 20
25.88382575316338
 10
13.570972707282262
 20
25.910184348629144
 10
13.525995965748017
 20
25.93471835153788
 10
13.480014375283098
 20
25.957281175288017
 10
13.433294221375915
 20
25.977753952990856
 10
13.386112355288203
 20
25.996047084700376
 10
13.338752411650947
 20
26.01210132606715
 10
13.291500851062354
 20
26.025888401507984
 10
13.244642850353603
 20
26.03741112345536
 10
13.198458058305247
 20
26.046702997063782
 10
13.153216227406782
 20
26.053827286371988
 10
13.109172721898455
 20
26.058875512678874
 10
13.066563887557804
 20
26.06196534789797
 10
13.025602247603645
 20
26.063237853694947
 10
12.98647145880232
 20
26.062853999581076
 10
12.94932091790051
 20
26.060990367408547
 10
12.91425984381196
 20
26.057833912398838
 10
12.88135056420247
 20
26.053575596871777
 10
12.850600587665722
 20
26.048402634885015
 10
12.821952813522936
 20
26.04248897346029
 10
12.795272867469476
 20
26.035983474050088
 10
12.770331960506239
 20
26.028995026455657
 10
12.746782686106055
 20
26.02157350324442
 10
12.724123495581832
 20
26.013685029227883
 10
12.701644662532615
 20
26.005179524619365
 10
12.678343295349803
 20
25.995748070655946
 10
12.652785326547487
 20
25.98486805766338
 10
12.622874482961565
 20
25.9717376649416
 10
12.585455019339078
 20
25.955215417034676
 10
12.535616828834122
 20
25.93382836900345
 10
12.46549203742664
 20
25.90606338430682
 10
12.362353040623661
 20
25.871601004055915
 10
12.206687547861375
 20
25.83523758296615
 10
11.975485277593299
 20
25.816207749930946
 10
11.666458302319436
 20
25.856962670089082
 10
11.340134555851447
 20
25.993734477124157
 10
11.08760221652209
 20
26.192496356800678
 10
10.934129146792548
 20
26.38168389811669
 10
10.849447275276773
 20
26.52782795125529
 10
10.80206004422421
 20
26.632413291245953
 10
10.77365412227419
 20
26.706469811804826
 10
10.755027164789631
 20
26.760020304179324
 10
10.741589103150268
 20
26.800282954710234
 10
10.730930865842415
 20
26.832153646262356
 10
10.721679904413483
 20
26.858917435071184
 10
10.712972125437002
 20
26.88278591983804
 10
10.704204562718946
 20
26.905253497945456
 10
10.694916912103178
 20
26.927326481463073
 10
10.684733763613483
 20
26.949670940910217
 10
10.67333626868949
 20
26.972709775483093
 10
10.660448450545038
 20
26.996687996302622
 10
10.645830922852397
 20
27.0217178653256
 10
10.629278363167774
 20
27.04781105835241
 10
10.61061884076477
 20
27.07490231832987
 10
10.589713984094317
 20
27.102867422504062
 10
10.566459433739073
 20
27.131537275246167
 10
10.540785273148135
 20
27.160709305231574
 10
10.512656264903967
 20
27.190156942728276
 10
10.482071796854646
 20
27.219637692052235
 10
10.449065487068209
 20
27.248900142904205
 10
10.413704423481459
 20
27.277690150064213
 10
10.376088031017554
 20
27.30575633379534
 10
10.336346570060151
 20
27.33285500070465
 10
10.294639277848667
 20
27.358754548662038
 10
10.251152169916521
 20
27.383239394438686
 10
10.206095522870053
 20
27.406113445521513
 10
10.159701063005622
 20
27.42720312574633
 10
10.112218887695471
 20
27.44635995635986
 10
10.063914148230836
 20
27.46346268873164
 10
10.015063523905726
 20
27.478418981361504
 10
9.96595151751204
 20
27.491166611433883
 10
9.916866601999507
 20
27.501674209437653
 10
9.868097246679993
 20
27.50994150384576
 10
9.819927848801806
 20
27.515999061082486
 10
9.772634592263373
 20
27.51990750351879
 10
9.726481249211963
 20
27.521756184458052
 10
9.681714931599629
 20
27.52166129328857
 10
9.638561787433082
 20
27.519763355230435
 10
9.597222618932298
 20
27.516224077078775
 10
9.55786837476999
 20
27.511222471185075
 10
9.520635432372856
 20
27.504950161948326
 10
9.48562053318972
 20
27.497605738398924
 10
9.452875154641289
 20
27.489387957273006
 10
9.422398982029344
 20
27.480487514680647
 10
9.394131956689368
 20
27.471076978180132
 10
9.367944079875468
 20
27.461298285523647
 10
9.343621669702399
 20
27.451246943139402
 10
9.320847965712618
 20
27.44095165612897
 10
9.299174604328922
 20
27.430347539507387
 10
9.277978082623575
 20
27.419240245211608
 10
9.256390991467326
 20
27.407257297559536
 10
9.233189777673678
 20
27.393781938488644
 10
9.206605631782313
 20
27.37786509928145
 10
9.173996150602367
 20
27.35811728865675
 10
9.131261321375284
 20
27.33260957116563
 10
9.07179732176393
 20
27.298911349445593
 10
8.98470069973801
 20
27.254715166384983
 10
8.852283657171606
 20
27.200423922552954
 10
8.64979545687118
 20
27.146790637680464
 10
8.360149563574238
 20
27.128028925538977
 10
8.017565608626581
 20
27.19380796521875
 10
7.715662980614578
 20
27.345078792246465
 10
7.512046668370322
 20
27.518020786768776
 10
7.391922996558909
 20
27.663090656768517
 10
7.321987099363663
 20
27.77045897066508
 10
7.2792194908749615
 20
27.847260467534557
 10
7.251091001074987
 20
27.902671154908475
 10
7.2310432949448975
 20
27.943918472898975
 10
7.215523630923707
 20
27.976072428879892
 10
7.202477934610192
 20
28.00258012357539
 10
7.190621966039611
 20
28.025771452722893
 10
7.179085832402673
 20
28.047219463364836
 10
7.167236053895094
 20
28.067979630899117
 10
7.154583911188167
 20
28.088746756581784
 10
7.1407370201640585
 20
28.109958852184747
 10
7.125373239425452
 20
28.13186730052994
 10
7.108226425546069
 20
28.15458544110306
 10
7.089078593314461
 20
28.178123172752613
 10
7.067755562796546
 20
28.20241234485091
 10
7.04412448118317
 20
28.227325969521246
 10
7.018092304818479
 20
28.252693207665533
 10
6.989604710625816
 20
28.278311402388184
 10
6.958645123630325
 20
28.303955999988617
 10
6.9252336741007605
 20
28.329388917861564
 10
6.889425973968784
 20
28.354365733987958
 10
6.8513116492890305
 20
28.37864194962026
 10
6.811012595585372
 20
28.40197849374487
 10
6.768680942789793
 20
28.424146581351273
 10
6.724496730042754
 20
28.444931998738973
 10
6.678665300187583
 20
28.464138862373154
 10
6.631414430719345
 20
28.481592879399063
 10
6.582991223053967
 20
28.497144125311003
 10
6.53365877574892
 20
28.51066934570307
 10
6.4836926700107815
 20
28.52207378327849
 10
6.4333772976153965
 20
28.531292527470256
 10
6.383002062300709
 20
28.53829138144842
 10
6.332857485758682
 20
28.54306723940967
 10
6.283231248477404
 20
28.545647965379892
 10
6.234404193724247
 20
28.546091762843865
 10
6.186646319688823
 20
28.54448602184754
 10
6.140212779873032
 20
28.54094562621067
 10
6.095339904705283
 20
28.535610697401477
 10
6.052241247283018
 20
28.52864374247473
 10
6.011103641921998
 20
28.520226159902514
 10
5.972083243980905
 20
28.510554037201775
 10
5.935301490376171
 20
28.499833145191584
 10
5.900840877770713
 20
28.488272991377393
 10
5.868740392295264
 20
28.47607973321262
 10
5.83899032881921
 20
28.46344766153536
 10
5.811526089072256
 20
28.45054883114271
 10
5.786220311805553
 20
28.43752021746964
 10
5.762872304180512
 20
28.42444748220042
 10
5.741193103095824
 20
28.41134398529188
 10
5.720783398262702
 20
28.39812301056151
 10
5.701099617621354
 20
28.384560172127266
 10
5.681399977304545
 20
28.370241523057793
 10
5.6606557781180005
 20
28.35449096946488
 10
5.6374007541895494
 20
28.336268677280273
 10
5.609466941417725
 20
28.314032693816923
 10
5.57350804176337
 20
28.28556851811946
 10
5.524123351927613
 20
28.247849708176634
 10
5.452268147493097
 20
28.19721012037313
 10
5.342672715875177
 20
28.13081866072676
 10
5.171501569646183
 20
28.052234932068416
 10
4.913012892083225
 20
27.98476538595272
 10
4.575374071056251
 20
27.979465721270167
 10
4.238176137313715
 20
28.06884246169255
 10
3.9853546065536256
 20
28.21141882344427
 10
3.826189652146957
 20
28.347597080871278
 10
3.730442107090105
 20
28.453965402915237
 10
3.6711467673063485
 20
28.531574595962077
 10
3.632192665337061
 20
28.587736107129764
 10
3.6047572984697327
 20
28.629259713976108
 10
3.5839454250413825
 20
28.661200600183236
 10
3.5668999949236393
 20
28.687075605404917
 10
3.551843162777645
 20
28.70928311380445
 10
3.5375930718302246
 20
28.729445664412207
 10
3.523314940046417
 20
28.748649816873144
 10
3.508388869946721
 20
28.7676075148972
 10
3.492337429268477
 20
28.786764387820366
 10
3.4747848089270206
 20
28.80637343265944
 10
3.4554331629347113
 20
28.826546224223282
 10
3.4340485318791227
 20
28.847289427288747
 10
3.4104522064547185
 20
28.86853156470188
 10
3.384515201417064
 20
28.89014321694298
 10
3.3561544932915934
 20
28.91195270929608
 10
3.325330224315918
 20
28.933758632913868
 10
3.292043390972595
 20
28.955340090720895
 10
3.2563337223666364
 20
28.97646526315152
 10
3.2182775673817487
 20
28.99689869380077
 10
3.1779856806178275
 20
29.01640756506247
 10
3.135600842780528
 20
29.03476714614543
 10
3.091295281359284
 20
29.051765536170283
 10
3.045267877901644
 20
29.06720778414688
 10
2.9977411624409185
 20
29.080919439503774
 10
2.9489581057694823
 20
29.092749567502793
 10
2.899178727567861
 20
29.1025732506377
 10
2.8486765437037516
 20
29.11029358813935
 10
2.797734879803385
 20
29.11584319969234
 10
2.746643080772413
 20
29.11918523546687
 10
2.695692647478678
 20
29.12031389187061
 10
2.6451733323851636
 20
29.119254430454795
 10
2.5953692255458933
 20
29.116062695667647
 10
2.546554860989634
 20
29.110824125158484
 10
2.498991370978339
 20
29.103652243589735
 10
2.45292271170554
 20
29.094686626821513
 10
2.40857197832216
 20
29.084090317151848
 10
2.3661378191688356
 20
29.072046661040307
 10
2.3257909478663747
 20
29.05875552705315
 10
2.287670736088159
 20
29.044428841709994
 10
2.251881847238482
 20
29.02928535167553
 10
2.2184908384236466
 20
29.01354447816718
 10
2.1875226094116926
 20
28.997419067296473
 10
2.1589565034602307
 20
28.98110674881489
 10
2.1327217503443
 20
28.964779480721507
 10
2.1086917598062236
 20
28.94857065553606
 10
2.08667647677632
 20
28.932558839795565
 10
2.066411512988332
 20
28.91674675480684
 10
2.0475419156084023
 20
28.901033395017556
 10
2.0295969229255353
 20
28.885176084623247
 10
2.011949305071024
 20
28.868737599106364
 10
1.993747719886925
 20
28.851011001109136
 10
1.9738005188799637
 20
28.83091150234049
 10
1.9503696040599756
 20
28.806821437309043
 10
1.92079301951882
 20
28.776376599072034
 10
1.880776022858463
 20
28.736211206543555
 10
1.8230512514713024
 20
28.681813454683585
 10
1.7349789531848143
 20
28.608145868308522
 10
1.5952736950478186
 20
28.513216713250312
 10
1.3749138393394305
 20
28.409354097677678
 10
1.061150515917078
 20
28.3398455075997
 10
0.7077999164498423
 20
28.358204934734715
 10
0.41169333524039353
 20
28.455567799978407
 10
0.2116440226525942
 20
28.573027992620883
 10
0.08717175697661483
 20
28.673331029004466
 10
0.009199398192610064
 20
28.749130894306056
 10
-0.04193408035697066
 20
28.804572287836223
 10
-0.07755724606605152
 20
28.845465332735834
 10
-0.1041022831430356
 20
28.87658706052004
 10
-0.1253539581364398
 20
28.901394964240918
 10
-0.14366023163528596
 20
28.922286704297786
 10
-0.16056188353559975
 20
28.940894235017716
 10
-0.17712421215709517
 20
28.95831063001018
 10
-0.19411675678906193
 20
28.975249353824363
 10
-0.212113841644479
 20
28.992153562420363
 10
-0.23155264858271019
 20
29.0092713901081
 10
-0.2527678189652668
 20
29.02670863729998
 10
-0.27601273007178434
 20
29.044466465501436
 10
-0.3014730375309958
 20
29.06246905800389
 10
-0.32927566006101533
 20
29.08058446901212
 10
-0.35949506178805324
 20
29.098640766631814
 10
-0.39215794287096173
 20
29.11643885679721
 10
-0.4272470172992203
 20
29.133762910363355
 10
-0.4647042992493856
 20
29.150389011759756
 10
-0.5044341617460415
 20
29.166092446783562
 10
-0.5463063323482744
 20
29.180653912896734
 10
-0.5901589267982983
 20
29.19386484477886
 10
-0.6358015794690467
 20
29.2055319861975
 10
-0.6830187010031207
 20
29.215481297004494
 10
-0.7315728738970073
 20
29.2235612550402
 10
-0.7812083829727043
 20
29.229645592800683
 10
-0.8316548678335718
 20
29.233635495110644
 10
-0.8826310773473824
 20
29.235461274830296
 10
-0.9338487011866714
 20
29.235083537460945
 10
-0.985016250006277
 20
29.23249384142534
 10
-1.0358429536479503
 20
29.227714858048564
 10
-1.0860426456507104
 20
29.220800033265242
 10
-1.1353376022206503
 20
29.21183275132285
 10
-1.1834623046540647
 20
29.20092499875752
 10
-1.2301670960636042
 20
29.18821552418466
 10
-1.275221706258496
 20
29.173867485389415
 10
-1.3184186230124513
 20
29.158065569094443
 10
-1.3595762941056855
 20
29.141012559663032
 10
-1.3985421530691413
 20
29.122925319537934
 10
-1.4351954734735122
 20
29.10403012453382
 10
-1.4694500734606195
 20
29.084557268450883
 10
-1.5012569165378031
 20
29.0647348097905
 10
-1.5306066905818323
 20
29.044781272501485
 10
-1.5575325014028587
 20
29.024897023286233
 10
-1.582112901755882
 20
29.005253915492318
 10
-1.604475611525067
 20
28.985982591110158
 10
-1.6248025056472137
 20
28.967156531451167
 10
-1.6433368179484806
 20
28.94877148515513
 10
-1.6603941520432262
 20
28.930718184808583
 10
-1.6763800356823713
 20
28.912745138971214
 10
-1.691818857464861
 20
28.894406517276096
 10
-1.707403007809087
 20
28.87498738694187
 10
-1.724078834206601
 20
28.853394412212957
 10
-1.7432017116092824
 20
28.82799457661347
 10
-1.7668248809066247
 20
28.796379843595226
 10
-1.7982536716267998
 20
28.75504431271705
 10
-1.843128395084305
 20
28.699033719460257
 10
-1.9114997845642543
 20
28.62195473333973
 10
-2.021282359763289
 20
28.51789928595296
 10
-2.200806964498513
 20
28.38973343499735
 10
-2.476358688043014
 20
28.267935403871046
 10
-2.8242534480909143
 20
28.213346752649475
 10
-3.152073683042893
 20
28.25198072548536
 10
-3.392083248139102
 20
28.339205827918914
 10
-3.5474174777160448
 20
28.426955460458192
 10
-3.6460492649393217
 20
28.49752617707509
 10
-3.710686996897217
 20
28.550345099395045
 10
-3.755293401254779
 20
28.58946437646479
 10
-3.788009113380629
 20
28.61902999474846
 10
-3.8136681704828135
 20
28.64226635219392
 10
-3.8352655044841093
 20
28.661477803624617
 10
-3.8547483522855903
 20
28.6782526715848
 10
-3.8734420605765134
 20
28.693658376515017
 10
-3.892284386958424
 20
28.708389626999086
 10
-3.9119584022883314
 20
28.722874054058618
 10
-3.932970346990511
 20
28.737346509864388
 10
-3.955696740719715
 20
28.751901700335612
 10
-3.98041384016712
 20
28.766532106210192
 10
-4.0073167159627125
 20
28.781155909566582
 10
-4.036532106344648
 20
28.795638063740434
 10
-4.068127491278871
 20
28.809806587122022
 10
-4.102117859257606
 20
28.82346546520774
 10
-4.138471072745501
 20
28.83640508801202
 10
-4.177112399199058
 20
28.84841084812672
 10
-4.217928566317811
 20
28.859270323922185
 10
-4.260771569074324
 20
28.868779337617003
 10
-4.305462371567324
 20
28.87674708672017
 10
-4.3517945910417435
 20
28.883000485159293
 10
-4.3995382139194295
 20
28.887387807796987
 10
-4.448443367945224
 20
28.889781702778325
 10
-4.49824415659192
 20
28.89008161609027
 10
-4.548662549179773
 20
28.888215659033897
 10
-4.59941231115091
 20
28.884141940074464
 10
-4.650202952562031
 20
28.87784937637703
 10
-4.700743668443046
 20
28.86935799626869
 10
-4.750747241770535
 20
28.858718741149193
 10
-4.799933878134069
 20
28.84601277340925
 10
-4.848034940547538
 20
28.83135029520504
 10
-4.894796553175796
 20
28.81486888100512
 10
-4.939983043974836
 20
28.796731324179373
 10
-4.983380198414936
 20
28.777122993977166
 10
-5.0247982996851075
 20
28.756248693344332
 10
-5.064074935285439
 20
28.734328999237835
 10
-5.101077556086766
 20
28.711596054146383
 10
-5.135705782410453
 20
28.68828875861792
 10
-5.16789346350093
 20
28.664647287116175
 10
-5.1976105136496065
 20
28.6409068095968
 10
-5.224864573042064
 20
28.61729024295294
 10
-5.249702578966406
 20
28.59399977094368
 10
-5.2722123916200525
 20
28.57120674439166
 10
-5.292524712879926
 20
28.54903938319079
 10
-5.310815691985584
 20
28.52756741251957
 10
-5.327310876635545
 20
28.506782319975894
 10
-5.342291630843911
 20
28.48657122354639
 10
-5.356105974745583
 20
28.466681236367812
 10
-5.369187350197437
 20
28.446669447160136
 10
-5.382087785133678
 20
28.425830796956863
 10
-5.3955378115565376
 20
28.403091627497993
 10
-5.410557528642595
 20
28.376849864282164
 10
-5.428668555276519
 20
28.344734016493753
 10
-5.452310946849378
 20
28.30324845291779
 10
-5.485683770942426
 20
28.247302662447282
 10
-5.536442697239533
 20
28.16981556888918
 10
-5.61889009660556
 20
28.062398371918995
 10
-5.758172232410421
 20
27.92066895843699
 10
-5.986794994340813
 20
27.761058996431444
 10
-6.308468477661551
 20
27.639206310354695
 10
-6.65115617081971
 20
27.609422893261982
 10
-6.926390328928232
 20
27.654030801242328
 10
-7.113373285007875
 20
27.721292336580394
 10
-7.234262400143129
 20
27.78229930101042
 10
-7.3136150023913205
 20
27.830089287235133
 10
-7.367956846690364
 20
27.866014777036842
 10
-7.407257816904006
 20
27.893133929028863
 10
-7.437509832190289
 20
27.914211228097326
 10
-7.462428004034647
 20
27.93133742878387
 10
-7.4844122149833545
 20
27.94598896479269
 10
-7.505076656711664
 20
27.959166650928566
 10
-7.525545358670988
 20
27.971520853901858
 10
-7.546621594464937
 20
27.983447293947222
 10
-7.5688880537148675
 20
27.99515695696565
 10
-7.5927680152255395
 20
28.006726685870607
 10
-7.618563956884243
 20
28.01813610457142
 10
-7.646482783538426
 20
28.029295020998553
 10
-7.676652947547872
 20
28.04006418664619
 10
-7.709136574707675
 20
28.050271369962612
 10
-7.7439384779847975
 20
28.059724068080143
 10
-7.781013222169192
 20
28.06821975440018
 10
-7.820270970815104
 20
28.0755542727896
 10
-7.861582581216032
 20
28.081528796139413
 10
-7.904784245806261
 20
28.08595563647212
 10
-7.9496818705573435
 20
28.088663104941784
 10
-7.996055309979439
 20
28.089499559304954
 10
-8.043662530711508
 20
28.088336734733158
 10
-8.092243743145213
 20
28.08507242518748
 10
-8.141525517955202
 20
28.079632562946298
 10
-8.191224888570733
 20
28.07197273051911
 10
-8.241053429443228
 20
28.062079130189346
 10
-8.290721292087843
 20
28.04996903046511
 10
-8.339941175409814
 20
28.03569070480412
 10
-8.388432203167714
 20
28.019322875387164
 10
-8.435923679171395
 20
28.00097367286284
 10
-8.482158689687383
 20
27.980779121383154
 10
-8.526897522345845
 20
27.95890115643699
 10
-8.569920871497501
 20
27.935525180494945
 10
-8.611032801400421
 20
27.91085715777176
 10
-8.650063440830728
 20
27.885120243832333
 10
-8.686871385785263
 20
27.85855093745329
 10
-8.721345791059113
 20
27.831394729918788
 10
-8.753408136977216
 20
27.8039012090994
 10
-8.783013665036817
 20
27.776318549794425
 10
-8.810152486712525
 20
27.7488872842883
 10
-8.83485038497393
 20
27.72183319241
 10
-8.85716935126648
 20
27.695359070184924
 10
-8.877207937260792
 20
27.669635017315425
 10
-8.895101560329277
 20
27.64478670541778
 10
-8.911023002230563
 20
27.620880817671626
 10
-8.925183514995046
 20
27.597906431502782
 10
-8.937835259786578
 20
27.57575045824618
 10
-8.949276377733893
 20
27.55416420506134
 10
-8.959861077160946
 20
27.53271642796566
 10
-8.970019241497853
 20
27.51072547138421
 10
-8.9802943383913
 20
27.487158546736143
 10
-8.991417327575533
 20
27.46047889505842
 10
-9.004453461552423
 20
27.428410612758874
 10
-9.02110125865883
 20
27.387578095619947
 10
-9.044317022087464
 20
27.332978851334
 10
-9.079636334761007
 20
27.257345385857594
 10
-9.137881018036811
 20
27.150968638563917
 10
-9.239759184332916
 20
27.004511955134358
 10
-9.418154776894625
 20
26.82178860581421
 10
-9.69674795026382
 20
26.644744729746325
 10
-10.033875426478762
 20
26.542981525728763
 10
-10.334985136051442
 20
26.533160347813606
 10
-10.552340294580189
 20
26.570740982686726
 10
-10.696398943660368
 20
26.616858827100536
 10
-10.791442755742397
 20
26.656639359848388
 10
-10.856175570165785
 20
26.687632747839892
 10
-10.902426746856314
 20
26.711238333065737
 10
-10.937427605527569
 20
26.729472514257687
 10
-10.965677298374974
 20
26.744059869832494
 10
-10.990070539419733
 20
26.756279097918423
 10
-11.012537018592415
 20
26.767013420368976
 10
-11.034403746126879
 20
26.77683729387396
 10
-11.056604741942907
 20
26.786094433668357
 10
-11.079805902389449
 20
26.794958995347088
 10
-11.10448171339165
 20
26.803481612971513
 10
-11.130963933334545
 20
26.81162379780317
 10
-11.159473552919195
 20
26.819283844983286
 10
-11.190142553455363
 20
26.826316637560286
 10
-11.223029323147195
 20
26.832549055587045
 10
-11.258130071208415
 20
26.837792181784494
 10
-11.295387689089283
 20
26.841851127918925
 10
-11.334698972868683
 20
26.844533051094416
 10
-11.375920791318016
 20
26.845653753837944
 10
-11.418875576530958
 20
26.845043141511944
 10
-11.463356380356636
 20
26.84254972788639
 10
-11.509131652068605
 20
26.8380443227618
 10
-11.555949833931164
 20
26.831422996295924
 10
-11.603543831322929
 20
26.822609387681993
 10
-11.651635386460917
 20
26.811556407326407
 10
-11.699939365493922
 20
26.79824736911
 10
-11.748167955199031
 20
26.782696580898076
 10
-11.796034756014977
 20
26.764949415917705
 10
-11.843258751547424
 20
26.745081884019775
 10
-11.889568130216775
 20
26.723199719489696
 10
-11.934703931860824
 20
26.69943700041275
 10
-11.978423490482617
 20
26.673954313168736
 10
-12.020503643684735
 20
26.646936473993975
 10
-12.060743679464434
 20
26.618589817264883
 10
-12.098967991824017
 20
26.58913905672912
 10
-12.135028417985316
 20
26.55882372072948
 10
-12.168806231839286
 20
26.52789415473773
 10
-12.200213770619184
 20
26.49660707315288
 10
-12.229195674749594
 20
26.465220625782628
 10
-12.255729724622123
 20
26.433988920480164
 10
-12.279827263147538
 20
26.403155908736085
 10
-12.301533200229127
 20
26.37294849061434
 10
-12.320925606465972
 20
26.34356862157419
 10
-12.338114921547662
 20
26.31518409440593
 10
-12.353242833786862
 20
26.287917505620197
 10
-12.366480942132336
 20
26.261832666302777
 10
-12.378029412162732
 20
26.23691733198937
 10
-12.388116024960517
 20
26.21306051991825
 10
-12.396996376895792
 20
26.190021711766448
 10
-12.404956693771258
 20
26.167387660145828
 10
-12.412322145657916
 20
26.144509905395736
 10
-12.419476502831715
 20
26.120411747584775
 10
-12.426905299048936
 20
26.09364614580223
 10
-12.435288650582688
 20
26.062074240663147
 10
-12.445701690967558
 20
26.022517072872265
 10
-12.460054227022622
 20
25.970217400166934
 10
-12.48206878017659
 20
25.898080445735943
 10
-12.519431119016245
 20
25.79595618833099
 10
-12.588056898836628
 20
25.651579783145362
 10
-12.717331033942333
 20
25.45895366260317
 10
-12.941869681169946
 20
25.242756921496362
 10
-13.252261713851148
 20
25.072902569898936
 10
-13.56511134710815
 20
24.99939084164653
 10
-13.808713016836053
 20
24.99735726667023
 10
-13.975771321847683
 20
25.022269640259097
 10
-14.087084888556578
 20
25.050428704063325
 10
-14.162695410459792
 20
25.07439354532387
 10
-14.216176589331114
 20
25.09321858941986
 10
-14.25603369147268
 20
25.10781564176869
 10
-14.287596503763398
 20
25.119353747454724
 10
-14.314289156552594
 20
25.12880800394789
 10
-14.338379500770808
 20
25.136881745039663
 10
-14.361411846611855
 20
25.144035294304615
 10
-14.384459955480088
 20
25.150536196774866
 10
-14.408278646568734
 20
25.156506233288322
 10
-14.433397354609019
 20
25.16195979133837
 10
-14.460179705720577
 20
25.16683386552041
 10
-14.48886272476954
 20
25.17101129025214
 10
-14.519583556714036
 20
25.174338817725417
 10
-14.552398378589963
 20
25.17664133997839
 10
-14.587296342387194
 20
25.17773322215747
 10
-14.624210310852007
 20
25.177427443384595
 10
-14.663025499601828
 20
25.175543039544078
 10
-14.703586739457693
 20
25.17191119699621
 10
-14.745704821329932
 20
25.166380243555356
 10
-14.789162224209011
 20
25.15881971112782
 10
-14.833718420716403
 20
25.14912359422185
 10
-14.87911488383409
 20
25.137212893670153
 10
-14.925079870374613
 20
25.123037510796294
 10
-14.97133302370639
 20
25.106577540721045
 10
-15.017589815285977
 20
25.087844002300034
 10
-15.063565828493536
 20
25.066879034722
 10
-15.108980877036695
 20
25.043755585932516
 10
-15.15356294239061
 20
25.018576614942447
 10
-15.197051909432721
 20
24.9914738280943
 10
-15.239203075952902
 20
24.962605967987052
 10
-15.279790409605628
 20
24.932156672569295
 10
-15.318609524777257
 20
24.900331920504694
 10
-15.355480351505289
 20
24.867357076888645
 10
-15.390249468798533
 20
24.833473550297224
 10
-15.422792075291055
 20
24.798935067427223
 10
-15.453013570964647
 20
24.764003564521
 10
-15.480850724559003
 20
24.72894468438106
 10
-15.50627240213936
 20
24.694022852680362
 10
-15.529279833032732
 20
24.659495885453907
 10
-15.549906389977204
 20
24.625609048131437
 10
-15.568216861025938
 20
24.592588440737224
 10
-15.584306192028237
 20
24.560633517016825
 10
-15.598297681610912
 20
24.529908446436405
 10
-15.61034061820754
 20
24.500531880034895
 10
-15.620607366532887
 20
24.472564456170286
 10
-15.629289950882464
 20
24.445993034471357
 10
-15.636596269664928
 20
24.42071009899698
 10
-15.642746262347309
 20
24.396485893787148
 10
-15.647968749923521
 20
24.3729294189552
 10
-15.652500532676205
 20
24.34943202624747
 10
-15.656591218136766
 20
24.32508331310934
 10
-15.660521478368667
 20
24.29854212477691
 10
-15.664652136229488
 20
24.267833815661003
 10
-15.66954435513288
 20
24.23002613811403
 10
-15.676246348759687
 20
24.180710901501996
 10
-15.686975215451186
 20
24.113209576949153
 10
-15.70672510373899
 20
24.017558826413296
 10
-15.746839175721197
 20
23.880180976860107
 10
-15.83115631298376
 20
23.688429520878724
 10
-15.997079076387447
 20
23.45027750654599
 10
-16.262104802685858
 20
23.223447145595923
 10
-16.568606307354976
 20
23.081725984346797
 10
-16.83077049748971
 20
23.030359910987965
 10
-17.019086573349295
 20
23.026893027077953
 10
-17.146634820058225
 20
23.03915798965334
 10
-17.233345815954046
 20
23.053605876972618
 10
-17.294205462340134
 20
23.06616213658433
 10
-17.33895345443524
 20
23.076205490901664
 10
-17.373768781752506
 20
23.08411939261609
 10
-17.40262719060272
 20
23.090447133840893
 10
-17.428150977345425
 20
23.095637321572273
 10
-17.452112368977122
 20
23.099990625014367
 10
-17.475731537590487
 20
23.10366984785937
 10
-17.499856412199005
 20
23.106726095447485
 10
-17.525074091691497
 20
23.109125685395025
 10
-17.551781966948315
 20
23.110773492041627
 10
-17.580234588059675
 20
23.111532102091235
 10
-17.610575605813285
 20
23.111237259673935
 10
-17.64286033731546
 20
23.109710294212285
 10
-17.677072331817957
 20
23.106768161551464
 10
-17.713136033705993
 20
23.10223160079667
 10
-17.75092686932278
 20
23.095931785948675
 10
-17.790279609843466
 20
23.087715751228036
 10
-17.830995563774565
 20
23.077450793036228
 10
-17.872848960814302
 20
23.06502799589598
 10
-17.91559276321338
 20
23.0503649898028
 10
-17.95896405711079
 20
23.033408018175937
 10
-18.002689119721442
 20
23.014133375864752
 10
-18.046488219462326
 20
22.992548263079655
 10
-18.090080179250304
 20
22.968691091933966
 10
-18.133186714499097
 20
22.94263127622683
 10
-18.175536544297305
 20
22.914468531224248
 10
-18.216869265202572
 20
22.88433170779631
 10
-18.256938970905203
 20
22.85237718379811
 10
-18.29551759690839
 20
22.818786834596803
 10
-18.332397966774657
 20
22.783765603771133
 10
-18.36739651497703
 20
22.747538693889517
 10
-18.400355660637675
 20
22.710348395550408
 10
-18.43114580616024
 20
22.672450570141077
 10
-18.459666934716164
 20
22.6341107975488
 10
-18.48584978048622
 20
22.595600193704257
 10
-18.509656545233636
 20
22.557190893483074
 10
-18.531081133911556
 20
22.519151180911408
 10
-18.5501488802658
 20
22.48174022903673
 10
-18.566915730416813
 20
22.44520238360172
 10
-18.58146684779014
 20
22.409760883817974
 10
-18.59391459612134
 20
22.375610853966833
 10
-18.604395848342914
 20
22.342911311702448
 10
-18.613068558198812
 20
22.311775807604327
 10
-18.620107519908853
 20
22.28226111112239
 10
-18.625699233620235
 20
22.25435305000944
 10
-18.630035802272726
 20
22.22794812547252
 10
-18.633307836647955
 20
22.202828746858593
 10
-18.63569650519723
 20
22.178628654157155
 10
-18.63736528760962
 20
22.154782963309746
 10
-18.638453041818504
 20
22.13045363264556
 10
-18.639072559793796
 20
22.104414855104128
 10
-18.63932506834252
 20
22.074871931927724
 10
-18.63935672381749
 20
22.03916848875365
 10
-18.639522542355273
 20
21.993307565663283
 10
-18.640823639741292
 20
21.93117976706017
 10
-18.646033002912695
 20
21.843427839488267
 10
-18.662457703538244
 20
21.716348282694664
 10
-18.707741934509677
 20
21.53352513827217
 10
-18.816157173605067
 20
21.28936397835275
 10
-19.022528090531658
 20
21.02208303148763
 10
-19.302645112890485
 20
20.814176557241332
 10
-19.571747447282995
 20
20.70540763258563
 10
-19.777453622052942
 20
20.66587321506554
 10
-19.920313342860165
 20
20.657334334006304
 10
-20.01796069296604
 20
20.659363910994912
 10
-20.086157015818337
 20
20.66392449717408
 10
-20.135727150368467
 20
20.668364209029228
 10
-20.17367553162328
 20
20.672007647986277
 10
-20.204533077161326
 20
20.674813795966784
 10
-20.23128338766658
 20
20.676888045580608
 10
-20.255931890879857
 20
20.678318020533283
 10
-20.27984857142473
 20
20.679128520806607
 10
-20.30397654906405
 20
20.679278780677855
 10
-20.328961904989043
 20
20.678673373919732
 10
-20.355236753364156
 20
20.677176222218325
 10
-20.383074030823423
 20
20.67462402595904
 10
-20.4126248194069
 20
20.670838023728017
 10
-20.44394465945485
 20
20.665633929687427
 10
-20.47701278769684
 20
20.658830207361703
 10
-20.511746747724853
 20
20.650254908949996
 10
-20.548013922669615
 20
20.63975129603655
 10
-20.58564098694644
 20
20.627182420629
 10
-20.624421926028838
 20
20.612434807057365
 10
-20.66412504993628
 20
20.595421342615293
 10
-20.704499280171046
 20
20.576083459332665
 10
-20.745279892811627
 20
20.554392670303788
 10
-20.786193834996094
 20
20.530351510364746
 10
-20.826964687286154
 20
20.50399392141649
 10
-20.867317313526538
 20
20.47538511629262
 10
-20.906982218375923
 20
20.444620950937942
 10
-20.945699617776167
 20
20.41182683213354
 10
-20.9832232173011
 20
20.377156186554377
 10
-21.019323686260286
 20
20.340788516155328
 10
-21.053791810698776
 20
20.30292706439985
 10
-21.08644130536704
 20
20.263796117362958
 10
-21.117111262835394
 20
20.2236379629619
 10
-21.14566821680008
 20
20.18270953018873
 10
-21.172007795937933
 20
20.141278727893198
 10
-21.1960559441018
 20
20.099620498968054
 10
-21.217769681894552
 20
20.058012600171136
 10
-21.23713738336632
 20
20.01673110952509
 10
-21.25417853933685
 20
19.976045651204323
 10
-21.268942975141982
 20
19.936214310504837
 10
-21.28150948478969
 20
19.897478186612386
 10
-21.291983834743945
 20
19.860055494986124
 10
-21.300496077743396
 20
19.824135078958502
 10
-21.30719709882753
 20
19.789869113332013
 10
-21.312254290426132
 20
19.757364668149705
 10
-21.31584621923008
 20
19.726673627080462
 10
-21.318156103445542
 20
19.697780186751146
 10
-21.31936386626232
 20
19.670584741559473
 10
-21.319636478671523
 20
19.644882281142362
 10
-21.319116280824474
 20
19.62033231626768
 10
-21.317907056263138
 20
19.5964154847198
 10
-21.316058040521327
 20
19.572368793412792
 10
-21.31354733086999
 20
19.547085868012125
 10
-21.3102697863543
 20
19.518958685773036
 10
-21.306044351536492
 20
19.485619749030516
 10
-21.30068231735938
 20
19.44351379793236
 10
-21.29422993829368
 20
19.387184537480316
 10
-21.28769086958859
 20
19.30813705036283
 10
-21.28500741113102
 20
19.19334836599674
 10
-21.297893612816882
 20
19.02493503684105
 10
-21.354082672883962
 20
18.787893482572212
 10
-21.4953669012102
 20
18.499245541221583
 10
-21.730031374592933
 20
18.234431833795803
 10
-21.99077216151108
 20
18.063631139999476
 10
-22.20733494432307
 20
17.980461521609207
 10
-22.363362204218074
 20
17.94568310589024
 10
-22.471239895806406
 20
17.93198230402841
 10
-22.546466925109417
 20
17.92657168415715
 10
-22.60064907555545
 20
17.92421676816247
 10
-22.6415315820334
 20
17.922867102362076
 10
-22.674177384807223
 20
17.921719348772516
 10
-22.701924979743794
 20
17.92043271469299
 10
-22.727010940666034
 20
17.918820076773258
 10
-22.750954069572778
 20
17.916730071496936
 10
-22.774791975409205
 20
17.91400588669107
 10
-22.799229216746294
 20
17.910474800826552
 10
-22.824732371230322
 20
17.905949720573908
 10
-22.85159280243073
 20
17.900234978259526
 10
-22.879969396598916
 20
17.893133199736052
 10
-22.909918632236387
 20
17.884451962643425
 10
-22.941416482492855
 20
17.874009771074387
 10
-22.974374953223833
 20
17.86164120884804
 10
-23.008655033697455
 20
17.847201267819997
 10
-23.044077204242118
 20
17.83056889546667
 10
-23.080430247045793
 20
17.811649817855677
 10
-23.11747885102621
 20
17.790378692153162
 10
-23.154970335016564
 20
17.766720636558734
 10
-23.192640702899386
 20
17.74067217893136
 10
-23.230220169840877
 20
17.712261659821376
 10
-23.267438248008265
 20
17.681549121518202
 10
-23.30402844521463
 20
17.648625711979275
 10
-23.339732605744505
 20
17.61361263088029
 10
-23.37430490583278
 20
17.576659644236884
 10
-23.40751550466693
 20
17.53794319381775
 10
-23.43915384383869
 20
17.497664127645425
 10
-23.469031582823174
 20
17.45604507802942
 10
-23.496985154547694
 20
17.413327513573616
 10
-23.52287792285651
 20
17.369768491221617
 10
-23.54660192222621
 20
17.32563713340687
 10
-23.56807915905238
 20
17.28121085347434
 10
-23.587262452847483
 20
17.236771349385094
 10
-23.604135794388924
 20
17.192600380838897
 10
-23.618714195814025
 20
17.148975337715363
 10
-23.63104300436461
 20
17.106164597238124
 10
-23.641196646288225
 20
17.064422652197326
 10
-23.649276759443023
 20
17.023984970978997
 10
-23.655409661262524
 20
16.985062519108954
 10
-23.659743081309863
 20
16.947835827010778
 10
-23.662442062474028
 20
16.912448422649128
 10
-23.66368389888599
 20
16.878999349454944
 10
-23.6636519277449
 20
16.847534341220953
 10
-23.662527921117093
 20
16.818034996469525
 10
-23.660482726173495
 20
16.790404934497474
 10
-23.657664672876923
 20
16.764451336762168
 10
-23.654185108158515
 20
16.73985932730396
 10
-23.65010025050973
 20
16.716155049411867
 10
-23.645388486657506
 20
16.69265054888305
 10
-23.63992255801032
 20
16.668358739792065
 10
-23.633437698263535
 20
16.641858054183047
 10
-23.625502226185105
 20
16.611070648129083
 10
-23.615513637746098
 20
16.572889847031384
 10
-23.60279174885979
 20
16.522545547033484
 10
-23.586979836136905
 20
16.45253904177569
 10
-23.56934592223083
 20
16.351026175196452
 10
-23.556440413599944
 20
16.200317191405947
 10
-23.568168076580672
 20
15.980049102528897
 10
-23.644746230858097
 20
15.688674259719788
 10
-23.81897593975759
 20
15.38264371639477
 10
-24.05357376934897
 20
15.150431424187742
 10
-24.271412616679054
 20
15.017168351935462
 10
-24.43686734999409
 20
14.950434161952384
 10
-24.55353767145831
 20
14.917320847649629
 10
-24.635134134489114
 20
14.899717093261286
 10
-24.693530455088148
 20
14.889232872323927
 10
-24.73704369913197
 20
14.882088560098085
 10
-24.771208775349237
 20
14.876515133344737
 10
-24.799694610398802
 20
14.871607801731095
 10
-24.824957087199707
 20
14.866834457052455
 10
-24.848657088802074
 20
14.861824427300984
 10
-24.871922442549067
 20
14.856277687778107
 10
-24.895513371549526
 20
14.849926815764016
 10
-24.91992912636613
 20
14.842522444490715
 10
-24.945478507233034
 20
14.833829247213185
 10
-24.972327878584046
 20
14.823626549569761
 10
-25.000534897140724
 20
14.811710826560944
 10
-25.030072999168254
 20
14.797898790024089
 10
-25.060849797100357
 20
14.78203045321764
 10
-25.092721385799123
 20
14.76397188462246
 10
-25.125503848153276
 20
14.74361752068712
 10
-25.15898280235599
 20
14.720891984136474
 10
-25.192921546365486
 20
14.695751392101362
 10
-25.227068167939002
 20
14.668184156807305
 10
-25.26116186462354
 20
14.638211290751116
 10
-25.29493863473544
 20
14.60588623306716
 10
-25.32813644366536
 20
14.571294216536362
 10
-25.3604999309209
 20
14.534551196571629
 10
-25.39178469643593
 20
14.49580236504735
 10
-25.421761186068963
 20
14.455220273231381
 10
-25.450218183371515
 20
14.413002589367743
 10
-25.476965905917126
 20
14.369369517604879
 10
-25.501838698549268
 20
14.324560905881373
 10
-25.52469731197303
 20
14.278833070951666
 10
-25.545430752539108
 20
14.232455368817359
 10
-25.56395768734143
 20
14.185706538252047
 10
-25.580227387436516
 20
14.138870843654434
 10
-25.594220190690084
 20
14.092234040854008
 10
-25.605947464042455
 20
14.046079185350653
 10
-25.615451042387505
 20
14.000682296268076
 10
-25.622802117197107
 20
13.956307880295048
 10
-25.628099541747066
 20
13.913204306988007
 10
-25.631467510301
 20
13.871599008395219
 10
-25.633052554494462
 20
13.831693449588768
 10
-25.63301977947001
 20
13.793657778591875
 10
-25.63154823225049
 20
13.75762500847643
 10
-25.628825251384434
 20
13.7236845017048
 10
-25.625039584276646
 20
13.691874401899042
 10
-25.620372968564173
 20
13.66217246601321
 10
-25.61498974484117
 20
13.634484447963922
 10
-25.609023884533542
 20
13.60862870006378
 10
-25.60256256052283
 20
13.584314862284396
 10
-25.595625044902796
 20
13.561113169147479
 10
-25.588135302268228
 20
13.538408591497303
 10
-25.57988627910946
 20
13.515329939440385
 10
-25.570494034850725
 20
13.490636645082617
 10
-25.55934203864307
 20
13.462532285659119
 10
-25.54552489816339
 20
13.428348611282777
 10
-25.52783096852901
 20
13.3839984194163
 10
-25.504898403708836
 20
13.323024865066202
 10
-25.475964227379723
 20
13.235027525861698
 10
-25.443387193724448
 20
13.103594026534546
 10
-25.419419667527926
 20
12.906332023887485
 10
-25.437175534852845
 20
12.628072367415953
 10
-25.54246740503359
 20
12.30060400398275
 10
-25.732844073801637
 20
12.014110319995536
 10
-25.939325631331524
 20
11.826736165843723
 10
-26.108494783455043
 20
11.72248388543635
 10
-26.23156507933879
 20
11.666006189500383
 10
-26.318404333368697
 20
11.633762395889063
 10
-26.380373598053406
 20
11.613675407718835
 10
-26.426079958989966
 20
11.599857186616358
 10
-26.461420677983753
 20
11.589346689677345
 10
-26.490346706881475
 20
11.580542889916527
 10
-26.515508670328117
 20
11.572490024962672
 10
-26.53869546889393
 20
11.564550066769673
 10
-26.561116400648178
 20
11.556249710736552
 10
-26.58358168502851
 20
11.547207659801696
 10
-26.60661957849124
 20
11.537099896432192
 10
-26.630554069263447
 20
11.525643398705546
 10
-26.655557818553937
 20
11.512588975601943
 10
-26.681689314425647
 20
11.497718628562257
 10
-26.708919776749184
 20
11.480845109464273
 10
-26.737153284274797
 20
11.461812461789487
 10
-26.76624233303591
 20
11.440496899033946
 10
-26.79600025297158
 20
11.416807670606481
 10
-26.826211416281826
 20
11.390687724201632
 10
-26.856639854512792
 20
11.362114060978314
 10
-26.887036694948094
 20
11.331097729308546
 10
-26.91714669019545
 20
11.2976834317698
 10
-26.946714023107013
 20
11.26194873764444
 10
-26.97548750686948
 20
11.22400290442144
 10
-27.003225257412492
 20
11.183985319372459
 10
-27.02969888586357
 20
11.142063577683228
 10
-27.05469723845915
 20
11.098431217674852
 10
-27.078029697321885
 20
11.053305136786017
 10
-27.099529045940688
 20
11.006922714426004
 10
-27.11905389672192
 20
10.95953866964424
 10
-27.136490673672782
 20
10.911421682805846
 10
-27.15175514042459
 20
10.862850811071132
 10
-27.164793461849
 20
10.8141117273568
 10
-27.17558278599137
 20
10.765492811466185
 10
-27.184131331504336
 20
10.717281120009849
 10
-27.19047796375831
 20
10.669758258306807
 10
-27.19469123982372
 20
10.623196172246788
 10
-27.196867897935775
 20
10.57785287050659
 10
-27.197130760054257
 20
10.53396807666921
 10
-27.195626005617374
 20
10.491758795380578
 10
-27.19251975902636
 20
10.451414754703693
 10
-27.187993910599
 20
10.413093655225385
 10
-27.182241057532295
 20
10.37691611042916
 10
-27.175458403177455
 20
10.342960094705003
 10
-27.167840382798538
 20
10.311254612683907
 10
-27.159569681772272
 20
10.281772145771965
 10
-27.150806162772323
 20
10.254419184033141
 10
-27.14167299967289
 20
10.229023753865734
 10
-27.1322389961094
 20
10.205318198103821
 10
-27.122495604142983
 20
10.182914363176888
 10
-27.112326508929126
 20
10.161266441640667
 10
-27.101466798613828
 20
10.13961333179633
 10
-27.089447853105185
 20
10.116886200380385
 10
-27.07552393180482
 20
10.091555406518792
 10
-27.05857983570462
 20
10.061369099589106
 10
-27.037035420016252
 20
10.022894669677225
 10
-27.008822803654652
 20
9.970701782937715
 10
-26.97171141047766
 20
9.895931337946637
 10
-26.924857686475868
 20
9.784068993782718
 10
-26.873873238270484
 20
9.613103187463954
 10
-26.84224220384875
 20
9.35970175200302
 10
-26.87752373022386
 20
9.03150378705248
 10
-27.00815759691253
 20
8.704478592633192
 10
-27.188217923982723
 20
8.462938137740156
 10
-27.3531183721817
 20
8.316434174516335
 10
-27.47899385341903
 20
8.232558593019347
 10
-27.569354373873587
 20
8.183053105000633
 10
-27.633946229992286
 20
8.151767014073414
 10
-27.681238956674456
 20
8.130324229690794
 10
-27.71731769202517
 20
8.114328282486609
 10
-27.746335941255513
 20
8.101336850685447
 10
-27.771098255490244
 20
8.08988401097538
 10
-27.793498307372886
 20
8.079011750835752
 10
-27.814812602576627
 20
8.068040739775865
 10
-27.835892220387894
 20
8.05645503456095
 10
-27.857288500716308
 20
8.043842600698673
 10
-27.879336868000593
 20
8.029864039975703
 10
-27.90221407850303
 20
8.014235975906086
 10
-27.925978401611538
 20
7.996722219060185
 10
-27.9505986693254
 20
7.977129103355519
 10
-27.975975935469563
 20
7.955303040534377
 10
-28.001960135051064
 20
7.931129206355901
 10
-28.028363291714875
 20
7.904530739255988
 10
-28.054970288221455
 20
7.87546809173031
 10
-28.08154787232607
 20
7.843938323033549
 10
-28.107852346907325
 20
7.809974209073261
 10
-28.13363624519984
 20
7.773643098309515
 10
-28.158654192721883
 20
7.735045475618145
 10
-28.18266809016804
 20
7.694313217559833
 10
-28.205451705482975
 20
7.651607536934082
 10
-28.226794731649946
 20
7.6071166245545045
 10
-28.246506344887266
 20
7.561053003417549
 10
-28.26441828292515
 20
7.513650615770057
 10
-28.280387452775287
 20
7.46516166754997
 10
-28.29429807047605
 20
7.415853257588309
 10
-28.30606333067265
 20
7.366003820983975
 10
-28.315626600813022
 20
7.315899417263317
 10
-28.32296213261022
 20
7.265829894312592
 10
-28.328075281737306
 20
7.216084958558375
 10
-28.331002225018864
 20
7.166950180342783
 10
-28.33180916218864
 20
7.118702960693337
 10
-28.330590986064777
 20
7.07160848141353
 10
-28.32746940010039
 20
7.025915654161767
 10
-28.322590454853554
 20
6.9818530752587415
 10
-28.316121463840418
 20
6.939624980335789
 10
-28.308247242881325
 20
6.899407175037327
 10
-28.29916559312099
 20
6.86134289238514
 10
-28.289081913039492
 20
6.825538490278898
 10
-28.278202773995297
 20
6.79205884783564
 10
-28.266728219694542
 20
6.760922236922721
 10
-28.25484244116691
 20
6.732094318830719
 10
-28.242702318122728
 20
6.70548071766037
 10
-28.230423078651317
 20
6.680917303361953
 10
-28.21805997211751
 20
6.658156792893985
 10
-28.205584315454452
 20
6.6368493922459555
 10
-28.19285147771306
 20
6.6165136655421
 10
-28.17955721293867
 20
6.5964910765983955
 10
-28.16517718322929
 20
6.575872619284384
 10
-28.148882771790024
 20
6.553376472772891
 10
-28.129425796577486
 20
6.527137343735741
 10
-28.10499118192762
 20
6.494332610226607
 10
-28.07305031114494
 20
6.450503033113168
 10
-28.03037721850543
 20
6.388314706960074
 10
-27.97382829618267
 20
6.2954302211822055
 10
-27.90373775114561
 20
6.151759209747467
 10
-27.83373769064255
 20
5.930588199323319
 10
-27.804705828707824
 20
5.620240352614843
 10
-27.86543461614971
 20
5.271663633535028
 10
-28.003019388522315
 20
4.981234128093781
 10
-28.15331263237501
 20
4.789510760259671
 10
-28.27694905984033
 20
4.674431928866603
 10
-28.36836757609084
 20
4.60496036709959
 10
-28.434246432780526
 20
4.560787514798944
 10
-28.48230941453128
 20
4.530711468451234
 10
-28.518572346325733
 20
4.508651044473699
 10
-28.547272292180363
 20
4.491168135377611
 10
-28.571306524348664
 20
4.476193611584071
 10
-28.59263891325883
 20
4.462392917284353
 10
-28.612592216030333
 20
4.448845669204511
 10
-28.632045087077515
 20
4.43487917847307
 10
-28.6515633605626
 20
4.41997923279164
 10
-28.671488382236596
 20
4.403740873874873
 10
-28.69199760966784
 20
4.385840524147346
 10
-28.7131472217023
 20
4.366019818560908
 10
-28.734902912861692
 20
4.34407598442408
 10
-28.7571628040376
 20
4.31985592273318
 10
-28.77977499643356
 20
4.29325237336596
 10
-28.8025514118462
 20
4.264201220730833
 10
-28.825278999940732
 20
4.232679377591132
 10
-28.84772903049832
 20
4.198702906513325
 10
-28.869664951491398
 20
4.162325171059512
 10
-28.890849136725695
 20
4.123634890477155
 10
-28.911048741402887
 20
4.082754023300154
 10
-28.930040812527658
 20
4.03983543891507
 10
-28.94761675227143
 20
3.9950603586871773
 10
-28.963586198872292
 20
3.9486355637681583
 10
-28.977780366573292
 20
3.9007903776750426
 10
-28.9900548702569
 20
3.8517734396297985
 10
-29.000292049627625
 20
3.801849290396902
 10
-29.008402800505404
 20
3.7512947965161576
 10
-29.01432791592903
 20
3.700395441740842
 10
-29.018038936527475
 20
3.64944151635427
 10
-29.019538507368022
 20
3.5987242359483766
 10
-29.018860236708868
 20
3.548531821226683
 10
-29.01606805029141
 20
3.4991455693935936
 10
-29.011255032517163
 20
3.450835945595346
 10
-29.004541742526698
 20
3.403858719476807
 10
-28.996073988174096
 20
3.3584511668862915
 10
-28.986020033319466
 20
3.3148283495920894
 10
-28.974567202587913
 20
3.273179475795001
 10
-28.961917831145108
 20
3.233664330037042
 10
-28.94828448278747
 20
3.1964097409551364
 10
-28.933884324322566
 20
3.1615060262689405
 10
-28.918932492736765
 20
3.1290033117006493
 10
-28.903634216323546
 20
3.0989075564900124
 10
-28.888175340016467
 20
3.071176019952434
 10
-28.872710740434684
 20
3.0457117493252617
 10
-28.857349869212275
 20
3.0223564210814
 10
-28.84213828953919
 20
3.0008804586070066
 10
-28.82703350098735
 20
2.980968655804505
 10
-28.81187247509186
 20
2.962198328775159
 10
-28.79632699404759
 20
2.9440048536238654
 10
-28.779840904225885
 20
2.9256254526159196
 10
-28.761540644778723
 20
2.9060044911778418
 10
-28.740107344989738
 20
2.88362869525286
 10
-28.713598360999246
 20
2.856231103112559
 10
-28.679220781129022
 20
2.8202437263959688
 10
-28.633135459452976
 20
2.769769173174697
 10
-28.570666545297634
 20
2.6946908212368226
 10
-28.488270932315114
 20
2.5776746886734263
 10
-28.39092448242491
 20
2.392197818953985
 10
-28.30818089088486
 20
2.113988826638419
 10
-28.29607861109177
 20
1.7653569533499818
 10
-28.376377107910812
 20
1.437362728829478
 10
-28.499674193589705
 20
1.2003682885056275
 10
-28.614376827427286
 20
1.0509752849816614
 10
-28.703490992368003
 20
0.9589011292569526
 10
-28.768850227179406
 20
0.9001158531914171
 10
-28.816612475112354
 20
0.8603625654522986
 10
-28.852364602432182
 20
0.8316391054484153
 10
-28.880258941472366
 20
0.8093536234912142
 10
-28.903199092390796
 20
0.790736493040645
 10
-28.923170765298007
 20
0.7740172221336538
 10
-28.94151399830248
 20
0.7579976920927854
 10
-28.959116841312536
 20
0.7418254404037627
 10
-28.97654792518467
 20
0.7248693931273708
 10
-28.99414696614078
 20
0.7066495372462911
 10
-29.01208736110605
 20
0.6867958701802689
 10
-29.030420385424833
 20
0.6650237008661858
 10
-29.049107183488022
 20
0.6411183067359485
 10
-29.068042554664814
 20
0.614925039851397
 10
-29.087073132398537
 20
0.5863426357615837
 10
-29.10601165672278
 20
0.5553183988850539
 10
-29.12464846375168
 20
0.5218444635397532
 10
-29.142760941535872
 20
0.48595463821924423
 10
-29.16012145610428
 20
0.44772152684809313
 10
-29.176504088427148
 20
0.4072537360666891
 10
-29.191690413524373
 20
0.36469305090701465
 10
-29.20547447869762
 20
0.3202115090228812
 10
-29.21766708714881
 20
0.2740083355854793
 10
-29.228099458439832
 20
0.22630672281083608
 10
-29.236626313326337
 20
0.1773504533555754
 10
-29.24312841410027
 20
0.12740037766623452
 10
-29.247514580414165
 20
0.07673076315137234
 10
-29.24972319304413
 20
0.025625538623833474
 10
-29.249723193044126
 20
-0.025625538623839178
 10
-29.247514580414165
 20
-0.07673076315137808
 10
-29.243128414100273
 20
-0.12740037766624024
 10
-29.23662631332634
 20
-0.17735045335558106
 10
-29.228099458439825
 20
-0.22630672281083902
 10
-29.217667087148808
 20
-0.274008335585485
 10
-29.20547447869762
 20
-0.3202115090228868
 10
-29.19169041352437
 20
-0.3646930509070203
 10
-29.176504088427148
 20
-0.40725373606669446
 10
-29.160121456104285
 20
-0.44772152684809885
 10
-29.14276094153587
 20
-0.4859546382192498
 10
-29.124648463751676
 20
-0.5218444635397584
 10
-29.10601165672277
 20
-0.5553183988850516
 10
-29.087073132398533
 20
-0.5863426357615894
 10
-29.068042554664807
 20
-0.6149250398513938
 10
-29.04910718348802
 20
-0.6411183067359535
 10
-29.030420385424833
 20
-0.6650237008661909
 10
-29.012087361106047
 20
-0.6867958701802737
 10
-28.99414696614078
 20
-0.706649537246285
 10
-28.97654792518467
 20
-0.7248693931273755
 10
-28.959116841312532
 20
-0.7418254404037558
 10
-28.941513998302472
 20
-0.7579976920927902
 10
-28.923170765298003
 20
-0.7740172221336465
 10
-28.903199092390793
 20
-0.7907364930406495
 10
-28.88025894147235
 20
-0.809353623491208
 10
-28.85236460243218
 20
-0.8316391054484199
 10
-28.816612475112347
 20
-0.8603625654522971
 10
-28.768850227179403
 20
-0.9001158531914225
 10
-28.703490992367982
 20
-0.9589011292569632
 10
-28.614376827427275
 20
-1.0509752849816674
 10
-28.499674193589662
 20
-1.2003682885056746
 10
-28.376377107910812
 20
-1.4373627288294875
 10
-28.296078611091755
 20
-1.7653569533500815
 10
-28.30818089088486
 20
-2.1139888266384297
 10
-28.390924482424943
 20
-2.392197818954045
 10
-28.488270932315118
 20
-2.577674688673433
 10
-28.570666545297655
 20
-2.69469082123684
 10
-28.633135459452976
 20
-2.7697691731747023
 10
-28.679220781129036
 20
-2.82024372639597
 10
-28.71359836099925
 20
-2.8562311031125645
 10
-28.74010734498974
 20
-2.883628695252855
 10
-28.761540644778716
 20
-2.9060044911778466
 10
-28.779840904225885
 20
-2.9256254526159244
 10
-28.796326994047593
 20
-2.94400485362387
 10
-28.811872475091867
 20
-2.9621983287751528
 10
-28.827033500987348
 20
-2.9809686558045096
 10
-28.842138289539196
 20
-3.000880458607001
 10
-28.85734986921227
 20
-3.0223564210814047
 10
-28.872710740434687
 20
-3.0457117493252666
 10
-28.888175340016463
 20
-3.0711760199524387
 10
-28.90363421632355
 20
-3.0989075564900177
 10
-28.918932492736765
 20
-3.1290033117006546
 10
-28.933884324322566
 20
-3.161506026268946
 10
-28.948284482787468
 20
-3.1964097409551413
 10
-28.961917831145104
 20
-3.2336643300370467
 10
-28.974567202587913
 20
-3.273179475795007
 10
-28.986020033319466
 20
-3.3148283495920947
 10
-28.996073988174093
 20
-3.358451166886297
 10
-29.004541742526694
 20
-3.4038587194768133
 10
-29.01125503251716
 20
-3.4508359455953515
 10
-29.016068050291405
 20
-3.499145569393599
 10
-29.018860236708864
 20
-3.5485318212266863
 10
-29.019538507368022
 20
-3.5987242359483824
 10
-29.01803893652748
 20
-3.6494415163542624
 10
-29.014327915929027
 20
-3.7003954417408473
 10
-29.008402800505404
 20
-3.7512947965161647
 10
-29.000292049627625
 20
-3.8018492903969086
 10
-28.990054870256895
 20
-3.8517734396298042
 10
-28.977780366573292
 20
-3.9007903776750488
 10
-28.963586198872285
 20
-3.94863556376816
 10
-28.94761675227143
 20
-3.9950603586871836
 10
-28.93004081252765
 20
-4.039835438915072
 10
-28.911048741402887
 20
-4.08275402330016
 10
-28.89084913672569
 20
-4.1236348904771605
 10
-28.869664951491394
 20
-4.162325171059518
 10
-28.847729030498325
 20
-4.19870290651333
 10
-28.82527899994073
 20
-4.232679377591138
 10
-28.802551411846196
 20
-4.26420122073083
 10
-28.77977499643356
 20
-4.293252373365966
 10
-28.75716280403759
 20
-4.319855922733176
 10
-28.73490291286169
 20
-4.3440759844240855
 10
-28.713147221702293
 20
-4.366019818560903
 10
-28.691997609667837
 20
-4.385840524147352
 10
-28.671488382236586
 20
-4.403740873874868
 10
-28.651563360562598
 20
-4.419979232791644
 10
-28.632045087077504
 20
-4.434879178473062
 10
-28.612592216030336
 20
-4.448845669204515
 10
-28.59263891325883
 20
-4.462392917284347
 10
-28.571306524348667
 20
-4.476193611584076
 10
-28.54727229218036
 20
-4.491168135377603
 10
-28.51857234632573
 20
-4.508651044473706
 10
-28.482309414531276
 20
-4.530711468451241
 10
-28.434246432780522
 20
-4.5607875147989505
 10
-28.36836757609082
 20
-4.604960367099596
 10
-28.276949059840327
 20
-4.67443192886661
 10
-28.153312632374963
 20
-4.789510760259708
 10
-28.003019388522308
 20
-4.981234128093789
 10
-27.865434616149678
 20
-5.2716636335351215
 10
-27.804705828707824
 20
-5.620240352614855
 10
-27.833737690642547
 20
-5.93058819932333
 10
-27.903737751145613
 20
-6.151759209747476
 10
-27.97382829618267
 20
-6.295430221182214
 10
-28.030377218505414
 20
-6.388314706960062
 10
-28.073050311144957
 20
-6.450503033113173
 10
-28.10499118192762
 20
-6.494332610226614
 10
-28.129425796577497
 20
-6.527137343735738
 10
-28.148882771790028
 20
-6.553376472772897
 10
-28.16517718322929
 20
-6.5758726192843895
 10
-28.17955721293867
 20
-6.596491076598402
 10
-28.19285147771306
 20
-6.616513665542105
 10
-28.20558431545445
 20
-6.636849392245962
 10
-28.218059972117512
 20
-6.65815679289399
 10
-28.230423078651313
 20
-6.680917303361959
 10
-28.242702318122724
 20
-6.705480717660375
 10
-28.25484244116691
 20
-6.732094318830725
 10
-28.266728219694546
 20
-6.760922236922726
 10
-28.278202773995293
 20
-6.792058847835646
 10
-28.289081913039496
 20
-6.8255384902789045
 10
-28.29916559312099
 20
-6.861342892385147
 10
-28.308247242881325
 20
-6.899407175037332
 10
-28.316121463840425
 20
-6.93962498033579
 10
-28.322590454853554
 20
-6.981853075258748
 10
-28.32746940010039
 20
-7.025915654161773
 10
-28.330590986064777
 20
-7.071608481413537
 10
-28.33180916218864
 20
-7.1187029606933425
 10
-28.331002225018864
 20
-7.1669501803427895
 10
-28.32807528173731
 20
-7.216084958558379
 10
-28.32296213261022
 20
-7.265829894312598
 10
-28.315626600813026
 20
-7.315899417263322
 10
-28.30606333067265
 20
-7.366003820983981
 10
-28.294298070476046
 20
-7.415853257588314
 10
-28.280387452775283
 20
-7.465161667549976
 10
-28.26441828292515
 20
-7.513650615770062
 10
-28.246506344887262
 20
-7.5610530034175545
 10
-28.22679473164994
 20
-7.607116624554508
 10
-28.20545170548298
 20
-7.651607536934089
 10
-28.18266809016804
 20
-7.694313217559836
 10
-28.158654192721887
 20
-7.735045475618148
 10
-28.13363624519984
 20
-7.773643098309514
 10
-28.107852346907322
 20
-7.809974209073268
 10
-28.081547872326063
 20
-7.843938323033546
 10
-28.05497028822146
 20
-7.875468091730309
 10
-28.028363291714868
 20
-7.9045307392559865
 10
-28.001960135051057
 20
-7.931129206355907
 10
-27.975975935469556
 20
-7.955303040534373
 10
-27.950598669325398
 20
-7.977129103355525
 10
-27.925978401611534
 20
-7.996722219060181
 10
-27.90221407850303
 20
-8.014235975906091
 10
-27.87933686800059
 20
-8.029864039975697
 10
-27.857288500716308
 20
-8.043842600698676
 10
-27.835892220387894
 20
-8.056455034560955
 10
-27.814812602576623
 20
-8.06804073977587
 10
-27.79349830737288
 20
-8.079011750835745
 10
-27.77109825549024
 20
-8.089884010975384
 10
-27.74633594125551
 20
-8.10133685068544
 10
-27.717317692025166
 20
-8.114328282486616
 10
-27.681238956674452
 20
-8.1303242296908
 10
-27.633946229992283
 20
-8.151767014073421
 10
-27.569354373873587
 20
-8.183053105000639
 10
-27.47899385341903
 20
-8.232558593019352
 10
-27.353118372181697
 20
-8.316434174516342
 10
-27.188217923982723
 20
-8.462938137740165
 10
-27.00815759691248
 20
-8.704478592633274
 10
-26.87752373022386
 20
-9.03150378705249
 10
-26.842242203848745
 20
-9.35970175200303
 10
-26.873873238270484
 20
-9.61310318746396
 10
-26.924857686475868
 20
-9.784068993782725
 10
-26.97171141047766
 20
-9.895931337946642
 10
-27.00882280365465
 20
-9.970701782937718
 10
-27.037035420016252
 20
-10.022894669677232
 10
-27.058579835704617
 20
-10.061369099589111
 10
-27.075523931804817
 20
-10.091555406518797
 10
-27.089447853105185
 20
-10.11688620038039
 10
-27.101466798613828
 20
-10.139613331796337
 10
-27.112326508929122
 20
-10.161266441640672
 10
-27.12249560414298
 20
-10.182914363176895
 10
-27.132238996109393
 20
-10.205318198103829
 10
-27.14167299967289
 20
-10.229023753865741
 10
-27.150806162772323
 20
-10.254419184033148
 10
-27.15956968177228
 20
-10.281772145771964
 10
-27.16784038279853
 20
-10.311254612683907
 10
-27.17545840317746
 20
-10.342960094705004
 10
-27.18224105753229
 20
-10.376916110429166
 10
-27.187993910598998
 20
-10.41309365522539
 10
-27.19251975902636
 20
-10.451414754703698
 10
-27.19562600561738
 20
-10.49175879538058
 10
-27.197130760054257
 20
-10.533968076669215
 10
-27.196867897935782
 20
-10.577852870506593
 10
-27.194691239823715
 20
-10.623196172246793
 10
-27.190477963758312
 20
-10.669758258306814
 10
-27.184131331504332
 20
-10.717281120009854
 10
-27.175582785991374
 20
-10.765492811466192
 10
-27.164793461849
 20
-10.814111727356803
 10
-27.151755140424594
 20
-10.862850811071135
 10
-27.13649067367278
 20
-10.911421682805853
 10
-27.11905389672192
 20
-10.959538669644246
 10
-27.099529045940688
 20
-11.006922714426013
 10
-27.07802969732188
 20
-11.053305136786022
 10
-27.05469723845915
 20
-11.098431217674856
 10
-27.029698885863567
 20
-11.142063577683231
 10
-27.003225257412485
 20
-11.183985319372463
 10
-26.975487506869477
 20
-11.224002904421441
 10
-26.946714023107013
 20
-11.261948737644444
 10
-26.917146690195445
 20
-11.2976834317698
 10
-26.88703669494809
 20
-11.33109772930855
 10
-26.85663985451279
 20
-11.362114060978314
 10
-26.826211416281822
 20
-11.390687724201639
 10
-26.796000252971577
 20
-11.416807670606477
 10
-26.766242333035905
 20
-11.440496899033953
 10
-26.73715328427479
 20
-11.461812461789494
 10
-26.708919776749177
 20
-11.48084510946428
 10
-26.681689314425643
 20
-11.49771862856225
 10
-26.655557818553934
 20
-11.512588975601949
 10
-26.630554069263443
 20
-11.52564339870554
 10
-26.606619578491237
 20
-11.5370998964322
 10
-26.58358168502851
 20
-11.5472076598017
 10
-26.561116400648174
 20
-11.556249710736557
 10
-26.53869546889393
 20
-11.564550066769678
 10
-26.515508670328114
 20
-11.572490024962676
 10
-26.49034670688148
 20
-11.58054288991652
 10
-26.46142067798375
 20
-11.589346689677352
 10
-26.426079958989963
 20
-11.599857186616363
 10
-26.380373598053403
 20
-11.613675407718839
 10
-26.318404333368694
 20
-11.633762395889068
 10
-26.231565079338786
 20
-11.666006189500392
 10
-26.10849478345504
 20
-11.722483885436358
 10
-25.93932563133152
 20
-11.826736165843727
 10
-25.73284407380163
 20
-12.014110319995545
 10
-25.542467405033545
 20
-12.30060400398284
 10
-25.43717553485284
 20
-12.628072367415966
 10
-25.419419667527922
 20
-12.906332023887494
 10
-25.443387193724444
 20
-13.103594026534555
 10
-25.47596422737972
 20
-13.235027525861703
 10
-25.50489840370884
 20
-13.323024865066207
 10
-25.52783096852901
 20
-13.383998419416306
 10
-25.545524898163386
 20
-13.428348611282782
 10
-25.55934203864308
 20
-13.462532285659119
 10
-25.57049403485072
 20
-13.490636645082622
 10
-25.57988627910947
 20
-13.515329939440383
 10
-25.588135302268228
 20
-13.538408591497308
 10
-25.595625044902793
 20
-13.561113169147482
 10
-25.602562560522827
 20
-13.584314862284401
 10
-25.60902388453354
 20
-13.60862870006379
 10
-25.614989744841164
 20
-13.634484447963928
 10
-25.620372968564176
 20
-13.66217246601321
 10
-25.625039584276642
 20
-13.691874401899048
 10
-25.62882525138444
 20
-13.7236845017048
 10
-25.63154823225049
 20
-13.757625008476436
 10
-25.63301977947002
 20
-13.793657778591875
 10
-25.633052554494462
 20
-13.831693449588775
 10
-25.631467510301007
 20
-13.871599008395224
 10
-25.628099541747062
 20
-13.913204306988012
 10
-25.62280211719711
 20
-13.956307880295052
 10
-25.6154510423875
 20
-14.000682296268083
 10
-25.60594746404246
 20
-14.046079185350656
 10
-25.594220190690077
 20
-14.092234040854011
 10
-25.580227387436516
 20
-14.138870843654436
 10
-25.56395768734142
 20
-14.185706538252052
 10
-25.545430752539108
 20
-14.232455368817353
 10
-25.524697311973025
 20
-14.27883307095167
 10
-25.50183869854927
 20
-14.324560905881377
 10
-25.476965905917123
 20
-14.369369517604884
 10
-25.450218183371508
 20
-14.413002589367744
 10
-25.421761186068963
 20
-14.455220273231385
 10
-25.39178469643593
 20
-14.495802365047354
 10
-25.3604999309209
 20
-14.534551196571636
 10
-25.328136443665358
 20
-14.57129421653637
 10
-25.294938634735434
 20
-14.605886233067165
 10
-25.26116186462353
 20
-14.638211290751116
 10
-25.227068167939002
 20
-14.668184156807312
 10
-25.192921546365483
 20
-14.69575139210136
 10
-25.158982802355986
 20
-14.720891984136477
 10
-25.12550384815327
 20
-14.743617520687119
 10
-25.09272138579912
 20
-14.763971884622467
 10
-25.060849797100353
 20
-14.782030453217647
 10
-25.03007299916825
 20
-14.797898790024096
 10
-25.000534897140717
 20
-14.811710826560947
 10
-24.972327878584043
 20
-14.823626549569767
 10
-24.945478507233034
 20
-14.833829247213178
 10
-24.919929126366128
 20
-14.84252244449072
 10
-24.895513371549523
 20
-14.849926815764023
 10
-24.87192244254906
 20
-14.856277687778114
 10
-24.84865708880207
 20
-14.861824427300984
 10
-24.824957087199703
 20
-14.866834457052462
 10
-24.7996946103988
 20
-14.871607801731098
 10
-24.77120877534923
 20
-14.876515133344741
 10
-24.737043699131966
 20
-14.882088560098092
 10
-24.693530455088137
 20
-14.889232872323918
 10
-24.63513413448911
 20
-14.89971709326129
 10
-24.5535376714583
 20
-14.917320847649636
 10
-24.436867349994085
 20
-14.950434161952385
 10
-24.271412616679047
 20
-15.01716835193547
 10
-24.05357376934896
 20
-15.150431424187753
 10
-23.818975939757525
 20
-15.382643716394847
 10
-23.644746230858097
 20
-15.6886742597198
 10
-23.56816807658067
 20
-15.98004910252897
 10
-23.556440413599944
 20
-16.200317191405958
 10
-23.569345922230827
 20
-16.351026175196438
 10
-23.586979836136905
 20
-16.4525390417757
 10
-23.602791748859794
 20
-16.5225455470335
 10
-23.615513637746098
 20
-16.572889847031387
 10
-23.625502226185112
 20
-16.611070648129086
 10
-23.63343769826353
 20
-16.64185805418305
 10
-23.639922558010326
 20
-16.668358739792065
 10
-23.645388486657506
 20
-16.69265054888305
 10
-23.650100250509734
 20
-16.716155049411867
 10
-23.654185108158515
 20
-16.739859327303964
 10
-23.657664672876926
 20
-16.764451336762168
 10
-23.660482726173495
 20
-16.790404934497477
 10
-23.6625279211171
 20
-16.818034996469525
 10
-23.6636519277449
 20
-16.847534341220957
 10
-23.663683898885992
 20
-16.878999349454944
 10
-23.66244206247402
 20
-16.91244842264913
 10
-23.659743081309866
 20
-16.94783582701078
 10
-23.655409661262524
 20
-16.98506251910896
 10
-23.64927675944303
 20
-17.023984970979
 10
-23.641196646288225
 20
-17.064422652197333
 10
-23.631043004364614
 20
-17.106164597238127
 10
-23.61871419581403
 20
-17.14897533771537
 10
-23.604135794388927
 20
-17.1926003808389
 10
-23.587262452847483
 20
-17.236771349385094
 10
-23.56807915905238
 20
-17.28121085347435
 10
-23.54660192222621
 20
-17.32563713340687
 10
-23.52287792285651
 20
-17.369768491221624
 10
-23.49698515454769
 20
-17.41332751357362
 10
-23.46903158282317
 20
-17.456045078029426
 10
-23.439153843838685
 20
-17.49766412764543
 10
-23.407515504666925
 20
-17.53794319381775
 10
-23.374304905832776
 20
-17.576659644236894
 10
-23.3397326057445
 20
-17.613612630880294
 10
-23.304028445214627
 20
-17.648625711979278
 10
-23.26743824800826
 20
-17.68154912151821
 10
-23.230220169840873
 20
-17.71226165982138
 10
-23.19264070289939
 20
-17.740672178931362
 10
-23.154970335016564
 20
-17.766720636558738
 10
-23.11747885102621
 20
-17.79037869215317
 10
-23.080430247045793
 20
-17.811649817855674
 10
-23.044077204242114
 20
-17.83056889546667
 10
-23.00865503369745
 20
-17.847201267819997
 10
-22.97437495322383
 20
-17.86164120884805
 10
-22.941416482492855
 20
-17.874009771074384
 10
-22.909918632236383
 20
-17.88445196264343
 10
-22.879969396598916
 20
-17.893133199736052
 10
-22.85159280243073
 20
-17.900234978259533
 10
-22.82473237123032
 20
-17.905949720573904
 10
-22.799229216746287
 20
-17.910474800826556
 10
-22.774791975409205
 20
-17.914005886691072
 10
-22.750954069572778
 20
-17.916730071496943
 10
-22.727010940666034
 20
-17.918820076773258
 10
-22.701924979743794
 20
-17.920432714692993
 10
-22.674177384807223
 20
-17.92171934877251
 10
-22.641531582033398
 20
-17.92286710236208
 10
-22.60064907555545
 20
-17.92421676816247
 10
-22.546466925109414
 20
-17.92657168415715
 10
-22.47123989580639
 20
-17.93198230402841
 10
-22.363362204218067
 20
-17.945683105890243
 10
-22.20733494432304
 20
-17.98046152160921
 10
-21.990772161511075
 20
-18.063631139999483
 10
-21.730031374592894
 20
-18.234431833795842
 10
-21.4953669012102
 20
-18.49924554122159
 10
-21.35408267288395
 20
-18.787893482572255
 10
-21.297893612816875
 20
-19.02493503684106
 10
-21.285007411131023
 20
-19.193348365996762
 10
-21.287690869588587
 20
-19.308137050362834
 10
-21.29422993829369
 20
-19.387184537480323
 10
-21.30068231735938
 20
-19.44351379793237
 10
-21.3060443515365
 20
-19.485619749030523
 10
-21.310269786354297
 20
-19.518958685773036
 10
-21.313547330869998
 20
-19.54708586801213
 10
-21.316058040521327
 20
-19.572368793412796
 10
-21.31790705626314
 20
-19.5964154847198
 10
-21.319116280824478
 20
-19.62033231626769
 10
-21.31963647867153
 20
-19.644882281142365
 10
-21.31936386626232
 20
-19.670584741559484
 10
-21.31815610344555
 20
-19.697780186751146
 10
-21.315846219230085
 20
-19.72667362708046
 10
-21.312254290426132
 20
-19.757364668149712
 10
-21.307197098827526
 20
-19.789869113332017
 10
-21.3004960777434
 20
-19.82413507895851
 10
-21.291983834743945
 20
-19.860055494986124
 10
-21.281509484789698
 20
-19.89747818661239
 10
-21.26894297514198
 20
-19.936214310504845
 10
-21.25417853933685
 20
-19.976045651204327
 10
-21.23713738336632
 20
-20.016731109525093
 10
-21.21776968189455
 20
-20.05801260017114
 10
-21.196055944101797
 20
-20.099620498968058
 10
-21.172007795937933
 20
-20.1412787278932
 10
-21.14566821680008
 20
-20.182709530188735
 10
-21.117111262835394
 20
-20.223637962961906
 10
-21.086441305367043
 20
-20.263796117362965
 10
-21.053791810698772
 20
-20.30292706439986
 10
-21.01932368626029
 20
-20.34078851615533
 10
-20.983223217301102
 20
-20.37715618655438
 10
-20.945699617776164
 20
-20.411826832133546
 10
-20.90698221837592
 20
-20.44462095093795
 10
-20.867317313526534
 20
-20.47538511629262
 10
-20.826964687286157
 20
-20.503993921416498
 10
-20.78619383499609
 20
-20.53035151036475
 10
-20.745279892811624
 20
-20.554392670303788
 10
-20.704499280171046
 20
-20.57608345933267
 10
-20.664125049936278
 20
-20.595421342615296
 10
-20.624421926028834
 20
-20.61243480705736
 10
-20.58564098694644
 20
-20.627182420629005
 10
-20.548013922669615
 20
-20.639751296036554
 10
-20.511746747724846
 20
-20.65025490895
 10
-20.47701278769684
 20
-20.658830207361703
 10
-20.44394465945485
 20
-20.66563392968743
 10
-20.4126248194069
 20
-20.670838023728017
 10
-20.38307403082342
 20
-20.674624025959044
 10
-20.355236753364156
 20
-20.677176222218325
 10
-20.32896190498904
 20
-20.678673373919736
 10
-20.303976549064046
 20
-20.67927878067785
 10
-20.27984857142473
 20
-20.679128520806607
 10
-20.255931890879857
 20
-20.67831802053328
 10
-20.23128338766658
 20
-20.67688804558061
 10
-20.204533077161326
 20
-20.67481379596678
 10
-20.17367553162328
 20
-20.672007647986284
 10
-20.135727150368467
 20
-20.668364209029225
 10
-20.086157015818333
 20
-20.663924497174087
 10
-20.01796069296603
 20
-20.659363910994905
 10
-19.92031334286016
 20
-20.657334334006308
 10
-19.777453622052917
 20
-20.66587321506554
 10
-19.57174744728299
 20
-20.705407632585633
 10
-19.30264511289044
 20
-20.81417655724136
 10
-19.02252809053165
 20
-21.022083031487636
 10
-18.81615717360505
 20
-21.289363978352792
 10
-18.707741934509674
 20
-21.53352513827218
 10
-18.662457703538244
 20
-21.716348282694685
 10
-18.64603300291269
 20
-21.843427839488275
 10
-18.640823639741296
 20
-21.931179767060176
 10
-18.639522542355273
 20
-21.99330756566329
 10
-18.6393567238175
 20
-22.039168488753653
 10
-18.639325068342522
 20
-22.074871931927724
 10
-18.639072559793792
 20
-22.104414855104135
 10
-18.6384530418185
 20
-22.130453632645565
 10
-18.63736528760962
 20
-22.154782963309753
 10
-18.63569650519723
 20
-22.178628654157162
 10
-18.633307836647955
 20
-22.202828746858597
 10
-18.630035802272726
 20
-22.22794812547253
 10
-18.62569923362024
 20
-22.25435305000944
 10
-18.620107519908856
 20
-22.282261111122384
 10
-18.61306855819881
 20
-22.311775807604334
 10
-18.60439584834292
 20
-22.342911311702444
 10
-18.593914596121337
 20
-22.37561085396684
 10
-18.58146684779014
 20
-22.409760883817974
 10
-18.56691573041681
 20
-22.44520238360173
 10
-18.550148880265805
 20
-22.48174022903674
 10
-18.53108113391155
 20
-22.51915118091142
 10
-18.509656545233632
 20
-22.557190893483078
 10
-18.485849780486227
 20
-22.595600193704254
 10
-18.45966693471616
 20
-22.634110797548807
 10
-18.43114580616025
 20
-22.672450570141073
 10
-18.400355660637672
 20
-22.710348395550415
 10
-18.367396514977035
 20
-22.747538693889513
 10
-18.33239796677465
 20
-22.78376560377114
 10
-18.295517596908386
 20
-22.818786834596807
 10
-18.256938970905193
 20
-22.852377183798122
 10
-18.21686926520257
 20
-22.88433170779631
 10
-18.175536544297312
 20
-22.91446853122424
 10
-18.133186714499093
 20
-22.942631276226834
 10
-18.090080179250307
 20
-22.968691091933966
 10
-18.046488219462326
 20
-22.99254826307966
 10
-18.002689119721452
 20
-23.014133375864745
 10
-17.95896405711078
 20
-23.03340801817594
 10
-17.915592763213375
 20
-23.050364989802805
 10
-17.87284896081429
 20
-23.065027995895985
 10
-17.830995563774565
 20
-23.077450793036228
 10
-17.790279609843456
 20
-23.087715751228043
 10
-17.750926869322775
 20
-23.09593178594868
 10
-17.713136033706
 20
-23.102231600796674
 10
-17.677072331817953
 20
-23.10676816155146
 10
-17.642860337315472
 20
-23.10971029421229
 10
-17.610575605813285
 20
-23.11123725967393
 10
-17.58023458805967
 20
-23.111532102091243
 10
-17.551781966948308
 20
-23.110773492041616
 10
-17.525074091691497
 20
-23.10912568539503
 10
-17.499856412199
 20
-23.106726095447478
 10
-17.475731537590487
 20
-23.103669847859372
 10
-17.452112368977126
 20
-23.099990625014367
 10
-17.428150977345425
 20
-23.095637321572276
 10
-17.402627190602722
 20
-23.090447133840893
 10
-17.373768781752503
 20
-23.084119392616092
 10
-17.33895345443525
 20
-23.07620549090166
 10
-17.294205462340123
 20
-23.06616213658433
 10
-17.23334581595404
 20
-23.053605876972608
 10
-17.146634820058196
 20
-23.03915798965334
 10
-17.019086573349277
 20
-23.02689302707795
 10
-16.830770497489645
 20
-23.030359910987976
 10
-16.56860630735493
 20
-23.08172598434681
 10
-16.262104802685936
 20
-23.223447145595877
 10
-15.99707907638744
 20
-23.450277506545994
 10
-15.83115631298378
 20
-23.6884295208787
 10
-15.746839175721194
 20
-23.880180976860107
 10
-15.706725103738988
 20
-24.017558826413303
 10
-15.686975215451179
 20
-24.113209576949167
 10
-15.67624634875969
 20
-24.180710901501996
 10
-15.66954435513288
 20
-24.230026138114045
 10
-15.664652136229495
 20
-24.26783381566101
 10
-15.660521478368674
 20
-24.298542124776905
 10
-15.656591218136771
 20
-24.32508331310934
 10
-15.652500532676212
 20
-24.349432026247467
 10
-15.647968749923525
 20
-24.372929418955202
 10
-15.64274626234731
 20
-24.396485893787148
 10
-15.63659626966493
 20
-24.420710098996985
 10
-15.629289950882471
 20
-24.445993034471357
 10
-15.620607366532887
 20
-24.472564456170296
 10
-15.610340618207536
 20
-24.5005318800349
 10
-15.598297681610918
 20
-24.5299084464364
 10
-15.584306192028238
 20
-24.56063351701683
 10
-15.568216861025947
 20
-24.592588440737217
 10
-15.5499063899772
 20
-24.625609048131437
 10
-15.529279833032739
 20
-24.659495885453904
 10
-15.506272402139349
 20
-24.694022852680373
 10
-15.480850724559
 20
-24.72894468438106
 10
-15.45301357096464
 20
-24.764003564521012
 10
-15.422792075291056
 20
-24.79893506742722
 10
-15.390249468798523
 20
-24.833473550297235
 10
-15.355480351505287
 20
-24.867357076888645
 10
-15.31860952477726
 20
-24.90033192050468
 10
-15.279790409605624
 20
-24.932156672569292
 10
-15.239203075952906
 20
-24.962605967987045
 10
-15.197051909432718
 20
-24.9914738280943
 10
-15.153562942390607
 20
-25.018576614942447
 10
-15.108980877036684
 20
-25.043755585932523
 10
-15.063565828493534
 20
-25.066879034722
 10
-15.017589815285964
 20
-25.08784400230004
 10
-14.971333023706386
 20
-25.106577540721045
 10
-14.925079870374622
 20
-25.12303751079629
 10
-14.879114883834086
 20
-25.137212893670153
 10
-14.83371842071641
 20
-25.149123594221848
 10
-14.789162224209006
 20
-25.15881971112782
 10
-14.745704821329937
 20
-25.16638024355535
 10
-14.703586739457682
 20
-25.171911196996213
 10
-14.663025499601826
 20
-25.175543039544074
 10
-14.624210310851995
 20
-25.17742744338459
 10
-14.587296342387196
 20
-25.177733222157467
 10
-14.55239837858997
 20
-25.176641339978385
 10
-14.519583556714036
 20
-25.174338817725413
 10
-14.488862724769543
 20
-25.171011290252146
 10
-14.460179705720577
 20
-25.166833865520402
 10
-14.433397354609024
 20
-25.16195979133837
 10
-14.40827864656873
 20
-25.15650623328831
 10
-14.384459955480084
 20
-25.150536196774866
 10
-14.361411846611848
 20
-25.144035294304615
 10
-14.338379500770804
 20
-25.13688174503966
 10
-14.31428915655258
 20
-25.128808003947892
 10
-14.287596503763393
 20
-25.11935374745472
 10
-14.256033691472688
 20
-25.10781564176868
 10
-14.21617658933111
 20
-25.093218589419852
 10
-14.162695410459797
 20
-25.07439354532386
 10
-14.087084888556566
 20
-25.050428704063318
 10
-13.975771321847661
 20
-25.02226964025909
 10
-13.80871301683599
 20
-24.99735726667022
 10
-13.565111347108106
 20
-24.99939084164653
 10
-13.252261713851045
 20
-25.07290256989897
 10
-12.941869681169935
 20
-25.242756921496365
 10
-12.717331033942353
 20
-25.458953662603143
 10
-12.588056898836625
 20
-25.651579783145365
 10
-12.519431119016248
 20
-25.79595618833097
 10
-12.482068780176588
 20
-25.898080445735946
 10
-12.460054227022626
 20
-25.970217400166923
 10
-12.445701690967553
 20
-26.02251707287228
 10
-12.43528865058269
 20
-26.062074240663147
 10
-12.426905299048931
 20
-26.093646145802236
 10
-12.419476502831714
 20
-26.120411747584775
 10
-12.41232214565791
 20
-26.144509905395743
 10
-12.40495669377126
 20
-26.167387660145828
 10
-12.396996376895801
 20
-26.19002171176644
 10
-12.38811602496052
 20
-26.21306051991825
 10
-12.37802941216274
 20
-26.236917331989364
 10
-12.366480942132338
 20
-26.261832666302777
 10
-12.353242833786856
 20
-26.287917505620197
 10
-12.338114921547662
 20
-26.315184094405932
 10
-12.320925606465966
 20
-26.343568621574185
 10
-12.301533200229121
 20
-26.372948490614345
 10
-12.279827263147531
 20
-26.403155908736082
 10
-12.255729724622125
 20
-26.43398892048016
 10
-12.22919567474959
 20
-26.465220625782628
 10
-12.200213770619188
 20
-26.496607073152877
 10
-12.16880623183928
 20
-26.52789415473773
 10
-12.135028417985312
 20
-26.558823720729485
 10
-12.098967991824006
 20
-26.58913905672912
 10
-12.060743679464435
 20
-26.61858981726488
 10
-12.02050364368472
 20
-26.64693647399398
 10
-11.97842349048261
 20
-26.673954313168736
 10
-11.934703931860826
 20
-26.69943700041275
 10
-11.889568130216773
 20
-26.723199719489696
 10
-11.843258751547427
 20
-26.745081884019772
 10
-11.796034756014967
 20
-26.7649494159177
 10
-11.74816795519903
 20
-26.78269658089807
 10
-11.69993936549391
 20
-26.79824736911
 10
-11.651635386460917
 20
-26.811556407326407
 10
-11.603543831322918
 20
-26.822609387681993
 10
-11.555949833931159
 20
-26.831422996295924
 10
-11.509131652068588
 20
-26.838044322761807
 10
-11.463356380356629
 20
-26.842549727886386
 10
-11.418875576530963
 20
-26.845043141511937
 10
-11.375920791318006
 20
-26.845653753837944
 10
-11.334698972868681
 20
-26.844533051094412
 10
-11.295387689089274
 20
-26.841851127918922
 10
-11.258130071208415
 20
-26.83779218178449
 10
-11.223029323147188
 20
-26.832549055587037
 10
-11.190142553455361
 20
-26.826316637560282
 10
-11.159473552919184
 20
-26.819283844983286
 10
-11.130963933334543
 20
-26.811623797803165
 10
-11.104481713391648
 20
-26.803481612971513
 10
-11.079805902389452
 20
-26.794958995347077
 10
-11.056604741942904
 20
-26.786094433668364
 10
-11.034403746126864
 20
-26.77683729387396
 10
-11.012537018592415
 20
-26.767013420368972
 10
-10.990070539419726
 20
-26.756279097918423
 10
-10.965677298374974
 20
-26.74405986983249
 10
-10.937427605527557
 20
-26.729472514257676
 10
-10.902426746856312
 20
-26.711238333065726
 10
-10.85617557016579
 20
-26.687632747839885
 10
-10.791442755742384
 20
-26.65663935984838
 10
-10.696398943660373
 20
-26.61685882710053
 10
-10.552340294580139
 20
-26.5707409826867
 10
-10.334985136051408
 20
-26.5331603478136
 10
-10.033875426478662
 20
-26.542981525728777
 10
-9.696747950263854
 20
-26.644744729746304
 10
-9.41815477689456
 20
-26.821788605814262
 10
-9.23975918433291
 20
-27.00451195513436
 10
-9.137881018036786
 20
-27.150968638563974
 10
-9.079636334761002
 20
-27.257345385857594
 10
-9.044317022087467
 20
-27.332978851333994
 10
-9.021101258658826
 20
-27.387578095619947
 10
-9.004453461552423
 20
-27.42841061275887
 10
-8.991417327575528
 20
-27.460478895058422
 10
-8.980294338391303
 20
-27.48715854673614
 10
-8.970019241497846
 20
-27.51072547138421
 10
-8.959861077160948
 20
-27.532716427965664
 10
-8.949276377733888
 20
-27.554164205061348
 10
-8.93783525978658
 20
-27.575750458246183
 10
-8.925183514995053
 20
-27.597906431502775
 10
-8.911023002230564
 20
-27.62088081767163
 10
-8.895101560329271
 20
-27.644786705417776
 10
-8.877207937260792
 20
-27.66963501731543
 10
-8.857169351266476
 20
-27.695359070184924
 10
-8.83485038497393
 20
-27.721833192410003
 10
-8.810152486712521
 20
-27.748887284288294
 10
-8.78301366503681
 20
-27.776318549794436
 10
-8.75340813697721
 20
-27.8039012090994
 10
-8.721345791059104
 20
-27.831394729918795
 10
-8.686871385785256
 20
-27.85855093745329
 10
-8.650063440830731
 20
-27.88512024383233
 10
-8.61103280140041
 20
-27.910857157771762
 10
-8.569920871497503
 20
-27.935525180494945
 10
-8.526897522345834
 20
-27.958901156436994
 10
-8.482158689687383
 20
-27.98077912138315
 10
-8.435923679171387
 20
-28.00097367286284
 10
-8.388432203167712
 20
-28.019322875387164
 10
-8.339941175409798
 20
-28.03569070480412
 10
-8.290721292087838
 20
-28.04996903046511
 10
-8.241053429443234
 20
-28.062079130189346
 10
-8.191224888570728
 20
-28.07197273051911
 10
-8.1415255179552
 20
-28.079632562946294
 10
-8.0922437431452
 20
-28.085072425187484
 10
-8.043662530711508
 20
-28.08833673473316
 10
-7.996055309979425
 20
-28.089499559304958
 10
-7.9496818705573435
 20
-28.088663104941784
 10
-7.904784245806243
 20
-28.08595563647212
 10
-7.861582581216025
 20
-28.081528796139413
 10
-7.820270970815109
 20
-28.075554272789596
 10
-7.781013222169188
 20
-28.06821975440018
 10
-7.743938477984803
 20
-28.05972406808014
 10
-7.709136574707668
 20
-28.05027136996261
 10
-7.676652947547876
 20
-28.040064186646187
 10
-7.646482783538421
 20
-28.029295020998543
 10
-7.618563956884247
 20
-28.018136104571408
 10
-7.592768015225536
 20
-28.006726685870603
 10
-7.568888053714871
 20
-27.99515695696564
 10
-7.546621594464934
 20
-27.983447293947215
 10
-7.525545358670983
 20
-27.971520853901854
 10
-7.505076656711667
 20
-27.959166650928566
 10
-7.484412214983349
 20
-27.94598896479269
 10
-7.46242800403465
 20
-27.931337428783866
 10
-7.4375098321902815
 20
-27.91421122809732
 10
-7.407257816904008
 20
-27.893133929028856
 10
-7.367956846690354
 20
-27.86601477703683
 10
-7.3136150023913125
 20
-27.830089287235122
 10
-7.234262400143099
 20
-27.782299301010404
 10
-7.113373285007853
 20
-27.721292336580383
 10
-6.9263903289282345
 20
-27.654030801242325
 10
-6.651156170819659
 20
-27.609422893261975
 10
-6.308468477661589
 20
-27.639206310354684
 10
-5.986794994340732
 20
-27.761058996431487
 10
-5.758172232410438
 20
-27.92066895843697
 10
-5.618890096605534
 20
-28.062398371919038
 10
-5.536442697239535
 20
-28.169815568889174
 10
-5.485683770942415
 20
-28.24730266244731
 10
-5.452310946849372
 20
-28.30324845291779
 10
-5.428668555276522
 20
-28.344734016493753
 10
-5.410557528642589
 20
-28.376849864282164
 10
-5.39553781155654
 20
-28.403091627497986
 10
-5.382087785133673
 20
-28.425830796956863
 10
-5.369187350197439
 20
-28.446669447160136
 10
-5.356105974745578
 20
-28.466681236367815
 10
-5.342291630843912
 20
-28.48657122354639
 10
-5.32731087663554
 20
-28.506782319975894
 10
-5.310815691985586
 20
-28.52756741251957
 10
-5.292524712879921
 20
-28.5490393831908
 10
-5.272212391620053
 20
-28.57120674439166
 10
-5.249702578966403
 20
-28.593999770943665
 10
-5.224864573042064
 20
-28.617290242952944
 10
-5.197610513649605
 20
-28.640906809596796
 10
-5.167893463500927
 20
-28.664647287116182
 10
-5.13570578241045
 20
-28.68828875861792
 10
-5.101077556086761
 20
-28.71159605414639
 10
-5.064074935285437
 20
-28.734328999237835
 10
-5.0247982996850915
 20
-28.75624869334433
 10
-4.983380198414931
 20
-28.777122993977166
 10
-4.939983043974841
 20
-28.796731324179373
 10
-4.894796553175791
 20
-28.81486888100512
 10
-4.848034940547539
 20
-28.83135029520504
 10
-4.799933878134057
 20
-28.846012773409253
 10
-4.750747241770536
 20
-28.858718741149197
 10
-4.700743668443036
 20
-28.86935799626869
 10
-4.650202952562032
 20
-28.87784937637703
 10
-4.599412311150893
 20
-28.884141940074468
 10
-4.5486625491797685
 20
-28.888215659033897
 10
-4.498244156591904
 20
-28.890081616090267
 10
-4.4484433679452176
 20
-28.889781702778325
 10
-4.399538213919436
 20
-28.887387807796987
 10
-4.351794591041731
 20
-28.883000485159293
 10
-4.305462371567326
 20
-28.87674708672017
 10
-4.260771569074313
 20
-28.868779337617
 10
-4.217928566317813
 20
-28.859270323922182
 10
-4.177112399199049
 20
-28.84841084812672
 10
-4.138471072745499
 20
-28.836405088012018
 10
-4.1021178592575955
 20
-28.823465465207736
 10
-4.06812749127887
 20
-28.80980658712202
 10
-4.036532106344656
 20
-28.795638063740437
 10
-4.007316715962712
 20
-28.78115590956658
 10
-3.980413840167126
 20
-28.76653210621019
 10
-3.955696740719713
 20
-28.751901700335605
 10
-3.9329703469905173
 20
-28.737346509864384
 10
-3.91195840228833
 20
-28.722874054058614
 10
-3.8922843869584196
 20
-28.70838962699909
 10
-3.8734420605765116
 20
-28.693658376515014
 10
-3.8547483522855854
 20
-28.678252671584797
 10
-3.835265504484111
 20
-28.661477803624617
 10
-3.8136681704828086
 20
-28.642266352193925
 10
-3.788009113380632
 20
-28.619029994748463
 10
-3.75529340125477
 20
-28.589464376464786
 10
-3.7106869968972176
 20
-28.550345099395045
 10
-3.646049264939306
 20
-28.497526177075077
 10
-3.5474174777160434
 20
-28.42695546045819
 10
-3.392083248139067
 20
-28.339205827918896
 10
-3.1520736830428486
 20
-28.25198072548535
 10
-2.824253448090803
 20
-28.21334675264947
 10
-2.4763586880429638
 20
-28.26793540387106
 10
-2.2008069644985664
 20
-28.389733434997318
 10
-2.0212823597632514
 20
-28.517899285952996
 10
-1.9114997845642585
 20
-28.62195473333972
 10
-1.8431283950842927
 20
-28.699033719460278
 10
-1.7982536716267972
 20
-28.755044312717043
 10
-1.7668248809066214
 20
-28.796379843595236
 10
-1.7432017116092777
 20
-28.82799457661347
 10
-1.724078834206588
 20
-28.85339441221296
 10
-1.7074030078090814
 20
-28.87498738694187
 10
-1.6918188574648623
 20
-28.894406517276096
 10
-1.6763800356823655
 20
-28.912745138971214
 10
-1.660394152043227
 20
-28.930718184808583
 10
-1.6433368179484744
 20
-28.94877148515513
 10
-1.6248025056472155
 20
-28.967156531451167
 10
-1.6044756115250602
 20
-28.985982591110158
 10
-1.5821129017558828
 20
-29.00525391549231
 10
-1.5575325014028498
 20
-29.024897023286236
 10
-1.5306066905818307
 20
-29.04478127250149
 10
-1.5012569165378031
 20
-29.064734809790497
 10
-1.4694500734606173
 20
-29.084557268450887
 10
-1.435195473473513
 20
-29.104030124533818
 10
-1.398542153069135
 20
-29.122925319537934
 10
-1.359576294105684
 20
-29.141012559663032
 10
-1.3184186230124393
 20
-29.158065569094447
 10
-1.2752217062584967
 20
-29.173867485389415
 10
-1.2301670960635938
 20
-29.18821552418466
 10
-1.183462304654059
 20
-29.20092499875752
 10
-1.1353376022206345
 20
-29.21183275132285
 10
-1.086042645650706
 20
-29.220800033265242
 10
-1.0358429536479576
 20
-29.227714858048564
 10
-0.9850162500062724
 20
-29.23249384142534
 10
-0.9338487011866731
 20
-29.23508353746094
 10
-0.8826310773473722
 20
-29.235461274830293
 10
-0.8316548678335738
 20
-29.233635495110637
 10
-0.7812083829726943
 20
-29.229645592800683
 10
-0.7315728738970071
 20
-29.223561255040202
 10
-0.6830187010031061
 20
-29.21548129700449
 10
-0.635801579469041
 20
-29.2055319861975
 10
-0.590158926798304
 20
-29.193864844778858
 10
-0.5463063323482689
 20
-29.180653912896734
 10
-0.5044341617460425
 20
-29.166092446783562
 10
-0.46470429924937645
 20
-29.15038901175975
 10
-0.4272470172992215
 20
-29.13376291036336
 10
-0.3921579428709534
 20
-29.116438856797203
 10
-0.3594950617880544
 20
-29.09864076663181
 10
-0.3292756600610054
 20
-29.080584469012113
 10
-0.30147303753099514
 20
-29.062469058003888
 10
-0.2760127300717756
 20
-29.044466465501433
 10
-0.2527678189652668
 20
-29.026708637299976
 10
-0.23155264858271818
 20
-29.009271390108097
 10
-0.21211384164447888
 20
-28.99215356242036
 10
-0.19411675678905782
 20
-28.975249353824367
 10
-0.1771242121570955
 20
-28.958310630010175
 10
-0.1605618835355953
 20
-28.940894235017716
 10
-0.14366023163528618
 20
-28.922286704297775
 10
-0.12535395813643457
 20
-28.901394964240918
 10
-0.10410228314303227
 20
-28.876587060520023
 10
-0.07755724606604608
 20
-28.845465332735834
 10
-0.04193408035697588
 20
-28.80457228783623
 10
0.009199398192615504
 20
-28.749130894306052
 10
0.08717175697661472
 20
-28.673331029004466
 10
0.21164402265262283
 20
-28.573027992620865
 10
0.41169333524039675
 20
-28.455567799978404
 10
0.7077999164499006
 20
-28.358204934734704
 10
1.0611505159170833
 20
-28.3398455075997
 10
1.3749138393395146
 20
-28.40935409767771
 10
1.5952736950478439
 20
-28.513216713250333
 10
1.734978953184793
 20
-28.6081458683085
 10
1.8230512514713102
 20
-28.681813454683596
 10
1.8807760228584582
 20
-28.73621120654354
 10
1.9207930195188252
 20
-28.77637659907204
 10
1.9503696040599792
 20
-28.80682143730904
 10
1.9738005188799757
 20
-28.83091150234049
 10
1.9937477198869291
 20
-28.851011001109136
 10
2.0119493050710355
 20
-28.86873759910636
 10
2.02959692292554
 20
-28.885176084623247
 10
2.0475419156084143
 20
-28.901033395017556
 10
2.0664115129883367
 20
-28.916746754806844
 10
2.0866764767763124
 20
-28.93255883979556
 10
2.1086917598062236
 20
-28.948570655536063
 10
2.132721750344299
 20
-28.96477948072151
 10
2.1589565034602383
 20
-28.981106748814895
 10
2.1875226094116877
 20
-28.997419067296477
 10
2.2184908384236515
 20
-29.013544478167184
 10
2.2518818472384843
 20
-29.029285351675536
 10
2.287670736088172
 20
-29.04442884171
 10
2.325790947866375
 20
-29.058755527053155
 10
2.366137819168831
 20
-29.072046661040307
 10
2.4085719783221653
 20
-29.084090317151844
 10
2.4529227117055385
 20
-29.094686626821513
 10
2.49899137097835
 20
-29.103652243589735
 10
2.546554860989633
 20
-29.110824125158484
 10
2.595369225545905
 20
-29.116062695667647
 10
2.645173332385163
 20
-29.119254430454795
 10
2.6956926474786953
 20
-29.120313891870616
 10
2.746643080772418
 20
-29.11918523546687
 10
2.797734879803378
 20
-29.11584319969234
 10
2.8486765437037564
 20
-29.110293588139353
 10
2.899178727567854
 20
-29.1025732506377
 10
2.948958105769492
 20
-29.09274956750279
 10
2.997741162440919
 20
-29.080919439503774
 10
3.0452678779016535
 20
-29.067207784146873
 10
3.0912952813592853
 20
-29.051765536170283
 10
3.1356008427805366
 20
-29.034767146145423
 10
3.1779856806178333
 20
-29.01640756506247
 10
3.2182775673817603
 20
-28.996898693800762
 10
3.2563337223666418
 20
-28.976465263151525
 10
3.292043390972591
 20
-28.955340090720895
 10
3.3253302243159237
 20
-28.93375863291386
 10
3.356154493291592
 20
-28.91195270929608
 10
3.384515201417071
 20
-28.89014321694298
 10
3.410452206454718
 20
-28.86853156470188
 10
3.4340485318791285
 20
-28.847289427288743
 10
3.4554331629347095
 20
-28.826546224223286
 10
3.474784808927027
 20
-28.806373432659438
 10
3.492337429268475
 20
-28.78676438782036
 10
3.5083888699467245
 20
-28.767607514897204
 10
3.5233149400464168
 20
-28.748649816873144
 10
3.537593071830228
 20
-28.729445664412214
 10
3.551843162777644
 20
-28.709283113804446
 10
3.5668999949236437
 20
-28.68707560540492
 10
3.5839454250413825
 20
-28.66120060018323
 10
3.6047572984697354
 20
-28.629259713976108
 10
3.632192665337068
 20
-28.587736107129743
 10
3.671146767306355
 20
-28.531574595962073
 10
3.7304421070901252
 20
-28.453965402915223
 10
3.8261896521469634
 20
-28.347597080871278
 10
3.9853546065536003
 20
-28.211418823444287
 10
4.238176137313768
 20
-28.06884246169253
 10
4.575374071056257
 20
-27.979465721270163
 10
4.913012892083278
 20
-27.984765385952727
 10
5.1715015696461855
 20
-28.052234932068416
 10
5.342672715875202
 20
-28.130818660726774
 10
5.4522681474931085
 20
-28.197210120373136
 10
5.524123351927632
 20
-28.247849708176652
 10
5.5735080417633736
 20
-28.28556851811947
 10
5.609466941417725
 20
-28.314032693816916
 10
5.637400754189555
 20
-28.336268677280273
 10
5.660655778118004
 20
-28.354490969464877
 10
5.6813999773045545
 20
-28.370241523057793
 10
5.701099617621352
 20
-28.384560172127266
 10
5.720783398262708
 20
-28.398123010561513
 10
5.7411931030958225
 20
-28.411343985291882
 10
5.7628723041805205
 20
-28.424447482200424
 10
5.786220311805553
 20
-28.437520217469643
 10
5.811526089072248
 20
-28.450548831142715
 10
5.838990328819211
 20
-28.463447661535362
 10
5.868740392295257
 20
-28.47607973321262
 10
5.900840877770717
 20
-28.488272991377396
 10
5.935301490376165
 20
-28.499833145191584
 10
5.972083243980911
 20
-28.510554037201782
 10
6.011103641921994
 20
-28.520226159902514
 10
6.052241247283026
 20
-28.528643742474735
 10
6.095339904705288
 20
-28.535610697401477
 10
6.140212779873044
 20
-28.54094562621067
 10
6.186646319688828
 20
-28.544486021847536
 10
6.234404193724241
 20
-28.546091762843865
 10
6.283231248477409
 20
-28.545647965379892
 10
6.332857485758681
 20
-28.54306723940967
 10
6.3830020623007195
 20
-28.538291381448417
 10
6.433377297615396
 20
-28.531292527470256
 10
6.483692670010792
 20
-28.522073783278486
 10
6.533658775748924
 20
-28.510669345703075
 10
6.582991223053983
 20
-28.497144125311003
 10
6.631414430719349
 20
-28.481592879399066
 10
6.678665300187579
 20
-28.46413886237316
 10
6.724496730042758
 20
-28.44493199873897
 10
6.768680942789794
 20
-28.424146581351273
 10
6.811012595585379
 20
-28.401978493744863
 10
6.851311649289031
 20
-28.378641949620263
 10
6.889425973968789
 20
-28.354365733987954
 10
6.925233674100762
 20
-28.329388917861564
 10
6.958645123630333
 20
-28.303955999988606
 10
6.98960471062582
 20
-28.27831140238818
 10
7.018092304818476
 20
-28.252693207665537
 10
7.044124481183175
 20
-28.227325969521246
 10
7.067755562796544
 20
-28.202412344850913
 10
7.0890785933144675
 20
-28.17812317275261
 10
7.108226425546069
 20
-28.15458544110306
 10
7.125373239425458
 20
-28.131867300529933
 10
7.1407370201640585
 20
-28.109958852184747
 10
7.154583911188175
 20
-28.088746756581784
 10
7.167236053895093
 20
-28.067979630899117
 10
7.179085832402679
 20
-28.04721946336483
 10
7.19062196603961
 20
-28.025771452722886
 10
7.202477934610197
 20
-28.0025801235754
 10
7.215523630923706
 20
-27.976072428879892
 10
7.231043294944902
 20
-27.943918472898982
 10
7.251091001074986
 20
-27.90267115490846
 10
7.279219490874964
 20
-27.847260467534564
 10
7.321987099363676
 20
-27.770458970665075
 10
7.391922996558911
 20
-27.663090656768514
 10
7.512046668370356
 20
-27.518020786768748
 10
7.7156629806145896
 20
-27.345078792246465
 10
8.017565608626585
 20
-27.19380796521875
 10
8.360149563574288
 20
-27.128028925538974
 10
8.649795456871162
 20
-27.14679063768046
 10
8.852283657171645
 20
-27.20042392255297
 10
8.984700699738015
 20
-27.25471516638499
 10
9.071797321763945
 20
-27.298911349445603
 10
9.131261321375282
 20
-27.332609571165637
 10
9.173996150602377
 20
-27.35811728865676
 10
9.20660563178232
 20
-27.37786509928145
 10
9.233189777673683
 20
-27.393781938488655
 10
9.25639099146733
 20
-27.407257297559532
 10
9.277978082623571
 20
-27.419240245211604
 10
9.299174604328933
 20
-27.430347539507387
 10
9.32084796571262
 20
-27.440951656128966
 10
9.343621669702408
 20
-27.451246943139402
 10
9.367944079875466
 20
-27.461298285523647
 10
9.394131956689375
 20
-27.471076978180136
 10
9.42239898202935
 20
-27.480487514680647
 10
9.452875154641298
 20
-27.489387957273006
 10
9.485620533189724
 20
-27.497605738398928
 10
9.520635432372849
 20
-27.504950161948326
 10
9.557868374769994
 20
-27.51122247118508
 10
9.597222618932296
 20
-27.516224077078775
 10
9.63856178743309
 20
-27.519763355230438
 10
9.681714931599629
 20
-27.521661293288567
 10
9.726481249211972
 20
-27.521756184458052
 10
9.772634592263373
 20
-27.519907503518787
 10
9.819927848801822
 20
-27.515999061082486
 10
9.86809724668
 20
-27.50994150384576
 10
9.916866601999498
 20
-27.501674209437656
 10
9.965951517512046
 20
-27.49116661143388
 10
10.015063523905722
 20
-27.47841898136151
 10
10.063914148230843
 20
-27.463462688731628
 10
10.112218887695471
 20
-27.44635995635986
 10
10.159701063005635
 20
-27.427203125746328
 10
10.20609552287005
 20
-27.406113445521513
 10
10.251152169916532
 20
-27.383239394438682
 10
10.29463927784867
 20
-27.358754548662034
 10
10.336346570060163
 20
-27.332855000704644
 10
10.376088031017558
 20
-27.305756333795337
 10
10.413704423481457
 20
-27.277690150064217
 10
10.449065487068209
 20
-27.2489001429042
 10
10.48207179685465
 20
-27.21963769205223
 10
10.512656264903972
 20
-27.190156942728265
 10
10.540785273148137
 20
-27.16070930523157
 10
10.566459433739084
 20
-27.131537275246167
 10
10.58971398409432
 20
-27.102867422504062
 10
10.610618840764785
 20
-27.074902318329862
 10
10.629278363167778
 20
-27.047811058352405
 10
10.645830922852394
 20
-27.021717865325602
 10
10.660448450545042
 20
-26.99668799630262
 10
10.673336268689486
 20
-26.972709775483096
 10
10.684733763613485
 20
-26.949670940910217
 10
10.694916912103174
 20
-26.927326481463073
 10
10.704204562718946
 20
-26.905253497945452
 10
10.712972125436998
 20
-26.882785919838042
 10
10.721679904413485
 20
-26.858917435071177
 10
10.730930865842414
 20
-26.832153646262352
 10
10.74158910315027
 20
-26.80028295471024
 10
10.755027164789627
 20
-26.76002030417931
 10
10.773654122274188
 20
-26.706469811804837
 10
10.802060044224222
 20
-26.632413291245943
 10
10.849447275276775
 20
-26.52782795125527
 10
10.934129146792582
 20
-26.381683898116634
 10
11.08760221652208
 20
-26.19249635680069
 10
11.34013455585148
 20
-25.993734477124143
 10
11.666458302319551
 20
-25.856962670089054
 10
11.975485277593435
 20
-25.816207749930953
 10
12.206687547861392
 20
-25.835237582966155
 10
12.362353040623635
 20
-25.871601004055897
 10
12.465492037426642
 20
-25.90606338430681
 10
12.535616828834122
 20
-25.933828369003457
 10
12.585455019339086
 20
-25.95521541703468
 10
12.622874482961569
 20
-25.971737664941593
 10
12.652785326547498
 20
-25.984868057663373
 10
12.678343295349798
 20
-25.995748070655953
 10
12.70164466253262
 20
-26.005179524619376
 10
12.724123495581837
 20
-26.01368502922788
 10
12.746782686106043
 20
-26.02157350324443
 10
12.770331960506235
 20
-26.028995026455668
 10
12.795272867469476
 20
-26.035983474050084
 10
12.821952813522943
 20
-26.042488973460294
 10
12.850600587665728
 20
-26.048402634885008
 10
12.881350564202474
 20
-26.05357559687178
 10
12.914259843811958
 20
-26.057833912398838
 10
12.949320917900524
 20
-26.06099036740854
 10
12.986471458802328
 20
-26.06285399958107
 10
13.02560224760366
 20
-26.063237853694954
 10
13.066563887557809
 20
-26.06196534789797
 10
13.109172721898451
 20
-26.05887551267887
 10
13.15321622740679
 20
-26.053827286371988
 10
13.198458058305246
 20
-26.046702997063786
 10
13.244642850353614
 20
-26.037411123455357
 10
13.291500851062356
 20
-26.02588840150798
 10
13.338752411650958
 20
-26.012101326067143
 10
13.386112355288208
 20
-25.99604708470038
 10
13.433294221375931
 20
-25.977753952990852
 10
13.480014375283105
 20
-25.957281175288013
 10
13.525995965748013
 20
-25.934718351537885
 10
13.570972707282264
 20
-25.91018434862914
 10
13.614692461744806
 20
-25.883825753163375
 10
13.65692059138526
 20
-25.855814881237883
 10
13.697443054780486
 20
-25.826347359301888
 10
13.736069216981647
 20
-25.79563928798601
 10
13.772634345673625
 20
-25.763923997536992
 10
13.807001766093228
 20
-25.73144839853117
 10
13.839064648750623
 20
-25.69846892413666
 10
13.868747405585674
 20
-25.66524704930761
 10
13.896006672047035
 20
-25.632044356463624
 10
13.920831854776885
 20
-25.599117094303853
 10
13.943245227339165
 20
-25.566710143279593
 10
13.96330156025588
 20
-25.535050253137463
 10
13.981087277581947
 20
-25.504338347531046
 10
13.996719142475666
 20
-25.474740586548695
 10
14.010342492896811
 20
-25.44637772194334
 10
14.022129083920087
 20
-25.41931204250032
 10
14.032274661547604
 20
-25.393530840015924
 10
14.040996527288257
 20
-25.36892474894501
 10
14.048531620819269
 20
-25.345258387473482
 10
14.055136191972807
 20
-25.322129217746173
 10
14.061089260004563
 20
-25.298908036796075
 10
14.066704449417605
 20
-25.274650295500873
 10
14.072360009234265
 20
-25.24796032759449
 10
14.078568550795922
 20
-25.216778760919347
 10
14.086135172320837
 20
-25.178045161678327
 10
14.09651671961971
 20
-25.12716669398524
 10
14.112645362778208
 20
-25.057232480382538
 10
14.140802537449494
 20
-24.958121479402234
 10
14.19456525335428
 20
-24.81673788655376
 10
14.300702254603383
 20
-24.623371638148463
 10
14.496119593851624
 20
-24.39407799180004
 10
14.785876813855637
 20
-24.1939494371997
 10
15.097995292407033
 20
-24.086521574668797
 10
15.35208199214621
 20
-24.060972428933123
 10
15.530106435787001
 20
-24.0726351196791
 10
15.649590091858649
 20
-24.09342240970019
 10
15.730743947556874
 20
-24.11296535351667
 10
15.787906147398715
 20
-24.128856610780115
 10
15.8302100265256
 20
-24.14129949690892
 10
15.863409915806317
 20
-24.151101683933007
 10
15.89120397775179
 20
-24.15903987154784
 10
15.916035759512777
 20
-24.16570021449037
 10
15.939562493567413
 20
-24.17146937896935
 10
15.96293049307829
 20
-24.176566398016504
 10
15.98694072576872
 20
-24.18108018053176
 10
16.012151197038694
 20
-24.185002671521335
 10
16.03894223073362
 20
-24.188255832314404
 10
16.06755946304625
 20
-24.19071302500379
 10
16.09814314707552
 20
-24.192215896215043
 10
16.13074887547668
 20
-24.19258778344714
 10
16.1653628255744
 20
-24.19164445816398
 10
16.20191345402776
 20
-24.189202814137087
 10
16.240280859553664
 20
-24.18508794324909
 10
16.280304595792277
 20
-24.179138916141802
 10
16.32179044163638
 20
-24.171213494549317
 10
16.364516459744674
 20
-24.161191937621787
 10
16.408238558245664
 20
-24.148980019021177
 10
16.452695693469913
 20
-24.134511339706243
 10
16.497614799274327
 20
-24.117748999203048
 10
16.54271549263711
 20
-24.098686672963424
 10
16.587714580313957
 20
-24.077349133131538
 10
16.632330373980654
 20
-24.053792243218584
 10
16.67628680915587
 20
-24.028102452776192
 10
16.71931735478242
 20
-24.000395815377864
 10
16.761168694601025
 20
-23.970816551470598
 10
16.80160415766031
 20
-23.939535176465682
 10
16.840406872948567
 20
-23.906746213395405
 10
16.877382621828158
 20
-23.872665508191638
 10
16.91236236140013
 20
-23.83752716376417
 10
16.945204391885802
 20
-23.80158010613889
 10
16.97579614136591
 20
-23.765084291439603
 10
17.004055541567915
 20
-23.728306555783938
 10
17.02993196864054
 20
-23.691516100285806
 10
17.053406722795884
 20
-23.65497958901225
 10
17.074493020131605
 20
-23.618955817029764
 10
17.09323546867068
 20
-23.58368987579024
 10
17.109708998545972
 20
-23.5494066998021
 10
17.124017213341986
 20
-23.5163038152939
 10
17.13629012633941
 20
-23.484543018212126
 10
17.14668124317647
 20
-23.45424056920248
 10
17.15536395470223
 20
-23.425455280978564
 10
17.162527218518832
 20
-23.39817354546479
 10
17.168370552688003
 20
-23.372289831773113
 10
17.173098479756945
 20
-23.347580357453225
 10
17.17691483153482
 20
-23.323666279036836
 10
17.180017953638405
 20
-23.29996048387585
 10
17.18259929243
 20
-23.27558821984721
 10
17.184851191640227
 20
-23.24926518832723
 10
17.18699761479435
 20
-23.21910536562111
 10
17.189380541833888
 20
-23.182311906642283
 10
17.192681689160057
 20
-23.13467665613562
 10
17.19847559594465
 20
-23.06979131492912
 10
17.21058741842016
 20
-22.977954383233627
 10
17.238263383421515
 20
-22.845402246968682
 10
17.302258163772166
 20
-22.657276203879984
 10
17.4389879876499
 20
-22.414276898312245
 10
17.675935882695132
 20
-22.164922527968617
 10
17.971764285272133
 20
-21.989401978731262
 10
18.239096339019852
 20
-21.91017268943086
 10
18.436745847727277
 20
-21.889644374642675
 10
18.572133106771485
 20
-21.892157929025853
 10
18.664362628899745
 20
-21.900785415039675
 10
18.728910424682365
 20
-21.909575120320138
 10
18.77608593439122
 20
-21.91695658008161
 10
18.812487155685787
 20
-21.922820712853508
 10
18.84236843275334
 20
-21.927439296925737
 10
18.868532585630852
 20
-21.931101283088665
 10
18.892868188034196
 20
-21.934008002804212
 10
18.9166701390458
 20
-21.936257718129898
 10
18.94083385974995
 20
-21.93785843332289
 10
18.9659758787068
 20
-21.938747420559853
 10
18.992510897832485
 20
-21.93881025912305
 10
19.020702599432276
 20
-21.9378973505524
 10
19.050698265459953
 20
-21.9358376619523
 10
19.082553209830344
 20
-21.93245000136389
 10
19.11624867748107
 20
-21.927552238148763
 10
19.15170548088149
 20
-21.920968844948042
 10
19.18879481132399
 20
-21.91253706520033
 10
19.227347148941316
 20
-21.90211193915842
 10
19.267159872325934
 20
-21.889570362707428
 10
19.30800396119932
 20
-21.874814308261865
 10
19.349630049885985
 20
-21.857773303759352
 10
19.391773999049533
 20
-21.838406241807807
 10
19.434162092143346
 20
-21.81670257412955
 10
19.47651592127974
 20
-21.7926829347521
 10
19.51855699836902
 20
-21.76639922750222
 10
19.560011107313453
 20
-21.737934208197508
 10
19.60061239906815
 20
-21.707400588680397
 10
19.640107221696773
 20
-21.67493968788343
 10
19.67825767092552
 20
-21.640719653962453
 10
19.714844842279327
 20
-21.604933280785378
 10
19.749671763048294
 20
-21.56779544137544
 10
19.78256598062454
 20
-21.529540159950166
 10
19.81338178280097
 20
-21.49041734264301
 10
19.842002025132253
 20
-21.450689184463123
 10
19.8683395401384
 20
-21.41062626608819
 10
19.89233810270605
 20
-21.370503348096722
 10
19.91397292520406
 20
-21.330594861421332
 10
19.933250654229916
 20
-21.29117007999838
 10
19.950208838119426
 20
-21.252487943139254
 10
19.964914829864895
 20
-21.214791468598467
 10
19.97746408325974
 20
-21.17830165894637
 10
19.987977790153288
 20
-21.14321074796866
 10
19.996599792805775
 20
-21.109674551490563
 10
20.00349268669916
 20
-21.077803564081034
 10
20.008833005540925
 20
-21.047652256558017
 10
20.01280535306388
 20
-21.01920574119488
 10
20.01559532164335
 20
-20.992362518271513
 10
20.017381033304805
 20
-20.966911289792716
 10
20.018323200143975
 20
-20.942498632663852
 10
20.018553843081797
 20
-20.918582324250092
 10
20.018164514436062
 20
-20.894361694669744
 10
20.017196751465935
 20
-20.868670431789702
 10
20.01564235141067
 20
-20.839806812084177
 10
20.01347359605043
 20
-20.80525812153166
 10
20.010756177748643
 20
-20.76124608633478
 10
20.00798313357866
 20
-20.701980924779278
 10
20.006988603929916
 20
-20.618513051567597
 10
20.013310109411297
 20
-20.497399493023842
 10
20.04155399213791
 20
-20.321243301030535
 10
20.12300217717989
 20
-20.07921230511152
 10
20.297189494259506
 20
-19.798824236767484
 10
20.556777455379994
 20
-19.56086462811025
 10
20.82380668013164
 20
-19.42136944588862
 10
21.03594253762124
 20
-19.360921559046336
 10
21.18574467836884
 20
-19.33996759580281
 10
21.2886363204343
 20
-19.33457065279108
 10
21.360406098031127
 20
-19.334408214916614
 10
21.41231904791501
 20
-19.33560847883264
 10
21.45176524664296
 20
-19.336850604985656
 10
21.483546556806925
 20
-19.337736275862056
 10
21.510825831946537
 20
-19.338161589323573
 10
21.53572487821425
 20
-19.33808503968129
 10
21.55968853793466
 20
-19.33744842636657
 10
21.58370746642885
 20
-19.33615617005037
 10
21.608457178857208
 20
-19.334076257904087
 10
21.63438714156239
 20
-19.331048437913335
 10
21.661779558883236
 20
-19.3268940883544
 10
21.69078940847706
 20
-19.321425692044162
 10
21.721472637509585
 20
-19.314455238582816
 10
21.753806738004997
 20
-19.30580141859528
 10
21.78770632644746
 20
-19.295295668255037
 10
21.823035390976006
 20
-19.2827871778019
 10
21.85961727667392
 20
-19.268146980293402
 10
21.897243106471905
 20
-19.251271221853468
 10
21.935679095917042
 20
-19.2320836963362
 10
21.97467306375624
 20
-19.210537710801923
 10
22.01396033646679
 20
-19.186617334997884
 10
22.053269174891827
 20
-19.160338078182694
 10
22.092325803380305
 20
-19.131747029659774
 10
22.13085908892358
 20
-19.1009224946986
 10
22.16860489496272
 20
-19.06797315456681
 10
22.205310118694243
 20
-19.033036777682906
 10
22.240736409735085
 20
-18.996278508024435
 10
22.274663560500862
 20
-18.957888756544662
 10
22.306892553607565
 20
-18.918080721167463
 10
22.337248248311965
 20
-18.877087560677044
 10
22.365581685924443
 20
-18.835159247232287
 10
22.39177199283209
 20
-18.79255912104387
 10
22.41572785889978
 20
-18.749560168635508
 10
22.437388568231626
 20
-18.706441042684975
 10
22.45672455823013
 20
-18.663481836192254
 10
22.473737481196576
 20
-18.620959615961773
 10
22.488459739910585
 20
-18.579143709124015
 10
22.500953464121995
 20
-18.538290720238496
 10
22.511308887920865
 20
-18.49863923329686
 10
22.51964207750157
 20
-18.460404119492825
 10
22.526091943536972
 20
-18.423770323043424
 10
22.530816450396163
 20
-18.388885925966658
 10
22.53398790336449
 20
-18.355854186357416
 10
22.535787151833034
 20
-18.324724083600184
 10
22.536396487704884
 20
-18.295478655503178
 10
22.535990941260923
 20
-18.268020021595547
 10
22.534727582549472
 20
-18.24214935935633
 10
22.532732338953466
 20
-18.21753907015562
 10
22.530083789688344
 20
-18.193692642240464
 10
22.52679354676268
 20
-18.169884747638253
 10
22.522783601029264
 20
-18.145068898435216
 10
22.51786355576584
 20
-18.117730690618608
 10
22.5117181582536
 20
-18.085647987078122
 10
22.50393677159058
 20
-18.045490161498382
 10
22.494175982203622
 20
-17.992142452579973
 10
22.482711357719076
 20
-17.917597545774935
 10
22.47206360718814
 20
-17.809375857917487
 10
22.471250723819548
 20
-17.649521601637208
 10
22.504145353542235
 20
-17.419881518773114
 10
22.612643433918787
 20
-17.127671317858365
 10
22.81859995103307
 20
-16.839963779259257
 10
23.06857218740921
 20
-16.637991632019034
 10
23.287167372888508
 20
-16.530464640958062
 10
23.44849077863159
 20
-16.480426031958096
 10
23.56099859670493
 20
-16.45749932525682
 10
23.639519277959028
 20
-16.446284725196797
 10
23.695872035662244
 20
-16.440040890003065
 10
23.738115467509797
 20
-16.43589903122492
 10
23.77155877520458
 20
-16.432599914228845
 10
23.799710072527194
 20
-16.42953639699923
 10
23.824917787658432
 20
-16.426358177744387
 10
23.848773022919012
 20
-16.42280994259294
 10
23.872359287344757
 20
-16.418666853676566
 10
23.89640948825493
 20
-16.41371112796502
 10
23.92140687235941
 20
-16.407726015021083
 10
23.947651718451
 20
-16.400496977476305
 10
23.97530674231404
 20
-16.391815611553465
 10
24.004429015554223
 20
-16.381484340781096
 10
24.034993175434714
 20
-16.36932102403466
 10
24.066908904291747
 20
-16.355163116865498
 10
24.100034568231948
 20
-16.338871249047507
 10
24.13418823271297
 20
-16.320332180623307
 10
24.169156849642064
 20
-16.29946114114265
 10
24.20470413942493
 20
-16.276203573435428
 10
24.240577514419485
 20
-16.250536308639937
 10
24.2765142728867
 20
-16.222468200026647
 10
24.312247213577745
 20
-16.192040242474434
 10
24.347509767339567
 20
-16.15932520358581
 10
24.38204070517181
 20
-16.124426791867826
 10
24.41558845661705
 20
-16.087478387274718
 10
24.447915054664104
 20
-16.0486413596501
 10
24.478799711113684
 20
-16.00810300109814
 10
24.508042017984057
 20
-15.966074098896922
 10
24.535464764888047
 20
-15.922786176082754
 10
24.56091635858484
 20
-15.878488427105228
 10
24.584272828487773
 20
-15.833444375798194
 10
24.60543940031464
 20
-15.787928282119383
 10
24.624351618885477
 20
-15.74222132243225
 10
24.640975999919164
 20
-15.696607565221639
 10
24.655310189158243
 20
-15.651369759625569
 10
24.667382604807653
 20
-15.606784947453445
 10
24.677251535562785
 20
-15.563119899615922
 10
24.68500366071741
 20
-15.520626363920266
 10
24.690751950042156
 20
-15.479536091202634
 10
24.6946328880168
 20
-15.44005557809122
 10
24.696802947784196
 20
-15.402360423186185
 10
24.697434212335626
 20
-15.366589132642723
 10
24.696709000357117
 20
-15.33283612076971
 10
24.694813296836077
 20
-15.301143514635575
 10
24.691928707011932
 20
-15.271491161266162
 10
24.68822253740344
 20
-15.243783905376713
 10
24.683835448585928
 20
-15.217834674712597
 10
24.678865911796983
 20
-15.193341038148278
 10
24.673350439135632
 20
-15.169851435250111
 10
24.66723829770437
 20
-15.146714749097965
 10
24.66035936725364
 20
-15.123002434683833
 10
24.65238461933105
 20
-15.097384374274059
 10
24.642782377486395
 20
-15.06792491849704
 10
24.630785977911895
 20
-15.031738723829147
 10
24.61542718626583
 20
-14.984399344874102
 10
24.595805834050378
 20
-14.918927672113231
 10
24.572098563250343
 20
-14.824180168311447
 10
24.548634078235022
 20
-14.683002159181733
 10
24.541403355236824
 20
-14.47365623218046
 10
24.58756431308281
 20
-14.187097492448073
 10
24.727926236516545
 20
-13.86774004584823
 10
24.94258404283386
 20
-13.60706767274878
 10
25.156498912451298
 20
-13.44703966070777
 10
25.324661609572402
 20
-13.362208823106297
 10
25.44490017683503
 20
-13.317918062352767
 10
25.52929278801442
 20
-13.293312667912504
 10
25.589573391589475
 20
-13.27821945598459
 10
25.634247587492812
 20
-13.267852779425583
 10
25.669048826798353
 20
-13.259877154098922
 10
25.69779485877237
 20
-13.253057057609691
 10
25.723042934078155
 20
-13.246658899145869
 10
25.746520229544892
 20
-13.240184631824103
 10
25.769396720116315
 20
-13.233251523872703
 10
25.79245853721183
 20
-13.225537717001327
 10
25.81622002441411
 20
-13.216758131769717
 10
25.840997945057477
 20
-13.206654641478307
 10
25.8669620194539
 20
-13.194992995880385
 10
25.894170404539913
 20
-13.181562877809904
 10
25.92259541704795
 20
-13.166179309446019
 10
25.952142815483697
 20
-13.148684511415967
 10
25.982666748203105
 20
-13.128949757586962
 10
26.013981727363856
 20
-13.106876991473577
 10
26.045872517574313
 20
-13.082400085771036
 10
26.078102526051044
 20
-13.05548568767652
 10
26.110421084126287
 20
-13.026133625798524
 10
26.142569879473225
 20
-12.994376872989697
 10
26.174288710781855
 20
-12.960281070293412
 10
26.20532067706501
 20
-12.923943623972416
 10
26.235416872929232
 20
-12.885492392177321
 10
26.26434063296759
 20
-12.845083981190577
 10
26.29187134895017
 20
-12.802901673841014
 10
26.31780787005378
 20
-12.759153014855178
 10
26.34197148718109
 20
-12.714067079674843
 10
26.364208496211106
 20
-12.66789145462824
 10
26.38439233089671
 20
-12.620888957235602
 10
26.402425253403795
 20
-12.57333412576844
 10
26.418239588639818
 20
-12.52550950682705
 10
26.43179848709044
 20
-12.477701768478159
 10
26.443096199451432
 20
-12.430197664155859
 10
26.452157844468513
 20
-12.383279868746055
 10
26.459038648588677
 20
-12.337222702574554
 10
26.46382263167471
 20
-12.292287750732445
 10
26.46662070635558
 20
-12.248719373316789
 10
26.467568148518488
 20
-12.206740085274374
 10
26.466821381520703
 20
-12.16654576040046
 10
26.464553994821138
 20
-12.128300579249254
 10
26.46095188590025
 20
-12.092131589925904
 10
26.456207368183428
 20
-12.058122675446505
 10
26.450512020826537
 20
-12.026307607787084
 10
26.444047959321132
 20
-11.996661694085024
 10
26.436977065386095
 20
-11.969091246205563
 10
26.429427511346326
 20
-11.943419664616608
 10
26.421476622535796
 20
-11.919368203995148
 10
26.41312871182613
 20
-11.896528269429147
 10
26.40428597532028
 20
-11.87431998678914
 10
26.394709907039616
 20
-11.85192805842041
 10
26.38397027128675
 20
-11.828199131721766
 10
26.37137957965576
 20
-11.80147231831972
 10
26.355916956829482
 20
-11.769290892747112
 10
26.336168045379907
 20
-11.727899682822228
 10
26.310384052057774
 20
-11.671359945450721
 10
26.277003391647135
 20
-11.59003793263877
 10
26.236663782308344
 20
-11.468416797699598
 10
26.19813947512125
 20
-11.284050744785914
 10
26.189880673339275
 20
-11.017029531631643
 10
26.259845588109886
 20
-10.686676734441415
 10
26.422015066192056
 20
-10.377821252658523
 10
26.617274824030087
 20
-10.163064710697121
 10
26.785456342535678
 20
-10.038192867032093
 10
26.91046362181836
 20
-9.968515091197881
 10
26.99932144474957
 20
-9.927976079500766
 10
27.062742972728874
 20
-9.902495750114362
 10
27.1093304395166
 20
-9.884988116951131
 10
27.145101578532397
 20
-9.871805556471235
 10
27.174120808380366
 20
-9.860945221202373
 10
27.199121988530628
 20
-9.851207530784109
 10
27.221949965445493
 20
-9.841801308960513
 10
27.243849812929138
 20
-9.83215448569211
 10
27.26565356494238
 20
-9.821821128002727
 10
27.28790191663637
 20
-9.810434935709313
 10
27.310925147252966
 20
-9.797685819178076
 10
27.334898311154987
 20
-9.783308227772796
 10
27.35987996688636
 20
-9.767075550984384
 10
27.38584019593621
 20
-9.748797654959597
 10
27.41268152551943
 20
-9.728319989831013
 10
27.44025505962473
 20
-9.705523412477767
 10
27.4683733083316
 20
-9.680324246770008
 10
27.496820691177245
 20
-9.652674309982814
 10
27.525362360238987
 20
-9.622560750423345
 10
27.553751773270587
 20
-9.590005608770264
 10
27.581737304672366
 20
-9.555065055983238
 10
27.609068086427243
 20
-9.517828285651982
 10
27.63549920623154
 20
-9.478416054781599
 10
27.660796345615733
 20
-9.436978877867636
 10
27.684739910257594
 20
-9.39369488674675
 10
27.707128683580287
 20
-9.348767374287393
 10
27.72778302019812
 20
-9.30242204417365
 10
27.746547585840226
 20
-9.254903992209703
 10
27.763293643673396
 20
-9.206474446926133
 10
27.777920882471378
 20
-9.157407298889105
 10
27.79035877910465
 20
-9.10798544901037
 10
27.800567485775936
 20
-9.05849700627764
 10
27.80853823081239
 20
-9.009231364572987
 10
27.81429322019462
 20
-8.960475186449363
 10
27.817885024889918
 20
-8.912508318651676
 10
27.81939543594016
 20
-8.86559965943308
 10
27.818933764491188
 20
-8.820002990807694
 10
27.816634556709786
 20
-8.775952779012972
 10
27.81265468268559
 20
-8.733659932462823
 10
27.807169742383003
 20
-8.693307486578911
 10
27.800369708232655
 20
-8.65504615634755
 10
27.792453689754453
 20
-8.618989655963697
 10
27.783623655843915
 20
-8.585209623621719
 10
27.774076877819642
 20
-8.553729897243786
 10
27.763996750191183
 20
-8.524519745216761
 10
27.753541490031715
 20
-8.497485433793138
 10
27.742829985282718
 20
-8.472459155679786
 10
27.731923720946114
 20
-8.449183756924034
 10
27.72080320832574
 20
-8.42729070825082
 10
27.709336610341825
 20
-8.40626705048141
 10
27.697237236384517
 20
-8.385403988101482
 10
27.684005314943647
 20
-8.363714215517332
 10
27.668848422371102
 20
-8.339794573247705
 10
27.650576214614855
 20
-8.311590576611867
 10
27.627476101251084
 20
-8.275980924957043
 10
27.597222358442334
 20
-8.228029597293022
 10
27.55703344183559
 20
-8.159647467894349
 10
27.50481078572586
 20
-8.057390745882369
 10
27.443349047299012
 20
-7.900064466002769
 10
27.391125165243775
 20
-7.662117885728029
 10
27.393178208409527
 20
-7.3407541475224205
 10
27.48970523178261
 20
-7.000348142188593
 10
27.65051691972005
 20
-6.73333084689344
 10
27.80954729997174
 20
-6.564434540008376
 10
27.935033214628582
 20
-6.4654025792430865
 10
28.026283101150135
 20
-6.4062522071065615
 10
28.09171273259621
 20
-6.368737622289805
 10
28.13950740358702
 20
-6.343107162263114
 10
28.175755671121436
 20
-6.324152900619755
 10
28.204670531469315
 20
-6.308954327393531
 10
28.229112001061022
 20
-6.295755879900892
 10
28.25101397350293
 20
-6.283418552815709
 10
28.271679167944008
 20
-6.271146988831754
 10
28.291974399489007
 20
-6.258349703414235
 10
28.3124595124131
 20
-6.244565383335351
 10
28.33347370189668
 20
-6.229423022876128
 10
28.355194580423234
 20
-6.21261991363924
 10
28.37767966212572
 20
-6.193909289501753
 10
28.400896343442643
 20
-6.17309327880431
 10
28.424744228807008
 20
-6.150018784244489
 10
28.449072266843018
 20
-6.124574950221482
 10
28.473692296533063
 20
-6.096691443407737
 10
28.498390053520275
 20
-6.066337089914441
 10
28.5229343332054
 20
-6.033518595837542
 10
28.54708477643595
 20
-5.9982791869702305
 10
28.570598590701167
 20
-5.960697070145748
 10
28.5932364172124
 20
-5.9208836606956785
 10
28.614767484737342
 20
-5.87898154782601
 10
28.634974143532546
 20
-5.835162188042563
 10
28.653655840050646
 20
-5.789623329443835
 10
28.670632570597395
 20
-5.742586178731558
 10
28.68574783665231
 20
-5.694292329357637
 10
28.69887111401306
 20
-5.645000474053818
 10
28.70989984079995
 20
-5.594982928505036
 10
28.718760924602368
 20
-5.54452199538238
 10
28.725411765880757
 20
-5.493906199473568
 10
28.72984079254042
 20
-5.443426425288203
 10
28.732067498853656
 20
-5.393371988245522
 10
28.732141980150395
 20
-5.34402666928953
 10
28.730143952444838
 20
-5.295664740359696
 10
28.726181242877896
 20
-5.2485470043150535
 10
28.720387731876084
 20
-5.20291686727919
 10
28.712920720405833
 20
-5.1589964533445425
 10
28.7039576844825
 20
-5.116982760253606
 10
28.693692362555858
 20
-5.077043838677641
 10
28.68233009721212
 20
-5.0393149549072165
 10
28.67008231740379
 20
-5.003894663778468
 10
28.65715999608565
 20
-4.970840670093423
 10
28.643765843084356
 20
-4.940165283859479
 10
28.63008488265764
 20
-4.911830162770594
 10
28.61627290167639
 20
-4.885739859724519
 10
28.602442010102934
 20
-4.8617334108988315
 10
28.58864218778569
 20
-4.839572734830605
 10
28.574837135284405
 20
-4.818925826460138
 10
28.56087190498813
 20
-4.7993413633536655
 10
28.54642853186884
 20
-4.780208897839642
 10
28.530964079365226
 20
-4.760694311662821
 10
28.51362320605943
 20
-4.739631694145629
 10
28.493115437908234
 20
-4.7153362720645795
 10
28.46755000194763
 20
-4.685270445024403
 10
28.434244402993812
 20
-4.64543161876858
 10
28.389623677624716
 20
-4.589218468795481
 10
28.32969128805606
 20
-4.5054096048168395
 10
28.252673649149585
 20
-4.375224992648385
 10
28.16766916637827
 20
-4.1716818597127165
 10
28.110240893060823
 20
-3.8759361815390756
 10
28.134434760220913
 20
-3.524616751813309
 10
28.245046963548415
 20
-3.213612522298468
 10
28.383492303137427
 20
-2.9990299093535624
 10
28.503606987024526
 20
-2.8671163634086794
 10
28.594355985847724
 20
-2.7866609427878988
 10
28.66023387599291
 20
-2.7353971296472164
 10
28.708298209870634
 20
-2.7006139590462226
 10
28.74440248719358
 20
-2.675297467121299
 10
28.77276593799543
 20
-2.655452312112632
 10
28.796301577161664
 20
-2.6386714184810667
 10
28.816991205648126
 20
-2.6234098056360993
 10
28.83617039881943
 20
-2.6086128794904155
 10
28.854725118162122
 20
-2.5935209811863276
 10
28.873224270660295
 20
-2.577563322733612
 10
28.892009469342522
 20
-2.560298615736769
 10
28.911256829158116
 20
-2.5413808547244994
 10
28.931020492265535
 20
-2.520539036144436
 10
28.95126409938808
 20
-2.497564773994205
 10
28.971884191674366
 20
-2.472304456918031
 10
28.99272811515776
 20
-2.4446540273051736
 10
29.013608105080753
 20
-2.414555255125818
 10
29.034312655543403
 20
-2.3819928295504074
 10
29.054615910237928
 20
-2.346991854780681
 10
29.074285567930367
 20
-2.309615494884604
 10
29.09308963578564
 20
-2.2699626102639865
 10
29.110802255893585
 20
-2.22816529046771
 10
29.1272087573276
 20
-2.1843862285298496
 10
29.14211003618003
 20
-2.1388159090886187
 10
29.155326331765266
 20
-2.091669601126356
 10
29.166700443625743
 20
-2.0431841592163136
 10
29.176100417815775
 20
-1.9936146464881577
 10
29.18342171992772
 20
-1.9432307992583935
 10
29.188588904902954
 20
-1.8923133581181222
 10
29.191556788723048
 20
-1.8411502936717972
 10
29.192311123780215
 20
-1.7900329573401972
 10
29.190868777441047
 20
-1.739252188834749
 10
29.18727741151054
 20
-1.6890944121381573
 10
29.181614658490144
 20
-1.6398377510875293
 10
29.173986788216755
 20
-1.591748193869457
 10
29.1645268551284
 20
-1.5450758327466065
 10
29.15339231137151
 20
-1.5000512008762548
 10
29.140762063397048
 20
-1.4568817217282695
 10
29.126832938440838
 20
-1.415748277711854
 10
29.111815510735468
 20
-1.3768018921505445
 10
29.095929213141513
 20
-1.3401605011083637
 10
29.079396624712846
 20
-1.305905766220536
 10
29.062436773451964
 20
-1.2740798425321351
 10
29.04525721847814
 20
-1.244681959689773
 10
29.028044565224352
 20
-1.2176645894796934
 10
29.010952902747775
 20
-1.1929288386044918
 10
28.99408940496441
 20
-1.170318489565601
 10
28.977495961980395
 20
-1.1496117554285694
 10
28.961125131353292
 20
-1.130509207951519
 10
28.944807808386948
 20
-1.1126152799699611
 10
28.928208636398658
 20
-1.0954088398875803
 10
28.910763071493754
 20
-1.0781948098833298
 10
28.891586932929812
 20
-1.0600220624787393
 10
28.869345306979586
 20
-1.0395395793990132
 10
28.842064753108783
 20
-1.0147361855706547
 10
28.80688024627973
 20
-0.9824551517629051
 10
28.759763285566923
 20
-0.9374699444998467
 10
28.69551387890948
 20
-0.8707411500322788
 10
28.60913612764414
 20
-0.7664583041107838
 10
28.501953357406087
 20
-0.5991305007891891
 10
28.39721850089306
 20
-0.3407232310090461
 10
28.35
 20
1.5598312042026412e-17
  0
CIRCLE
  5
30
330
17
100
AcDbEntity
  8
0
100
AcDbCircle
 10
20.0
 20
0.0
 30
0.0
 40
4.45
  0
CIRCLE
  5
31
330
17
100
AcDbEntity
  8
0
100
AcDbCircle
 10
10.000000000000002
 20
17.32050807568877
 30
0.0
 40
4.45
  0
CIRCLE
  5
32
330
17
100
AcDbEntity
  8
0
100
AcDbCircle
 10
-9.999999999999995
 20
17.320508075688775
 30
0.0
 40
4.45
  0
CIRCLE
  5
33
330
17
100
AcDbEntity
  8
0
100
AcDbCircle
 10
-20.0
 20
2.4492935982947065e-15
 30
0.0
 40
4.45
  0
CIRCLE
  5
34
330
17
100
AcDbEntity
  8
0
100
AcDbCircle
 10
-10.000000000000007
 20
-17.320508075688764
 30
0.0
 40
4.45
  0
CIRCLE
  5
35
330
17
100
AcDbEntity
  8
0
100
AcDbCircle
 10
10.0
 20
-17.32050807568877
 30
0.0
 40
4.45
  0
ENDSEC
  0
SECTION
  2
OBJECTS
  0
DICTIONARY
  5
A
330
0
100
AcDbDictionary
280
0
281
1
  3
ACAD_COLOR
350
B
  3
ACAD_GROUP
350
C
  3
ACAD_LAYOUT
350
D
  3
ACAD_MATERIAL
350
E
  3
ACAD_MLEADERSTYLE
350
F
  3
ACAD_MLINESTYLE
350
10
  3
ACAD_PLOTSETTINGS
350
11
  3
ACAD_PLOTSTYLENAME
350
12
  3
ACAD_SCALELIST
350
14
  3
ACAD_TABLESTYLE
350
15
  3
ACAD_VISUALSTYLE
350
16
  3
EZDXF_META
350
2D
  0
DICTIONARY
  5
B
330
A
100
AcDbDictionary
280
0
281
1
  0
DICTIONARY
  5
C
330
A
100
AcDbDictionary
280
0
281
1
  0
DICTIONARY
  5
D
330
A
100
AcDbDictionary
280
0
281
1
  3
Model
350
1A
  3
Layout1
350
1E
  0
DICTIONARY
  5
E
330
A
100
AcDbDictionary
280
0
281
1
  3
ByBlock
350
1F
  3
ByLayer
350
20
  3
Global
350
21
  0
DICTIONARY
  5
F
330
A
100
AcDbDictionary
280
0
281
1
  3
Standard
350
2C
  0
DICTIONARY
  5
10
330
A
100
AcDbDictionary
280
0
281
1
  3
Standard
350
22
  0
DICTIONARY
  5
11
330
A
100
AcDbDictionary
280
0
281
1
  0
ACDBDICTIONARYWDFLT
  5
12
330
A
100
AcDbDictionary
280
0
281
1
  3
Normal
350
13
100
AcDbDictionaryWithDefault
340
13
  0
ACDBPLACEHOLDER
  5
13
330
12
  0
DICTIONARY
  5
14
330
A
100
AcDbDictionary
280
0
281
1
  0
DICTIONARY
  5
15
330
A
100
AcDbDictionary
280
0
281
1
  0
DICTIONARY
  5
16
330
A
100
AcDbDictionary
280
0
281
1
  0
LAYOUT
  5
1A
330
D
100
AcDbPlotSettings
  1

  2
Adobe PDF
  4
A3
  6

 40
7.5
 41
20.0
 42
7.5
 43
20.0
 44
420.0
 45
297.0
 46
0.0
 47
0.0
 48
0.0
 49
0.0
140
0.0
141
0.0
142
1.0
143
1.0
 70
1024
 72
1
 73
0
 74
5
  7

 75
16
 76
0
 77
2
 78
300
147
1.0
148
0.0
149
0.0
100
AcDbLayout
  1
Model
 70
1
 71
0
 10
0.0
 20
0.0
 11
420.0
 21
297.0
 12
0.0
 22
0.0
 32
0.0
 14
1e+20
 24
1e+20
 34
1e+20
 15
-1e+20
 25
-1e+20
 35
-1e+20
146
0.0
 13
0.0
 23
0.0
 33
0.0
 16
1.0
 26
0.0
 36
0.0
 17
0.0
 27
1.0
 37
0.0
 76
1
330
17
  0
LAYOUT
  5
1E
330
D
100
AcDbPlotSettings
  1

  2
Adobe PDF
  4
A3
  6

 40
7.5
 41
20.0
 42
7.5
 43
20.0
 44
420.0
 45
297.0
 46
0.0
 47
0.0
 48
0.0
 49
0.0
140
0.0
141
0.0
142
1.0
143
1.0
 70
0
 72
1
 73
0
 74
5
  7

 75
16
 76
0
 77
2
 78
300
147
1.0
148
0.0
149
0.0
100
AcDbLayout
  1
Layout1
 70
1
 71
1
 10
0.0
 20
0.0
 11
420.0
 21
297.0
 12
0.0
 22
0.0
 32
0.0
 14
1e+20
 24
1e+20
 34
1e+20
 15
-1e+20
 25
-1e+20
 35
-1e+20
146
0.0
 13
0.0
 23
0.0
 33
0.0
 16
1.0
 26
0.0
 36
0.0
 17
0.0
 27
1.0
 37
0.0
 76
1
330
1B
  0
MATERIAL
  5
1F
102
{ACAD_REACTORS
330
E
102
}
330
E
100
AcDbMaterial
  1
ByBlock
  2

 70
0
 40
1.0
 71
1
 41
1.0
 91
-1023410177
 42
1.0
 72
1
  3

 73
1
 74
1
 75
1
 44
0.5
 73
0
 45
1.0
 46
1.0
 77
1
  4

 78
1
 79
1
170
1
 48
1.0
171
1
  6

172
1
173
1
174
1
140
1.0
141
1.0
175
1
  7

176
1
177
1
178
1
143
1.0
179
1
  8

270
1
271
1
272
1
145
1.0
146
1.0
273
1
  9

274
1
275
1
276
1
 42
1.0
 72
1
  3

 73
1
 74
1
 75
1
 94
63
  0
MATERIAL
  5
20
102
{ACAD_REACTORS
330
E
102
}
330
E
100
AcDbMaterial
  1
ByLayer
  2

 70
0
 40
1.0
 71
1
 41
1.0
 91
-1023410177
 42
1.0
 72
1
  3

 73
1
 74
1
 75
1
 44
0.5
 73
0
 45
1.0
 46
1.0
 77
1
  4

 78
1
 79
1
170
1
 48
1.0
171
1
  6

172
1
173
1
174
1
140
1.0
141
1.0
175
1
  7

176
1
177
1
178
1
143
1.0
179
1
  8

270
1
271
1
272
1
145
1.0
146
1.0
273
1
  9

274
1
275
1
276
1
 42
1.0
 72
1
  3

 73
1
 74
1
 75
1
 94
63
  0
MATERIAL
  5
21
102
{ACAD_REACTORS
330
E
102
}
330
E
100
AcDbMaterial
  1
Global
  2

 70
0
 40
1.0
 71
1
 41
1.0
 91
-1023410177
 42
1.0
 72
1
  3

 73
1
 74
1
 75
1
 44
0.5
 73
0
 45
1.0
 46
1.0
 77
1
  4

 78
1
 79
1
170
1
 48
1.0
171
1
  6

172
1
173
1
174
1
140
1.0
141
1.0
175
1
  7

176
1
177
1
178
1
143
1.0
179
1
  8

270
1
271
1
272
1
145
1.0
146
1.0
273
1
  9

274
1
275
1
276
1
 42
1.0
 72
1
  3

 73
1
 74
1
 75
1
 94
63
  0
MLINESTYLE
  5
22
102
{ACAD_REACTORS
330
10
102
}
330
10
100
AcDbMlineStyle
  2
Standard
 70
0
  3

 62
256
 51
90.0
 52
90.0
 71
2
 49
0.5
 62
256
  6
BYLAYER
 49
-0.5
 62
256
  6
BYLAYER
  0
MLEADERSTYLE
  5
2C
102
{ACAD_REACTORS
330
F
102
}
330
F
100
AcDbMLeaderStyle
179
2
170
2
171
1
172
0
 90
2
 40
0.0
 41
0.0
173
1
 91
-1056964608
 92
-2
290
1
 42
2.0
291
1
 43
8.0
  3
Standard
 44
4.0
300

342
29
174
1
175
1
176
0
178
1
 93
-1056964608
 45
4.0
292
0
297
0
 46
4.0
 94
-1056964608
 47
1.0
 49
1.0
140
1.0
294
1
141
0.0
177
0
142
1.0
295
0
296
0
143
3.75
271
0
272
9
273
9
  0
DICTIONARY
  5
2D
330
A
100
AcDbDictionary
281
1
  3
CREATED_BY_EZDXF
350
2E
  3
WRITTEN_BY_EZDXF
350
38
  0
DICTIONARYVAR
  5
2E
330
2D
100
DictionaryVariables
280
0
  1
1.1.4 @ 2026-08-21T01:58:32.780319+00:00
  0
DICTIONARYVAR
  5
38
330
2D
100
DictionaryVariables
280
0
  1
1.1.4 @ 2026-08-21T01:58:32.788623+00:00
  0
ENDSEC
  0
EOF
